<svg width="300" height="160" viewBox="0 0 300 160" fill="none" role="img" xmlns="http://www.w3.org/2000/svg">
  <style>
    .header {font: 600 18px 'Segoe UI', Ubuntu, Sans-Serif; fill: #2f80ed; }
    .lang-name {font: 400 11px 'Segoe UI', Ubuntu, Sans-Serif; fill: #888; }
  </style>
  <rect x="0.5" y="0.5" rx="4.5" width="299" height="159" stroke="#888" stroke-opacity="1" fill="none" />
  <g transform="translate(15,25)"><text x="0" y="0" class="header">Language History</text></g>
  <g transform="translate(15,45)">
    <rect x="0" y="0" width="270" height="100" fill="#888" />
    <polygon points="0,14 4,14 11,14 15,13 19,12 22,10 26,10 30,11 33,9 37,9 41,9 44,9 48,9 52,4 59,5 62,5 66,4 70,4 74,4 78,4 81,5 85,4 88,4 92,4 96,4 99,4 103,4 107,3 110,3 114,3 118,4 121,4 124,4 131,7 135,10 146,4 149,5 153,4 157,4 160,4 164,4 168,2 175,3 178,3 182,3 193,3 200,4 204,3 208,4 211,4 219,3 233,3 237,3 251,3 255,3 259,3 270,3 270,100 0,100" fill="#ff5a03" />
    <polygon points="0,17 4,17 11,17 15,16 19,15 22,13 26,13 30,13 33,12 37,12 41,12 44,12 48,12 52,6 59,7 62,9 66,9 70,9 74,9 78,9 81,9 85,9 88,9 92,9 96,9 99,8 103,8 107,8 110,8 114,8 118,8 121,8 124,8 131,11 135,15 146,8 149,9 153,8 157,8 160,8 164,8 168,5 175,5 178,6 182,6 193,6 200,6 204,6 208,6 211,6 219,6 233,6 237,6 251,6 255,6 259,6 270,6 270,100 0,100" fill="#ff3e00" />
    <polygon points="0,17 4,17 11,17 15,16 19,15 22,13 26,13 30,13 33,12 37,12 41,12 44,12 48,12 52,6 59,7 62,9 66,9 70,9 74,9 78,9 81,9 85,9 88,9 92,9 96,9 99,8 103,8 107,8 110,8 114,8 118,8 121,8 124,8 131,11 135,15 146,8 149,9 153,8 157,8 160,8 164,8 168,8 175,10 178,11 182,11 193,11 200,12 204,10 208,10 211,10 219,10 233,10 237,10 251,10 255,9 259,9 270,9 270,100 0,100" fill="#3178c6" />
    <polygon points="0,21 4,21 11,20 15,19 19,18 22,16 26,16 30,16 33,15 37,14 41,15 44,15 48,15 52,9 59,11 62,14 66,14 70,15 74,15 78,15 81,15 85,15 88,15 92,15 96,15 99,14 103,13 107,14 110,14 114,15 118,13 121,14 124,15 131,17 135,20 146,16 149,18 153,17 157,18 160,19 164,19 168,20 175,16 178,18 182,18 193,18 200,18 204,15 208,15 211,15 219,15 233,15 237,14 251,14 255,14 259,14 270,14 270,100 0,100" fill="#3572A5" />
    <polygon points="0,40 4,40 11,40 15,38 19,35 22,33 26,33 30,33 33,32 37,32 41,32 44,32 48,32 52,29 59,31 62,33 66,33 70,33 74,33 78,33 81,33 85,33 88,34 92,34 96,34 99,34 103,34 107,35 110,34 114,35 118,34 121,35 124,35 131,38 135,40 146,38 149,39 153,39 157,39 160,39 164,40 168,40 175,37 178,37 182,38 193,37 200,38 204,35 208,35 211,35 219,34 233,34 237,34 251,34 255,33 259,32 270,32 270,100 0,100" fill="#dea584" />
    <polygon points="0,61 4,61 11,60 15,57 19,53 22,49 26,49 30,49 33,49 37,48 41,48 44,49 48,50 52,48 59,48 62,50 66,51 70,53 74,53 78,54 81,54 85,54 88,55 92,55 96,55 99,56 103,55 107,57 110,57 114,57 118,57 121,57 124,57 131,55 135,56 146,54 149,55 153,55 157,55 160,55 164,56 168,56 175,57 178,58 182,58 193,58 200,58 204,57 208,57 211,58 219,58 233,58 237,58 251,59 255,60 259,61 270,61 270,100 0,100" fill="#3D6117" />
  </g>
</svg>
