<svg width="300" height="160" viewBox="0 0 300 160" fill="none" role="img" xmlns="http://www.w3.org/2000/svg">
  <style>
    .header {font: 600 18px 'Segoe UI', Ubuntu, Sans-Serif; fill: #2f80ed; }
    .lang-name {font: 400 11px 'Segoe UI', Ubuntu, Sans-Serif; fill: #888; }
  </style>
  <rect x="0.5" y="0.5" rx="4.5" width="299" height="159" stroke="#888" stroke-opacity="1" fill="none" />
  <g transform="translate(15,25)"><text x="0" y="0" class="header">Language History</text></g>
  <g transform="translate(15,45)">
    <rect x="0" y="0" width="270" height="100" fill="#888" />
    <polygon points="0,17 3,17 7,17 10,16 12,15 15,13 17,13 19,13 22,12 24,12 27,12 29,12 31,12 34,6 39,7 41,9 43,9 46,9 49,9 51,9 53,9 56,9 58,9 61,9 63,9 65,8 68,8 70,8 73,8 75,8 77,8 80,8 82,8 86,11 89,15 96,8 98,9 101,8 103,8 106,8 108,8 110,5 115,5 118,6 120,6 127,6 132,6 135,6 137,6 139,6 144,6 154,6 156,6 166,6 168,6 171,6 178,6 180,5 183,5 197,6 199,6 202,6 204,6 207,6 209,6 211,5 214,6 221,5 228,6 233,6 235,6 238,6 240,5 243,5 245,5 248,5 250,5 255,5 262,5 264,5 267,5 270,5 270,100 0,100" fill="#ff3e00" />
    <polygon points="0,17 3,17 7,17 10,16 12,15 15,13 17,13 19,13 22,12 24,12 27,12 29,12 31,12 34,6 39,7 41,9 43,9 46,9 49,9 51,9 53,9 56,9 58,9 61,9 63,9 65,8 68,8 70,8 73,8 75,8 77,8 80,8 82,8 86,11 89,15 96,8 98,9 101,8 103,8 106,8 108,8 110,8 115,10 118,11 120,11 127,11 132,12 135,10 137,10 139,10 144,10 154,10 156,10 166,10 168,9 171,9 178,9 180,9 183,9 197,9 199,10 202,9 204,10 207,10 209,11 211,10 214,11 221,11 228,12 233,11 235,11 238,11 240,10 243,9 245,9 248,10 250,10 255,10 262,10 264,10 267,10 270,11 270,100 0,100" fill="#3178c6" />
    <polygon points="0,21 3,21 7,20 10,19 12,18 15,16 17,16 19,16 22,15 24,14 27,15 29,15 31,15 34,9 39,11 41,14 43,14 46,15 49,15 51,15 53,15 56,15 58,15 61,15 63,15 65,14 68,13 70,14 73,14 75,15 77,13 80,14 82,15 86,17 89,20 96,16 98,18 101,17 103,18 106,19 108,19 110,20 115,16 118,18 120,18 127,18 132,18 135,15 137,15 139,15 144,15 154,15 156,14 166,14 168,14 171,14 178,14 180,13 183,13 197,13 199,14 202,15 204,15 207,16 209,16 211,15 214,16 221,16 228,17 233,17 235,17 238,17 240,16 243,14 245,14 248,16 250,16 255,15 262,16 264,16 267,16 270,16 270,100 0,100" fill="#239dad" />
    <polygon points="0,21 3,21 7,20 10,19 12,18 15,16 17,16 19,16 22,15 24,14 27,15 29,15 31,15 34,9 39,11 41,14 43,14 46,15 49,15 51,15 53,15 56,15 58,15 61,15 63,15 65,14 68,13 70,14 73,14 75,15 77,13 80,14 82,15 86,17 89,20 96,16 98,18 101,17 103,18 106,19 108,19 110,20 115,16 118,18 120,18 127,18 132,18 135,15 137,15 139,15 144,15 154,15 156,14 166,14 168,14 171,14 178,14 180,13 183,13 197,13 199,14 202,28 204,28 207,29 209,29 211,28 214,29 221,29 228,31 233,31 235,31 238,31 240,30 243,28 245,28 248,30 250,30 255,30 262,30 264,30 267,30 270,30 270,100 0,100" fill="#3572A5" />
    <polygon points="0,40 3,40 7,40 10,38 12,35 15,33 17,33 19,33 22,32 24,32 27,32 29,32 31,32 34,29 39,31 41,33 43,33 46,33 49,33 51,33 53,33 56,33 58,34 61,34 63,34 65,34 68,34 70,35 73,34 75,35 77,34 80,35 82,35 86,38 89,40 96,38 98,39 101,39 103,39 106,39 108,40 110,40 115,37 118,37 120,38 127,37 132,38 135,35 137,35 139,35 144,34 154,34 156,34 166,34 168,33 171,32 178,32 180,31 183,31 197,31 199,33 202,46 204,46 207,46 209,46 211,46 214,46 221,46 228,51 233,50 235,50 238,50 240,50 243,48 245,48 248,49 250,50 255,50 262,50 264,50 267,49 270,50 270,100 0,100" fill="#dea584" />
    <polygon points="0,61 3,61 7,60 10,57 12,53 15,49 17,49 19,49 22,49 24,48 27,48 29,49 31,50 34,48 39,48 41,50 43,51 46,53 49,53 51,54 53,54 56,54 58,55 61,55 63,55 65,56 68,55 70,57 73,57 75,57 77,57 80,57 82,57 86,55 89,56 96,54 98,55 101,55 103,55 106,55 108,56 110,56 115,57 118,58 120,58 127,58 132,58 135,57 137,57 139,58 144,58 154,58 156,58 166,59 168,60 171,61 178,61 180,62 183,62 197,62 199,60 202,73 204,74 207,74 209,74 211,74 214,75 221,75 228,72 233,72 235,72 238,72 240,72 243,71 245,71 248,72 250,72 255,72 262,73 264,72 267,73 270,73 270,100 0,100" fill="#3D6117" />
  </g>
</svg>
