<svg width="300" height="160" viewBox="0 0 300 160" fill="none" role="img" xmlns="http://www.w3.org/2000/svg">
  <style>
    .header {font: 600 18px 'Segoe UI', Ubuntu, Sans-Serif; fill: #2f80ed; }
    .lang-name {font: 400 11px 'Segoe UI', Ubuntu, Sans-Serif; fill: #888; }
  </style>
  <rect x="0.5" y="0.5" rx="4.5" width="299" height="159" stroke="#888" stroke-opacity="1" fill="none" />
  <g transform="translate(15,25)"><text x="0" y="0" class="header">Language History</text></g>
  <g transform="translate(15,45)">
    <rect x="0" y="0" width="270" height="100" fill="#888" />
    <polygon points="0,17 3,17 9,17 11,16 14,15 17,13 20,13 22,13 25,12 28,12 31,12 33,12 36,12 39,6 44,7 47,9 50,9 53,9 56,9 58,9 61,9 64,9 67,9 69,9 72,9 75,8 78,8 80,8 83,8 86,8 89,8 91,8 94,8 99,11 102,15 110,8 113,9 115,8 118,8 121,8 124,8 126,5 132,5 135,6 137,6 146,6 151,6 154,6 157,6 159,6 165,6 176,6 179,6 190,6 192,6 195,6 203,6 206,5 209,5 225,6 228,6 231,6 234,6 236,6 239,6 242,5 245,6 253,5 261,6 267,6 270,6 270,100 0,100" fill="#ff3e00" />
    <polygon points="0,17 3,17 9,17 11,16 14,15 17,13 20,13 22,13 25,12 28,12 31,12 33,12 36,12 39,6 44,7 47,9 50,9 53,9 56,9 58,9 61,9 64,9 67,9 69,9 72,9 75,8 78,8 80,8 83,8 86,8 89,8 91,8 94,8 99,11 102,15 110,8 113,9 115,8 118,8 121,8 124,8 126,8 132,10 135,11 137,11 146,11 151,12 154,10 157,10 159,10 165,10 176,10 179,10 190,10 192,9 195,9 203,9 206,9 209,9 225,9 228,10 231,9 234,10 236,10 239,11 242,10 245,11 253,11 261,12 267,11 270,11 270,100 0,100" fill="#3178c6" />
    <polygon points="0,21 3,21 9,20 11,19 14,18 17,16 20,16 22,16 25,15 28,14 31,15 33,15 36,15 39,9 44,11 47,14 50,14 53,15 56,15 58,15 61,15 64,15 67,15 69,15 72,15 75,14 78,13 80,14 83,14 86,15 89,13 91,14 94,15 99,17 102,20 110,16 113,18 115,17 118,18 121,19 124,19 126,20 132,16 135,18 137,18 146,18 151,18 154,15 157,15 159,15 165,15 176,15 179,14 190,14 192,14 195,14 203,14 206,13 209,13 225,13 228,14 231,15 234,15 236,16 239,16 242,15 245,16 253,16 261,17 267,17 270,17 270,100 0,100" fill="#239dad" />
    <polygon points="0,21 3,21 9,20 11,19 14,18 17,16 20,16 22,16 25,15 28,14 31,15 33,15 36,15 39,9 44,11 47,14 50,14 53,15 56,15 58,15 61,15 64,15 67,15 69,15 72,15 75,14 78,13 80,14 83,14 86,15 89,13 91,14 94,15 99,17 102,20 110,16 113,18 115,17 118,18 121,19 124,19 126,20 132,16 135,18 137,18 146,18 151,18 154,15 157,15 159,15 165,15 176,15 179,14 190,14 192,14 195,14 203,14 206,13 209,13 225,13 228,14 231,28 234,28 236,29 239,29 242,28 245,29 253,29 261,31 267,31 270,31 270,100 0,100" fill="#3572A5" />
    <polygon points="0,40 3,40 9,40 11,38 14,35 17,33 20,33 22,33 25,32 28,32 31,32 33,32 36,32 39,29 44,31 47,33 50,33 53,33 56,33 58,33 61,33 64,33 67,34 69,34 72,34 75,34 78,34 80,35 83,34 86,35 89,34 91,35 94,35 99,38 102,40 110,38 113,39 115,39 118,39 121,39 124,40 126,40 132,37 135,37 137,38 146,37 151,38 154,35 157,35 159,35 165,34 176,34 179,34 190,34 192,33 195,32 203,32 206,31 209,31 225,31 228,33 231,46 234,46 236,46 239,46 242,46 245,46 253,46 261,51 267,50 270,50 270,100 0,100" fill="#dea584" />
    <polygon points="0,61 3,61 9,60 11,57 14,53 17,49 20,49 22,49 25,49 28,48 31,48 33,49 36,50 39,48 44,48 47,50 50,51 53,53 56,53 58,54 61,54 64,54 67,55 69,55 72,55 75,56 78,55 80,57 83,57 86,57 89,57 91,57 94,57 99,55 102,56 110,54 113,55 115,55 118,55 121,55 124,56 126,56 132,57 135,58 137,58 146,58 151,58 154,57 157,57 159,58 165,58 176,58 179,58 190,59 192,60 195,61 203,61 206,62 209,62 225,62 228,60 231,73 234,74 236,74 239,74 242,74 245,75 253,75 261,72 267,72 270,72 270,100 0,100" fill="#3D6117" />
  </g>
</svg>
