<svg width="300" height="160" viewBox="0 0 300 160" fill="none" role="img" xmlns="http://www.w3.org/2000/svg">
  <style>
    .header {font: 600 18px 'Segoe UI', Ubuntu, Sans-Serif; fill: #2f80ed; }
    .lang-name {font: 400 11px 'Segoe UI', Ubuntu, Sans-Serif; fill: #888; }
  </style>
  <rect x="0.5" y="0.5" rx="4.5" width="299" height="159" stroke="#888" stroke-opacity="1" fill="none" />
  <g transform="translate(15,25)"><text x="0" y="0" class="header">Language History</text></g>
  <g transform="translate(15,45)">
    <rect x="0" y="0" width="270" height="100" fill="#888" />
    <polygon points="0,14 6,14 15,14 20,13 25,12 30,10 35,10 39,11 44,9 49,9 54,9 59,9 63,9 68,4 78,5 83,5 87,4 93,4 98,4 103,4 107,5 112,4 117,4 122,4 127,4 131,4 136,4 141,3 146,3 151,3 155,4 160,4 164,4 173,7 178,10 193,4 197,5 202,4 207,4 212,4 217,4 221,2 231,3 236,3 241,3 255,3 265,4 270,3 270,100 0,100" fill="#ff5a03" />
    <polygon points="0,17 6,17 15,17 20,16 25,15 30,13 35,13 39,13 44,12 49,12 54,12 59,12 63,12 68,6 78,7 83,9 87,9 93,9 98,9 103,9 107,9 112,9 117,9 122,9 127,9 131,8 136,8 141,8 146,8 151,8 155,8 160,8 164,8 173,11 178,15 193,8 197,9 202,8 207,8 212,8 217,8 221,5 231,5 236,6 241,6 255,6 265,6 270,6 270,100 0,100" fill="#ff3e00" />
    <polygon points="0,17 6,17 15,17 20,16 25,15 30,13 35,13 39,13 44,12 49,12 54,12 59,12 63,12 68,6 78,7 83,9 87,9 93,9 98,9 103,9 107,9 112,9 117,9 122,9 127,9 131,8 136,8 141,8 146,8 151,8 155,8 160,8 164,8 173,11 178,15 193,8 197,9 202,8 207,8 212,8 217,8 221,8 231,10 236,11 241,11 255,11 265,12 270,10 270,100 0,100" fill="#3178c6" />
    <polygon points="0,21 6,21 15,20 20,19 25,18 30,16 35,16 39,16 44,15 49,14 54,15 59,15 63,15 68,9 78,11 83,14 87,14 93,15 98,15 103,15 107,15 112,15 117,15 122,15 127,15 131,14 136,13 141,14 146,14 151,15 155,13 160,14 164,15 173,17 178,20 193,16 197,18 202,17 207,18 212,19 217,19 221,20 231,16 236,18 241,18 255,18 265,18 270,15 270,100 0,100" fill="#3572A5" />
    <polygon points="0,40 6,40 15,40 20,38 25,35 30,33 35,33 39,33 44,32 49,32 54,32 59,32 63,32 68,29 78,31 83,33 87,33 93,33 98,33 103,33 107,33 112,33 117,34 122,34 127,34 131,34 136,34 141,35 146,34 151,35 155,34 160,35 164,35 173,38 178,40 193,38 197,39 202,39 207,39 212,39 217,40 221,40 231,37 236,37 241,38 255,37 265,38 270,35 270,100 0,100" fill="#dea584" />
    <polygon points="0,61 6,61 15,60 20,57 25,53 30,49 35,49 39,49 44,49 49,48 54,48 59,49 63,50 68,48 78,48 83,50 87,51 93,53 98,53 103,54 107,54 112,54 117,55 122,55 127,55 131,56 136,55 141,57 146,57 151,57 155,57 160,57 164,57 173,55 178,56 193,54 197,55 202,55 207,55 212,55 217,56 221,56 231,57 236,58 241,58 255,58 265,58 270,57 270,100 0,100" fill="#3D6117" />
  </g>
</svg>
