<svg width="300" height="160" viewBox="0 0 300 160" fill="none" role="img" xmlns="http://www.w3.org/2000/svg">
  <style>
    .header {font: 600 18px 'Segoe UI', Ubuntu, Sans-Serif; fill: #2f80ed; }
    .lang-name {font: 400 11px 'Segoe UI', Ubuntu, Sans-Serif; fill: #888; }
  </style>
  <rect x="0.5" y="0.5" rx="4.5" width="299" height="159" stroke="#888" stroke-opacity="1" fill="none" />
  <g transform="translate(15,25)"><text x="0" y="0" class="header">Language History</text></g>
  <g transform="translate(15,45)">
    <rect x="0" y="0" width="270" height="100" fill="#888" />
    <polygon points="0,14 4,14 11,14 15,13 18,12 22,10 26,10 29,11 33,9 36,9 40,9 44,9 47,9 51,4 58,5 62,5 65,4 69,4 73,4 76,4 80,5 84,4 87,4 91,4 94,4 98,4 102,4 105,3 109,3 112,3 116,4 119,4 123,4 129,7 133,10 144,4 147,5 151,4 155,4 158,4 162,4 165,2 172,3 176,3 180,3 190,3 198,4 201,3 205,4 208,4 216,3 230,3 234,3 248,3 252,3 255,3 266,3 270,3 270,100 0,100" fill="#ff5a03" />
    <polygon points="0,17 4,17 11,17 15,16 18,15 22,13 26,13 29,13 33,12 36,12 40,12 44,12 47,12 51,6 58,7 62,9 65,9 69,9 73,9 76,9 80,9 84,9 87,9 91,9 94,9 98,8 102,8 105,8 109,8 112,8 116,8 119,8 123,8 129,11 133,15 144,8 147,9 151,8 155,8 158,8 162,8 165,5 172,5 176,6 180,6 190,6 198,6 201,6 205,6 208,6 216,6 230,6 234,6 248,6 252,6 255,6 266,6 270,5 270,100 0,100" fill="#ff3e00" />
    <polygon points="0,17 4,17 11,17 15,16 18,15 22,13 26,13 29,13 33,12 36,12 40,12 44,12 47,12 51,6 58,7 62,9 65,9 69,9 73,9 76,9 80,9 84,9 87,9 91,9 94,9 98,8 102,8 105,8 109,8 112,8 116,8 119,8 123,8 129,11 133,15 144,8 147,9 151,8 155,8 158,8 162,8 165,8 172,10 176,11 180,11 190,11 198,12 201,10 205,10 208,10 216,10 230,10 234,10 248,10 252,9 255,9 266,9 270,9 270,100 0,100" fill="#3178c6" />
    <polygon points="0,21 4,21 11,20 15,19 18,18 22,16 26,16 29,16 33,15 36,14 40,15 44,15 47,15 51,9 58,11 62,14 65,14 69,15 73,15 76,15 80,15 84,15 87,15 91,15 94,15 98,14 102,13 105,14 109,14 112,15 116,13 119,14 123,15 129,17 133,20 144,16 147,18 151,17 155,18 158,19 162,19 165,20 172,16 176,18 180,18 190,18 198,18 201,15 205,15 208,15 216,15 230,15 234,14 248,14 252,14 255,14 266,14 270,13 270,100 0,100" fill="#3572A5" />
    <polygon points="0,40 4,40 11,40 15,38 18,35 22,33 26,33 29,33 33,32 36,32 40,32 44,32 47,32 51,29 58,31 62,33 65,33 69,33 73,33 76,33 80,33 84,33 87,34 91,34 94,34 98,34 102,34 105,35 109,34 112,35 116,34 119,35 123,35 129,38 133,40 144,38 147,39 151,39 155,39 158,39 162,40 165,40 172,37 176,37 180,38 190,37 198,38 201,35 205,35 208,35 216,34 230,34 234,34 248,34 252,33 255,32 266,32 270,31 270,100 0,100" fill="#dea584" />
    <polygon points="0,61 4,61 11,60 15,57 18,53 22,49 26,49 29,49 33,49 36,48 40,48 44,49 47,50 51,48 58,48 62,50 65,51 69,53 73,53 76,54 80,54 84,54 87,55 91,55 94,55 98,56 102,55 105,57 109,57 112,57 116,57 119,57 123,57 129,55 133,56 144,54 147,55 151,55 155,55 158,55 162,56 165,56 172,57 176,58 180,58 190,58 198,58 201,57 205,57 208,58 216,58 230,58 234,58 248,59 252,60 255,61 266,61 270,62 270,100 0,100" fill="#3D6117" />
  </g>
</svg>
