<svg width="300" height="160" viewBox="0 0 300 160" fill="none" role="img" xmlns="http://www.w3.org/2000/svg">
  <style>
    .header {font: 600 18px 'Segoe UI', Ubuntu, Sans-Serif; fill: #2f80ed; }
    .lang-name {font: 400 11px 'Segoe UI', Ubuntu, Sans-Serif; fill: #888; }
  </style>
  <rect x="0.5" y="0.5" rx="4.5" width="299" height="159" stroke="#888" stroke-opacity="1" fill="none" />
  <g transform="translate(15,25)"><text x="0" y="0" class="header">Language History</text></g>
  <g transform="translate(15,45)">
    <rect x="0" y="0" width="270" height="100" fill="#888" />
    <polygon points="0,12 20,12 22,12 51,12 66,11 82,11 98,9 113,9 129,9 145,7 160,7 176,7 191,7 207,7 223,2 254,3 270,3 270,100 0,100" fill="#fcb32c" />
    <polygon points="0,14 20,14 22,14 51,14 66,13 82,12 98,10 113,10 129,11 145,9 160,9 176,9 191,9 207,9 223,4 254,5 270,5 270,100 0,100" fill="#ff5a03" />
    <polygon points="0,17 20,17 22,17 51,17 66,16 82,15 98,13 113,13 129,13 145,12 160,12 176,12 191,12 207,12 223,6 254,7 270,9 270,100 0,100" fill="#3178c6" />
    <polygon points="0,21 20,21 22,21 51,20 66,19 82,18 98,16 113,16 129,16 145,15 160,14 176,15 191,15 207,15 223,9 254,11 270,14 270,100 0,100" fill="#dea584" />
    <polygon points="0,41 20,41 22,41 51,40 66,38 82,35 98,32 113,32 129,32 145,32 160,30 176,30 191,31 207,32 223,28 254,29 270,31 270,100 0,100" fill="#3572A5" />
    <polygon points="0,61 20,61 22,60 51,60 66,57 82,53 98,49 113,49 129,50 145,49 160,48 176,48 191,49 207,50 223,48 254,48 270,51 270,100 0,100" fill="#3D6117" />
  </g>
</svg>
