<svg width="300" height="160" viewBox="0 0 300 160" fill="none" role="img" xmlns="http://www.w3.org/2000/svg">
  <style>
    .header {font: 600 18px 'Segoe UI', Ubuntu, Sans-Serif; fill: #2f80ed; }
    .lang-name {font: 400 11px 'Segoe UI', Ubuntu, Sans-Serif; fill: #888; }
  </style>
  <rect x="0.5" y="0.5" rx="4.5" width="299" height="159" stroke="#888" stroke-opacity="1" fill="none" />
  <g transform="translate(15,25)"><text x="0" y="0" class="header">Language History</text></g>
  <g transform="translate(15,45)">
    <rect x="0" y="0" width="270" height="100" fill="#888" />
    <polygon points="0,17 4,17 10,17 13,16 16,15 20,13 23,13 26,13 29,12 33,12 36,12 39,12 42,12 45,6 52,7 55,9 58,9 62,9 65,9 68,9 71,9 75,9 78,9 81,9 84,9 88,8 91,8 94,8 97,8 100,8 104,8 106,8 110,8 115,11 119,15 128,8 132,9 135,8 138,8 141,8 144,8 148,5 154,5 157,6 160,6 170,6 176,6 180,6 183,6 186,6 192,6 205,6 209,6 221,6 225,6 228,6 237,6 241,5 244,5 263,6 266,6 270,6 270,100 0,100" fill="#ff3e00" />
    <polygon points="0,17 4,17 10,17 13,16 16,15 20,13 23,13 26,13 29,12 33,12 36,12 39,12 42,12 45,6 52,7 55,9 58,9 62,9 65,9 68,9 71,9 75,9 78,9 81,9 84,9 88,8 91,8 94,8 97,8 100,8 104,8 106,8 110,8 115,11 119,15 128,8 132,9 135,8 138,8 141,8 144,8 148,8 154,10 157,11 160,11 170,11 176,12 180,10 183,10 186,10 192,10 205,10 209,10 221,10 225,9 228,9 237,9 241,9 244,9 263,9 266,10 270,9 270,100 0,100" fill="#3178c6" />
    <polygon points="0,21 4,21 10,20 13,19 16,18 20,16 23,16 26,16 29,15 33,14 36,15 39,15 42,15 45,9 52,11 55,14 58,14 62,15 65,15 68,15 71,15 75,15 78,15 81,15 84,15 88,14 91,13 94,14 97,14 100,15 104,13 106,14 110,15 115,17 119,20 128,16 132,18 135,17 138,18 141,19 144,19 148,20 154,16 157,18 160,18 170,18 176,18 180,15 183,15 186,15 192,15 205,15 209,14 221,14 225,14 228,14 237,14 241,13 244,13 263,13 266,14 270,15 270,100 0,100" fill="#239dad" />
    <polygon points="0,21 4,21 10,20 13,19 16,18 20,16 23,16 26,16 29,15 33,14 36,15 39,15 42,15 45,9 52,11 55,14 58,14 62,15 65,15 68,15 71,15 75,15 78,15 81,15 84,15 88,14 91,13 94,14 97,14 100,15 104,13 106,14 110,15 115,17 119,20 128,16 132,18 135,17 138,18 141,19 144,19 148,20 154,16 157,18 160,18 170,18 176,18 180,15 183,15 186,15 192,15 205,15 209,14 221,14 225,14 228,14 237,14 241,13 244,13 263,13 266,14 270,28 270,100 0,100" fill="#3572A5" />
    <polygon points="0,40 4,40 10,40 13,38 16,35 20,33 23,33 26,33 29,32 33,32 36,32 39,32 42,32 45,29 52,31 55,33 58,33 62,33 65,33 68,33 71,33 75,33 78,34 81,34 84,34 88,34 91,34 94,35 97,34 100,35 104,34 106,35 110,35 115,38 119,40 128,38 132,39 135,39 138,39 141,39 144,40 148,40 154,37 157,37 160,38 170,37 176,38 180,35 183,35 186,35 192,34 205,34 209,34 221,34 225,33 228,32 237,32 241,31 244,31 263,31 266,33 270,46 270,100 0,100" fill="#3D6117" />
    <polygon points="0,79 4,79 10,80 13,81 16,82 20,83 23,83 26,83 29,83 33,84 36,84 39,83 42,82 45,81 52,82 55,82 58,81 62,79 65,79 68,78 71,78 75,78 78,79 81,78 84,79 88,78 91,78 94,77 97,77 100,78 104,77 106,78 110,78 115,82 119,84 128,83 132,83 135,83 138,83 141,84 144,84 148,84 154,80 157,79 160,79 170,79 176,79 180,78 183,77 186,76 192,76 205,76 209,75 221,74 225,72 228,71 237,70 241,69 244,68 263,68 266,72 270,72 270,100 0,100" fill="#dea584" />
  </g>
</svg>
