<svg width="300" height="160" viewBox="0 0 300 160" fill="none" role="img" xmlns="http://www.w3.org/2000/svg">
  <style>
    .header {font: 600 18px 'Segoe UI', Ubuntu, Sans-Serif; fill: #2f80ed; }
    .lang-name {font: 400 11px 'Segoe UI', Ubuntu, Sans-Serif; fill: #888; }
  </style>
  <rect x="0.5" y="0.5" rx="4.5" width="299" height="159" stroke="#888" stroke-opacity="1" fill="none" />
  <g transform="translate(15,25)"><text x="0" y="0" class="header">Language History</text></g>
  <g transform="translate(15,45)">
    <rect x="0" y="0" width="270" height="100" fill="#888" />
    <polygon points="0,17 4,17 10,17 13,16 16,15 19,13 22,13 25,13 29,12 32,12 35,12 38,12 41,12 44,6 51,7 54,9 57,9 60,9 64,9 67,9 70,9 73,9 76,9 79,9 82,9 85,8 89,8 92,8 95,8 98,8 101,8 104,8 107,8 113,11 116,15 125,8 128,9 132,8 135,8 138,8 141,8 144,5 150,5 154,6 157,6 166,6 172,6 175,6 179,6 182,6 188,6 201,6 204,6 216,6 219,6 222,6 232,6 235,5 238,5 257,6 260,6 263,6 266,6 270,6 270,100 0,100" fill="#ff3e00" />
    <polygon points="0,17 4,17 10,17 13,16 16,15 19,13 22,13 25,13 29,12 32,12 35,12 38,12 41,12 44,6 51,7 54,9 57,9 60,9 64,9 67,9 70,9 73,9 76,9 79,9 82,9 85,8 89,8 92,8 95,8 98,8 101,8 104,8 107,8 113,11 116,15 125,8 128,9 132,8 135,8 138,8 141,8 144,8 150,10 154,11 157,11 166,11 172,12 175,10 179,10 182,10 188,10 201,10 204,10 216,10 219,9 222,9 232,9 235,9 238,9 257,9 260,10 263,9 266,10 270,10 270,100 0,100" fill="#3178c6" />
    <polygon points="0,21 4,21 10,20 13,19 16,18 19,16 22,16 25,16 29,15 32,14 35,15 38,15 41,15 44,9 51,11 54,14 57,14 60,15 64,15 67,15 70,15 73,15 76,15 79,15 82,15 85,14 89,13 92,14 95,14 98,15 101,13 104,14 107,15 113,17 116,20 125,16 128,18 132,17 135,18 138,19 141,19 144,20 150,16 154,18 157,18 166,18 172,18 175,15 179,15 182,15 188,15 201,15 204,14 216,14 219,14 222,14 232,14 235,13 238,13 257,13 260,14 263,15 266,15 270,16 270,100 0,100" fill="#239dad" />
    <polygon points="0,21 4,21 10,20 13,19 16,18 19,16 22,16 25,16 29,15 32,14 35,15 38,15 41,15 44,9 51,11 54,14 57,14 60,15 64,15 67,15 70,15 73,15 76,15 79,15 82,15 85,14 89,13 92,14 95,14 98,15 101,13 104,14 107,15 113,17 116,20 125,16 128,18 132,17 135,18 138,19 141,19 144,20 150,16 154,18 157,18 166,18 172,18 175,15 179,15 182,15 188,15 201,15 204,14 216,14 219,14 222,14 232,14 235,13 238,13 257,13 260,14 263,28 266,28 270,29 270,100 0,100" fill="#3572A5" />
    <polygon points="0,40 4,40 10,40 13,38 16,35 19,33 22,33 25,33 29,32 32,32 35,32 38,32 41,32 44,29 51,31 54,33 57,33 60,33 64,33 67,33 70,33 73,33 76,34 79,34 82,34 85,34 89,34 92,35 95,34 98,35 101,34 104,35 107,35 113,38 116,40 125,38 128,39 132,39 135,39 138,39 141,40 144,40 150,37 154,37 157,38 166,37 172,38 175,35 179,35 182,35 188,34 201,34 204,34 216,34 219,33 222,32 232,32 235,31 238,31 257,31 260,33 263,46 266,46 270,46 270,100 0,100" fill="#3D6117" />
    <polygon points="0,79 4,79 10,80 13,81 16,82 19,83 22,83 25,83 29,83 32,84 35,84 38,83 41,82 44,81 51,82 54,82 57,81 60,79 64,79 67,78 70,78 73,78 76,79 79,78 82,79 85,78 89,78 92,77 95,77 98,78 101,77 104,78 107,78 113,82 116,84 125,83 128,83 132,83 135,83 138,84 141,84 144,84 150,80 154,79 157,79 166,79 172,79 175,78 179,77 182,76 188,76 201,76 204,75 216,74 219,72 222,71 232,70 235,69 238,68 257,68 260,72 263,72 266,71 270,72 270,100 0,100" fill="#dea584" />
  </g>
</svg>
