<svg width="300" height="160" viewBox="0 0 300 160" fill="none" role="img" xmlns="http://www.w3.org/2000/svg">
  <style>
    .header {font: 600 18px 'Segoe UI', Ubuntu, Sans-Serif; fill: #2f80ed; }
    .lang-name {font: 400 11px 'Segoe UI', Ubuntu, Sans-Serif; fill: #888; }
  </style>
  <rect x="0.5" y="0.5" rx="4.5" width="299" height="159" stroke="#888" stroke-opacity="1" fill="none" />
  <g transform="translate(15,25)"><text x="0" y="0" class="header">Language History</text></g>
  <g transform="translate(15,45)">
    <rect x="0" y="0" width="270" height="100" fill="#888" />
    <polygon points="0,12 15,12 39,12 51,11 63,11 75,9 87,9 99,9 111,7 123,7 135,7 147,7 159,7 171,2 196,3 208,3 220,3 233,3 245,3 257,3 270,3 270,100 0,100" fill="#fcb32c" />
    <polygon points="0,14 15,14 39,14 51,13 63,12 75,10 87,10 99,11 111,9 123,9 135,9 147,9 159,9 171,4 196,5 208,5 220,4 233,4 245,4 257,4 270,5 270,100 0,100" fill="#ff5a03" />
    <polygon points="0,17 15,17 39,17 51,16 63,15 75,13 87,13 99,13 111,12 123,12 135,12 147,12 159,12 171,6 196,7 208,9 220,9 233,9 245,9 257,9 270,9 270,100 0,100" fill="#3178c6" />
    <polygon points="0,21 15,21 39,20 51,19 63,18 75,16 87,16 99,16 111,15 123,14 135,15 147,15 159,15 171,9 196,11 208,14 220,14 233,15 245,15 257,15 270,15 270,100 0,100" fill="#3572A5" />
    <polygon points="0,40 15,40 39,40 51,38 63,35 75,33 87,33 99,33 111,32 123,32 135,32 147,32 159,32 171,29 196,31 208,33 220,33 233,33 245,33 257,33 270,33 270,100 0,100" fill="#dea584" />
    <polygon points="0,61 15,61 39,60 51,57 63,53 75,49 87,49 99,49 111,49 123,48 135,48 147,49 159,50 171,48 196,48 208,50 220,51 233,53 245,53 257,54 270,54 270,100 0,100" fill="#3D6117" />
  </g>
</svg>
