<svg width="300" height="160" viewBox="0 0 300 160" fill="none" role="img" xmlns="http://www.w3.org/2000/svg">
  <style>
    .header {font: 600 18px 'Segoe UI', Ubuntu, Sans-Serif; fill: #2f80ed; }
    .lang-name {font: 400 11px 'Segoe UI', Ubuntu, Sans-Serif; fill: #888; }
  </style>
  <rect x="0.5" y="0.5" rx="4.5" width="299" height="159" stroke="#888" stroke-opacity="1" fill="none" />
  <g transform="translate(15,25)"><text x="0" y="0" class="header">Language History</text></g>
  <g transform="translate(15,45)">
    <rect x="0" y="0" width="270" height="100" fill="#888" />
    <polygon points="0,7 37,6 41,6 95,6 124,6 153,6 182,5 211,5 240,5 270,4 270,100 0,100" fill="#3178c6" />
    <polygon points="0,10 37,10 41,10 95,10 124,10 153,9 182,8 211,8 240,8 270,7 270,100 0,100" fill="#ff5a03" />
    <polygon points="0,13 37,13 41,13 95,13 124,12 153,11 182,10 211,11 240,10 270,10 270,100 0,100" fill="#f1e05a" />
    <polygon points="0,21 37,21 41,21 95,20 124,19 153,18 182,16 211,16 240,16 270,15 270,100 0,100" fill="#dea584" />
    <polygon points="0,41 37,41 41,41 95,40 124,38 153,35 182,32 211,32 240,32 270,32 270,100 0,100" fill="#3572A5" />
    <polygon points="0,61 37,61 41,60 95,60 124,57 153,53 182,49 211,49 240,50 270,49 270,100 0,100" fill="#3D6117" />
  </g>
</svg>
