<svg width="300" height="160" viewBox="0 0 300 160" fill="none" role="img" xmlns="http://www.w3.org/2000/svg">
  <style>
    .header {font: 600 18px 'Segoe UI', Ubuntu, Sans-Serif; fill: #2f80ed; }
    .lang-name {font: 400 11px 'Segoe UI', Ubuntu, Sans-Serif; fill: #888; }
  </style>
  <rect x="0.5" y="0.5" rx="4.5" width="299" height="159" stroke="#888" stroke-opacity="1" fill="none" />
  <g transform="translate(15,25)"><text x="0" y="0" class="header">Language History</text></g>
  <g transform="translate(15,45)">
    <rect x="0" y="0" width="270" height="100" fill="#888" />
    <polygon points="0,17 3,17 9,17 12,16 16,15 19,13 22,13 25,13 28,12 31,12 34,12 37,12 40,12 43,6 49,7 52,9 55,9 58,9 61,9 64,9 67,9 70,9 73,9 77,9 80,9 83,8 86,8 89,8 92,8 95,8 98,8 100,8 103,8 109,11 112,15 121,8 124,9 127,8 130,8 133,8 136,8 139,5 145,5 148,6 151,6 160,6 167,6 170,6 173,6 176,6 182,6 194,6 197,6 209,6 212,6 215,6 224,6 227,5 230,5 248,6 251,6 254,6 257,6 260,6 263,6 266,5 270,6 270,100 0,100" fill="#3178c6" />
    <polygon points="0,21 3,21 9,20 12,19 16,18 19,16 22,16 25,16 28,15 31,14 34,15 37,15 40,15 43,9 49,11 52,14 55,14 58,15 61,15 64,15 67,15 70,15 73,15 77,15 80,15 83,14 86,13 89,14 92,14 95,15 98,13 100,14 103,15 109,17 112,20 121,16 124,18 127,17 130,18 133,19 136,19 139,16 145,12 148,13 151,13 160,12 167,12 170,11 173,11 176,11 182,11 194,11 197,10 209,10 212,10 215,10 224,10 227,10 230,10 248,10 251,11 254,11 257,11 260,11 263,10 266,10 270,11 270,100 0,100" fill="#ff3e00" />
    <polygon points="0,21 3,21 9,20 12,19 16,18 19,16 22,16 25,16 28,15 31,14 34,15 37,15 40,15 43,9 49,11 52,14 55,14 58,15 61,15 64,15 67,15 70,15 73,15 77,15 80,15 83,14 86,13 89,14 92,14 95,15 98,13 100,14 103,15 109,17 112,20 121,16 124,18 127,17 130,18 133,19 136,19 139,20 145,16 148,18 151,18 160,18 167,18 170,15 173,15 176,15 182,15 194,15 197,14 209,14 212,14 215,14 224,14 227,13 230,13 248,13 251,14 254,15 257,15 260,16 263,16 266,15 270,16 270,100 0,100" fill="#239dad" />
    <polygon points="0,21 3,21 9,20 12,19 16,18 19,16 22,16 25,16 28,15 31,14 34,15 37,15 40,15 43,9 49,11 52,14 55,14 58,15 61,15 64,15 67,15 70,15 73,15 77,15 80,15 83,14 86,13 89,14 92,14 95,15 98,13 100,14 103,15 109,17 112,20 121,16 124,18 127,17 130,18 133,19 136,19 139,20 145,16 148,18 151,18 160,18 167,18 170,15 173,15 176,15 182,15 194,15 197,14 209,14 212,14 215,14 224,14 227,13 230,13 248,13 251,14 254,28 257,28 260,29 263,29 266,28 270,29 270,100 0,100" fill="#3572A5" />
    <polygon points="0,40 3,40 9,40 12,38 16,35 19,33 22,33 25,33 28,32 31,32 34,32 37,32 40,32 43,29 49,31 52,33 55,33 58,33 61,33 64,33 67,33 70,33 73,34 77,34 80,34 83,34 86,34 89,35 92,34 95,35 98,34 100,35 103,35 109,38 112,40 121,38 124,39 127,39 130,39 133,39 136,40 139,40 145,37 148,37 151,38 160,37 167,38 170,35 173,35 176,35 182,34 194,34 197,34 209,34 212,33 215,32 224,32 227,31 230,31 248,31 251,33 254,46 257,46 260,46 263,46 266,46 270,46 270,100 0,100" fill="#3D6117" />
    <polygon points="0,79 3,79 9,80 12,81 16,82 19,83 22,83 25,83 28,83 31,84 34,84 37,83 40,82 43,81 49,82 52,82 55,81 58,79 61,79 64,78 67,78 70,78 73,79 77,78 80,79 83,78 86,78 89,77 92,77 95,78 98,77 100,78 103,78 109,82 112,84 121,83 124,83 127,83 130,83 133,84 136,84 139,84 145,80 148,79 151,79 160,79 167,79 170,78 173,77 176,76 182,76 194,76 197,75 209,74 212,72 215,71 224,70 227,69 230,68 248,68 251,72 254,72 257,71 260,72 263,71 266,71 270,71 270,100 0,100" fill="#dea584" />
  </g>
</svg>
