<svg width="300" height="160" viewBox="0 0 300 160" fill="none" role="img" xmlns="http://www.w3.org/2000/svg">
  <style>
    .header {font: 600 18px 'Segoe UI', Ubuntu, Sans-Serif; fill: #2f80ed; }
    .lang-name {font: 400 11px 'Segoe UI', Ubuntu, Sans-Serif; fill: #888; }
  </style>
  <rect x="0.5" y="0.5" rx="4.5" width="299" height="159" stroke="#888" stroke-opacity="1" fill="none" />
  <g transform="translate(15,25)"><text x="0" y="0" class="header">Language History</text></g>
  <g transform="translate(15,45)">
    <rect x="0" y="0" width="270" height="100" fill="#888" />
    <polygon points="0,7 30,6 34,6 78,6 102,6 126,6 150,5 174,5 198,5 222,4 246,4 270,4 270,100 0,100" fill="#3178c6" />
    <polygon points="0,10 30,10 34,10 78,10 102,10 126,9 150,8 174,8 198,8 222,7 246,5 270,6 270,100 0,100" fill="#ff5a03" />
    <polygon points="0,13 30,13 34,13 78,13 102,12 126,11 150,10 174,11 198,10 222,10 246,9 270,9 270,100 0,100" fill="#f1e05a" />
    <polygon points="0,21 30,21 34,21 78,20 102,19 126,18 150,16 174,16 198,16 222,15 246,14 270,15 270,100 0,100" fill="#dea584" />
    <polygon points="0,41 30,41 34,41 78,40 102,38 126,35 150,32 174,32 198,32 222,32 246,30 270,30 270,100 0,100" fill="#3572A5" />
    <polygon points="0,61 30,61 34,60 78,60 102,57 126,53 150,49 174,49 198,50 222,49 246,48 270,48 270,100 0,100" fill="#3D6117" />
  </g>
</svg>
