<svg width="300" height="160" viewBox="0 0 300 160" fill="none" role="img" xmlns="http://www.w3.org/2000/svg">
  <style>
    .header {font: 600 18px 'Segoe UI', Ubuntu, Sans-Serif; fill: #2f80ed; }
    .lang-name {font: 400 11px 'Segoe UI', Ubuntu, Sans-Serif; fill: #888; }
  </style>
  <rect x="0.5" y="0.5" rx="4.5" width="299" height="159" stroke="#888" stroke-opacity="1" fill="none" />
  <g transform="translate(15,25)"><text x="0" y="0" class="header">Language History</text></g>
  <g transform="translate(15,45)">
    <rect x="0" y="0" width="270" height="100" fill="#888" />
    <polygon points="0,14 4,14 12,14 16,13 20,12 24,10 28,10 31,11 35,9 39,9 43,9 47,9 51,9 54,4 62,5 66,5 70,4 74,4 78,4 82,4 86,5 90,4 94,4 97,4 101,4 105,4 109,4 113,3 117,3 120,3 124,4 128,4 131,4 139,7 142,10 154,4 158,5 162,4 166,4 169,4 173,4 177,2 185,3 189,3 193,3 204,3 212,4 216,3 219,4 223,4 231,3 246,3 250,3 266,3 270,3 270,100 0,100" fill="#ff5a03" />
    <polygon points="0,17 4,17 12,17 16,16 20,15 24,13 28,13 31,13 35,12 39,12 43,12 47,12 51,12 54,6 62,7 66,9 70,9 74,9 78,9 82,9 86,9 90,9 94,9 97,9 101,9 105,8 109,8 113,8 117,8 120,8 124,8 128,8 131,8 139,11 142,15 154,8 158,9 162,8 166,8 169,8 173,8 177,5 185,5 189,6 193,6 204,6 212,6 216,6 219,6 223,6 231,6 246,6 250,6 266,6 270,6 270,100 0,100" fill="#ff3e00" />
    <polygon points="0,17 4,17 12,17 16,16 20,15 24,13 28,13 31,13 35,12 39,12 43,12 47,12 51,12 54,6 62,7 66,9 70,9 74,9 78,9 82,9 86,9 90,9 94,9 97,9 101,9 105,8 109,8 113,8 117,8 120,8 124,8 128,8 131,8 139,11 142,15 154,8 158,9 162,8 166,8 169,8 173,8 177,8 185,10 189,11 193,11 204,11 212,12 216,10 219,10 223,10 231,10 246,10 250,10 266,10 270,9 270,100 0,100" fill="#3178c6" />
    <polygon points="0,21 4,21 12,20 16,19 20,18 24,16 28,16 31,16 35,15 39,14 43,15 47,15 51,15 54,9 62,11 66,14 70,14 74,15 78,15 82,15 86,15 90,15 94,15 97,15 101,15 105,14 109,13 113,14 117,14 120,15 124,13 128,14 131,15 139,17 142,20 154,16 158,18 162,17 166,18 169,19 173,19 177,20 185,16 189,18 193,18 204,18 212,18 216,15 219,15 223,15 231,15 246,15 250,14 266,14 270,14 270,100 0,100" fill="#3572A5" />
    <polygon points="0,40 4,40 12,40 16,38 20,35 24,33 28,33 31,33 35,32 39,32 43,32 47,32 51,32 54,29 62,31 66,33 70,33 74,33 78,33 82,33 86,33 90,33 94,34 97,34 101,34 105,34 109,34 113,35 117,34 120,35 124,34 128,35 131,35 139,38 142,40 154,38 158,39 162,39 166,39 169,39 173,40 177,40 185,37 189,37 193,38 204,37 212,38 216,35 219,35 223,35 231,34 246,34 250,34 266,34 270,33 270,100 0,100" fill="#dea584" />
    <polygon points="0,61 4,61 12,60 16,57 20,53 24,49 28,49 31,49 35,49 39,48 43,48 47,49 51,50 54,48 62,48 66,50 70,51 74,53 78,53 82,54 86,54 90,54 94,55 97,55 101,55 105,56 109,55 113,57 117,57 120,57 124,57 128,57 131,57 139,55 142,56 154,54 158,55 162,55 166,55 169,55 173,56 177,56 185,57 189,58 193,58 204,58 212,58 216,57 219,57 223,58 231,58 246,58 250,58 266,59 270,60 270,100 0,100" fill="#3D6117" />
  </g>
</svg>
