<svg width="300" height="160" viewBox="0 0 300 160" fill="none" role="img" xmlns="http://www.w3.org/2000/svg">
  <style>
    .header {font: 600 18px 'Segoe UI', Ubuntu, Sans-Serif; fill: #2f80ed; }
    .lang-name {font: 400 11px 'Segoe UI', Ubuntu, Sans-Serif; fill: #888; }
  </style>
  <rect x="0.5" y="0.5" rx="4.5" width="299" height="159" stroke="#888" stroke-opacity="1" fill="none" />
  <g transform="translate(15,25)"><text x="0" y="0" class="header">Language History</text></g>
  <g transform="translate(15,45)">
    <rect x="0" y="0" width="270" height="100" fill="#888" />
    <polygon points="0,14 6,14 16,14 21,13 26,12 31,10 37,10 42,11 47,9 52,9 57,9 62,9 67,9 72,4 82,5 87,5 92,4 98,4 103,4 108,4 113,5 119,4 124,4 129,4 134,4 139,4 144,4 149,3 154,3 159,3 164,4 169,4 174,4 183,7 188,10 203,4 209,5 214,4 219,4 224,4 229,4 234,2 244,3 249,3 254,3 270,3 270,100 0,100" fill="#ff5a03" />
    <polygon points="0,17 6,17 16,17 21,16 26,15 31,13 37,13 42,13 47,12 52,12 57,12 62,12 67,12 72,6 82,7 87,9 92,9 98,9 103,9 108,9 113,9 119,9 124,9 129,9 134,9 139,8 144,8 149,8 154,8 159,8 164,8 169,8 174,8 183,11 188,15 203,8 209,9 214,8 219,8 224,8 229,8 234,5 244,5 249,6 254,6 270,6 270,100 0,100" fill="#ff3e00" />
    <polygon points="0,17 6,17 16,17 21,16 26,15 31,13 37,13 42,13 47,12 52,12 57,12 62,12 67,12 72,6 82,7 87,9 92,9 98,9 103,9 108,9 113,9 119,9 124,9 129,9 134,9 139,8 144,8 149,8 154,8 159,8 164,8 169,8 174,8 183,11 188,15 203,8 209,9 214,8 219,8 224,8 229,8 234,8 244,10 249,11 254,11 270,11 270,100 0,100" fill="#3178c6" />
    <polygon points="0,21 6,21 16,20 21,19 26,18 31,16 37,16 42,16 47,15 52,14 57,15 62,15 67,15 72,9 82,11 87,14 92,14 98,15 103,15 108,15 113,15 119,15 124,15 129,15 134,15 139,14 144,13 149,14 154,14 159,15 164,13 169,14 174,15 183,17 188,20 203,16 209,18 214,17 219,18 224,19 229,19 234,20 244,16 249,18 254,18 270,18 270,100 0,100" fill="#3572A5" />
    <polygon points="0,40 6,40 16,40 21,38 26,35 31,33 37,33 42,33 47,32 52,32 57,32 62,32 67,32 72,29 82,31 87,33 92,33 98,33 103,33 108,33 113,33 119,33 124,34 129,34 134,34 139,34 144,34 149,35 154,34 159,35 164,34 169,35 174,35 183,38 188,40 203,38 209,39 214,39 219,39 224,39 229,40 234,40 244,37 249,37 254,38 270,37 270,100 0,100" fill="#dea584" />
    <polygon points="0,61 6,61 16,60 21,57 26,53 31,49 37,49 42,49 47,49 52,48 57,48 62,49 67,50 72,48 82,48 87,50 92,51 98,53 103,53 108,54 113,54 119,54 124,55 129,55 134,55 139,56 144,55 149,57 154,57 159,57 164,57 169,57 174,57 183,55 188,56 203,54 209,55 214,55 219,55 224,55 229,56 234,56 244,57 249,58 254,58 270,58 270,100 0,100" fill="#3D6117" />
  </g>
</svg>
