<svg width="300" height="160" viewBox="0 0 300 160" fill="none" role="img" xmlns="http://www.w3.org/2000/svg">
  <style>
    .header {font: 600 18px 'Segoe UI', Ubuntu, Sans-Serif; fill: #2f80ed; }
    .lang-name {font: 400 11px 'Segoe UI', Ubuntu, Sans-Serif; fill: #888; }
  </style>
  <rect x="0.5" y="0.5" rx="4.5" width="299" height="159" stroke="#888" stroke-opacity="1" fill="none" />
  <g transform="translate(15,25)"><text x="0" y="0" class="header">Language History</text></g>
  <g transform="translate(15,45)">
    <rect x="0" y="0" width="270" height="100" fill="#888" />
    <polygon points="0,17 3,17 8,17 11,16 14,15 16,13 19,13 22,13 25,12 27,12 30,12 33,12 35,12 38,6 43,7 46,9 49,9 52,9 55,9 57,9 60,9 63,9 65,9 68,9 71,9 73,8 76,8 79,8 82,8 84,8 87,8 89,8 92,8 97,11 100,15 108,8 110,9 113,8 116,8 119,8 121,8 124,5 129,5 132,6 135,6 143,6 148,6 151,6 154,6 156,6 162,6 172,6 175,6 186,6 189,6 191,6 199,6 202,5 205,5 221,6 224,6 226,6 229,6 232,6 234,6 237,5 240,6 248,5 256,6 261,6 264,6 267,6 270,5 270,100 0,100" fill="#ff3e00" />
    <polygon points="0,17 3,17 8,17 11,16 14,15 16,13 19,13 22,13 25,12 27,12 30,12 33,12 35,12 38,6 43,7 46,9 49,9 52,9 55,9 57,9 60,9 63,9 65,9 68,9 71,9 73,8 76,8 79,8 82,8 84,8 87,8 89,8 92,8 97,11 100,15 108,8 110,9 113,8 116,8 119,8 121,8 124,8 129,10 132,11 135,11 143,11 148,12 151,10 154,10 156,10 162,10 172,10 175,10 186,10 189,9 191,9 199,9 202,9 205,9 221,9 224,10 226,9 229,10 232,10 234,11 237,10 240,11 248,11 256,12 261,11 264,11 267,11 270,10 270,100 0,100" fill="#3178c6" />
    <polygon points="0,21 3,21 8,20 11,19 14,18 16,16 19,16 22,16 25,15 27,14 30,15 33,15 35,15 38,9 43,11 46,14 49,14 52,15 55,15 57,15 60,15 63,15 65,15 68,15 71,15 73,14 76,13 79,14 82,14 84,15 87,13 89,14 92,15 97,17 100,20 108,16 110,18 113,17 116,18 119,19 121,19 124,20 129,16 132,18 135,18 143,18 148,18 151,15 154,15 156,15 162,15 172,15 175,14 186,14 189,14 191,14 199,14 202,13 205,13 221,13 224,14 226,15 229,15 232,16 234,16 237,15 240,16 248,16 256,17 261,17 264,17 267,17 270,16 270,100 0,100" fill="#239dad" />
    <polygon points="0,21 3,21 8,20 11,19 14,18 16,16 19,16 22,16 25,15 27,14 30,15 33,15 35,15 38,9 43,11 46,14 49,14 52,15 55,15 57,15 60,15 63,15 65,15 68,15 71,15 73,14 76,13 79,14 82,14 84,15 87,13 89,14 92,15 97,17 100,20 108,16 110,18 113,17 116,18 119,19 121,19 124,20 129,16 132,18 135,18 143,18 148,18 151,15 154,15 156,15 162,15 172,15 175,14 186,14 189,14 191,14 199,14 202,13 205,13 221,13 224,14 226,28 229,28 232,29 234,29 237,28 240,29 248,29 256,31 261,31 264,31 267,31 270,30 270,100 0,100" fill="#3572A5" />
    <polygon points="0,40 3,40 8,40 11,38 14,35 16,33 19,33 22,33 25,32 27,32 30,32 33,32 35,32 38,29 43,31 46,33 49,33 52,33 55,33 57,33 60,33 63,33 65,34 68,34 71,34 73,34 76,34 79,35 82,34 84,35 87,34 89,35 92,35 97,38 100,40 108,38 110,39 113,39 116,39 119,39 121,40 124,40 129,37 132,37 135,38 143,37 148,38 151,35 154,35 156,35 162,34 172,34 175,34 186,34 189,33 191,32 199,32 202,31 205,31 221,31 224,33 226,46 229,46 232,46 234,46 237,46 240,46 248,46 256,51 261,50 264,50 267,50 270,50 270,100 0,100" fill="#dea584" />
    <polygon points="0,61 3,61 8,60 11,57 14,53 16,49 19,49 22,49 25,49 27,48 30,48 33,49 35,50 38,48 43,48 46,50 49,51 52,53 55,53 57,54 60,54 63,54 65,55 68,55 71,55 73,56 76,55 79,57 82,57 84,57 87,57 89,57 92,57 97,55 100,56 108,54 110,55 113,55 116,55 119,55 121,56 124,56 129,57 132,58 135,58 143,58 148,58 151,57 154,57 156,58 162,58 172,58 175,58 186,59 189,60 191,61 199,61 202,62 205,62 221,62 224,60 226,73 229,74 232,74 234,74 237,74 240,75 248,75 256,72 261,72 264,72 267,72 270,72 270,100 0,100" fill="#3D6117" />
  </g>
</svg>
