<svg width="300" height="160" viewBox="0 0 300 160" fill="none" role="img" xmlns="http://www.w3.org/2000/svg">
  <style>
    .header {font: 600 18px 'Segoe UI', Ubuntu, Sans-Serif; fill: #2f80ed; }
    .lang-name {font: 400 11px 'Segoe UI', Ubuntu, Sans-Serif; fill: #888; }
  </style>
  <rect x="0.5" y="0.5" rx="4.5" width="299" height="159" stroke="#888" stroke-opacity="1" fill="none" />
  <g transform="translate(15,25)"><text x="0" y="0" class="header">Language History</text></g>
  <g transform="translate(15,45)">
    <rect x="0" y="0" width="270" height="100" fill="#888" />
    <polygon points="0,17 3,17 9,17 11,16 14,15 17,13 20,13 23,13 25,12 28,12 31,12 34,12 36,12 39,6 45,7 48,9 50,9 54,9 56,9 59,9 62,9 65,9 67,9 70,9 73,9 76,8 79,8 81,8 84,8 87,8 90,8 92,8 95,8 100,11 103,15 111,8 114,9 117,8 119,8 122,8 125,8 128,5 133,5 136,6 139,6 147,6 153,6 156,6 158,6 161,6 167,6 178,6 181,6 192,6 194,6 197,6 206,6 208,5 211,5 228,6 231,6 233,6 236,6 239,6 242,6 244,5 247,6 256,5 264,6 270,6 270,100 0,100" fill="#ff3e00" />
    <polygon points="0,17 3,17 9,17 11,16 14,15 17,13 20,13 23,13 25,12 28,12 31,12 34,12 36,12 39,6 45,7 48,9 50,9 54,9 56,9 59,9 62,9 65,9 67,9 70,9 73,9 76,8 79,8 81,8 84,8 87,8 90,8 92,8 95,8 100,11 103,15 111,8 114,9 117,8 119,8 122,8 125,8 128,8 133,10 136,11 139,11 147,11 153,12 156,10 158,10 161,10 167,10 178,10 181,10 192,10 194,9 197,9 206,9 208,9 211,9 228,9 231,10 233,9 236,10 239,10 242,11 244,10 247,11 256,11 264,12 270,11 270,100 0,100" fill="#3178c6" />
    <polygon points="0,21 3,21 9,20 11,19 14,18 17,16 20,16 23,16 25,15 28,14 31,15 34,15 36,15 39,9 45,11 48,14 50,14 54,15 56,15 59,15 62,15 65,15 67,15 70,15 73,15 76,14 79,13 81,14 84,14 87,15 90,13 92,14 95,15 100,17 103,20 111,16 114,18 117,17 119,18 122,19 125,19 128,20 133,16 136,18 139,18 147,18 153,18 156,15 158,15 161,15 167,15 178,15 181,14 192,14 194,14 197,14 206,14 208,13 211,13 228,13 231,14 233,15 236,15 239,16 242,16 244,15 247,16 256,16 264,17 270,17 270,100 0,100" fill="#239dad" />
    <polygon points="0,21 3,21 9,20 11,19 14,18 17,16 20,16 23,16 25,15 28,14 31,15 34,15 36,15 39,9 45,11 48,14 50,14 54,15 56,15 59,15 62,15 65,15 67,15 70,15 73,15 76,14 79,13 81,14 84,14 87,15 90,13 92,14 95,15 100,17 103,20 111,16 114,18 117,17 119,18 122,19 125,19 128,20 133,16 136,18 139,18 147,18 153,18 156,15 158,15 161,15 167,15 178,15 181,14 192,14 194,14 197,14 206,14 208,13 211,13 228,13 231,14 233,28 236,28 239,29 242,29 244,28 247,29 256,29 264,31 270,31 270,100 0,100" fill="#3572A5" />
    <polygon points="0,40 3,40 9,40 11,38 14,35 17,33 20,33 23,33 25,32 28,32 31,32 34,32 36,32 39,29 45,31 48,33 50,33 54,33 56,33 59,33 62,33 65,33 67,34 70,34 73,34 76,34 79,34 81,35 84,34 87,35 90,34 92,35 95,35 100,38 103,40 111,38 114,39 117,39 119,39 122,39 125,40 128,40 133,37 136,37 139,38 147,37 153,38 156,35 158,35 161,35 167,34 178,34 181,34 192,34 194,33 197,32 206,32 208,31 211,31 228,31 231,33 233,46 236,46 239,46 242,46 244,46 247,46 256,46 264,51 270,50 270,100 0,100" fill="#dea584" />
    <polygon points="0,61 3,61 9,60 11,57 14,53 17,49 20,49 23,49 25,49 28,48 31,48 34,49 36,50 39,48 45,48 48,50 50,51 54,53 56,53 59,54 62,54 65,54 67,55 70,55 73,55 76,56 79,55 81,57 84,57 87,57 90,57 92,57 95,57 100,55 103,56 111,54 114,55 117,55 119,55 122,55 125,56 128,56 133,57 136,58 139,58 147,58 153,58 156,57 158,57 161,58 167,58 178,58 181,58 192,59 194,60 197,61 206,61 208,62 211,62 228,62 231,60 233,73 236,74 239,74 242,74 244,74 247,75 256,75 264,72 270,72 270,100 0,100" fill="#3D6117" />
  </g>
</svg>
