<svg width="300" height="160" viewBox="0 0 300 160" fill="none" role="img" xmlns="http://www.w3.org/2000/svg">
  <style>
    .header {font: 600 18px 'Segoe UI', Ubuntu, Sans-Serif; fill: #2f80ed; }
    .lang-name {font: 400 11px 'Segoe UI', Ubuntu, Sans-Serif; fill: #888; }
  </style>
  <rect x="0.5" y="0.5" rx="4.5" width="299" height="159" stroke="#888" stroke-opacity="1" fill="none" />
  <g transform="translate(15,25)"><text x="0" y="0" class="header">Language History</text></g>
  <g transform="translate(15,45)">
    <rect x="0" y="0" width="270" height="100" fill="#888" />
    <polygon points="0,14 5,14 15,14 19,13 24,12 29,10 33,10 38,11 43,9 47,9 52,9 57,9 61,9 66,4 75,5 80,5 84,4 90,4 94,4 99,4 104,5 108,4 113,4 118,4 122,4 127,4 132,4 136,3 141,3 145,3 150,4 154,4 159,4 167,7 172,10 186,4 191,5 195,4 200,4 204,4 209,4 214,2 223,3 228,3 232,3 246,3 256,4 260,3 265,4 270,4 270,100 0,100" fill="#ff5a03" />
    <polygon points="0,17 5,17 15,17 19,16 24,15 29,13 33,13 38,13 43,12 47,12 52,12 57,12 61,12 66,6 75,7 80,9 84,9 90,9 94,9 99,9 104,9 108,9 113,9 118,9 122,9 127,8 132,8 136,8 141,8 145,8 150,8 154,8 159,8 167,11 172,15 186,8 191,9 195,8 200,8 204,8 209,8 214,5 223,5 228,6 232,6 246,6 256,6 260,6 265,6 270,6 270,100 0,100" fill="#ff3e00" />
    <polygon points="0,17 5,17 15,17 19,16 24,15 29,13 33,13 38,13 43,12 47,12 52,12 57,12 61,12 66,6 75,7 80,9 84,9 90,9 94,9 99,9 104,9 108,9 113,9 118,9 122,9 127,8 132,8 136,8 141,8 145,8 150,8 154,8 159,8 167,11 172,15 186,8 191,9 195,8 200,8 204,8 209,8 214,8 223,10 228,11 232,11 246,11 256,12 260,10 265,10 270,10 270,100 0,100" fill="#3178c6" />
    <polygon points="0,21 5,21 15,20 19,19 24,18 29,16 33,16 38,16 43,15 47,14 52,15 57,15 61,15 66,9 75,11 80,14 84,14 90,15 94,15 99,15 104,15 108,15 113,15 118,15 122,15 127,14 132,13 136,14 141,14 145,15 150,13 154,14 159,15 167,17 172,20 186,16 191,18 195,17 200,18 204,19 209,19 214,20 223,16 228,18 232,18 246,18 256,18 260,15 265,15 270,15 270,100 0,100" fill="#3572A5" />
    <polygon points="0,40 5,40 15,40 19,38 24,35 29,33 33,33 38,33 43,32 47,32 52,32 57,32 61,32 66,29 75,31 80,33 84,33 90,33 94,33 99,33 104,33 108,33 113,34 118,34 122,34 127,34 132,34 136,35 141,34 145,35 150,34 154,35 159,35 167,38 172,40 186,38 191,39 195,39 200,39 204,39 209,40 214,40 223,37 228,37 232,38 246,37 256,38 260,35 265,35 270,35 270,100 0,100" fill="#dea584" />
    <polygon points="0,61 5,61 15,60 19,57 24,53 29,49 33,49 38,49 43,49 47,48 52,48 57,49 61,50 66,48 75,48 80,50 84,51 90,53 94,53 99,54 104,54 108,54 113,55 118,55 122,55 127,56 132,55 136,57 141,57 145,57 150,57 154,57 159,57 167,55 172,56 186,54 191,55 195,55 200,55 204,55 209,56 214,56 223,57 228,58 232,58 246,58 256,58 260,57 265,57 270,58 270,100 0,100" fill="#3D6117" />
  </g>
</svg>
