<svg width="300" height="160" viewBox="0 0 300 160" fill="none" role="img" xmlns="http://www.w3.org/2000/svg">
  <style>
    .header {font: 600 18px 'Segoe UI', Ubuntu, Sans-Serif; fill: #2f80ed; }
    .lang-name {font: 400 11px 'Segoe UI', Ubuntu, Sans-Serif; fill: #888; }
  </style>
  <rect x="0.5" y="0.5" rx="4.5" width="299" height="159" stroke="#888" stroke-opacity="1" fill="none" />
  <g transform="translate(15,25)"><text x="0" y="0" class="header">Language History</text></g>
  <g transform="translate(15,45)">
    <rect x="0" y="0" width="270" height="100" fill="#888" />
    <polygon points="0,12 14,12 36,12 47,11 58,11 69,9 80,9 91,9 102,7 113,7 124,7 135,7 146,7 157,2 180,3 191,3 202,3 214,3 225,3 236,3 247,3 258,3 270,3 270,100 0,100" fill="#fcb32c" />
    <polygon points="0,14 14,14 36,14 47,13 58,12 69,10 80,10 91,11 102,9 113,9 124,9 135,9 146,9 157,4 180,5 191,5 202,4 214,4 225,4 236,4 247,5 258,4 270,4 270,100 0,100" fill="#ff5a03" />
    <polygon points="0,17 14,17 36,17 47,16 58,15 69,13 80,13 91,13 102,12 113,12 124,12 135,12 146,12 157,6 180,7 191,9 202,9 214,9 225,9 236,9 247,9 258,9 270,9 270,100 0,100" fill="#3178c6" />
    <polygon points="0,21 14,21 36,20 47,19 58,18 69,16 80,16 91,16 102,15 113,14 124,15 135,15 146,15 157,9 180,11 191,14 202,14 214,15 225,15 236,15 247,15 258,15 270,15 270,100 0,100" fill="#3572A5" />
    <polygon points="0,40 14,40 36,40 47,38 58,35 69,33 80,33 91,33 102,32 113,32 124,32 135,32 146,32 157,29 180,31 191,33 202,33 214,33 225,33 236,33 247,33 258,33 270,34 270,100 0,100" fill="#dea584" />
    <polygon points="0,61 14,61 36,60 47,57 58,53 69,49 80,49 91,49 102,49 113,48 124,48 135,49 146,50 157,48 180,48 191,50 202,51 214,53 225,53 236,54 247,54 258,54 270,55 270,100 0,100" fill="#3D6117" />
  </g>
</svg>
