<svg width="300" height="160" viewBox="0 0 300 160" fill="none" role="img" xmlns="http://www.w3.org/2000/svg">
  <style>
    .header {font: 600 18px 'Segoe UI', Ubuntu, Sans-Serif; fill: #2f80ed; }
    .lang-name {font: 400 11px 'Segoe UI', Ubuntu, Sans-Serif; fill: #888; }
  </style>
  <rect x="0.5" y="0.5" rx="4.5" width="299" height="159" stroke="#888" stroke-opacity="1" fill="none" />
  <g transform="translate(15,25)"><text x="0" y="0" class="header">Language History</text></g>
  <g transform="translate(15,45)">
    <rect x="0" y="0" width="270" height="100" fill="#888" />
    <polygon points="0,12 8,12 20,12 26,11 33,11 39,9 45,9 51,9 58,7 64,7 70,7 76,7 83,7 89,2 101,3 108,3 114,3 121,3 127,3 134,3 140,3 146,3 152,3 159,3 165,3 171,2 177,2 184,2 190,2 196,2 202,2 208,3 214,3 226,5 232,9 251,2 257,3 263,2 270,2 270,100 0,100" fill="#fcb32c" />
    <polygon points="0,14 8,14 20,14 26,13 33,12 39,10 45,10 51,11 58,9 64,9 70,9 76,9 83,9 89,4 101,5 108,5 114,4 121,4 127,4 134,4 140,5 146,4 152,4 159,4 165,4 171,4 177,4 184,3 190,3 196,3 202,4 208,4 214,4 226,7 232,10 251,4 257,5 263,4 270,4 270,100 0,100" fill="#ff5a03" />
    <polygon points="0,17 8,17 20,17 26,16 33,15 39,13 45,13 51,13 58,12 64,12 70,12 76,12 83,12 89,6 101,7 108,9 114,9 121,9 127,9 134,9 140,9 146,9 152,9 159,9 165,9 171,8 177,8 184,8 190,8 196,8 202,8 208,8 214,8 226,11 232,15 251,8 257,9 263,8 270,8 270,100 0,100" fill="#3178c6" />
    <polygon points="0,21 8,21 20,20 26,19 33,18 39,16 45,16 51,16 58,15 64,14 70,15 76,15 83,15 89,9 101,11 108,14 114,14 121,15 127,15 134,15 140,15 146,15 152,15 159,15 165,15 171,14 177,13 184,14 190,14 196,15 202,13 208,14 214,15 226,17 232,20 251,16 257,18 263,17 270,18 270,100 0,100" fill="#dea584" />
    <polygon points="0,41 8,41 20,40 26,38 33,35 39,32 45,32 51,32 58,32 64,30 70,30 76,31 83,32 89,28 101,29 108,31 114,32 121,35 127,35 134,36 140,37 146,37 152,36 159,36 165,36 171,36 177,35 184,36 190,36 196,37 202,36 208,36 214,36 226,34 232,35 251,33 257,34 263,34 270,34 270,100 0,100" fill="#3572A5" />
    <polygon points="0,61 8,61 20,60 26,57 33,53 39,49 45,49 51,50 58,49 64,48 70,48 76,49 83,50 89,48 101,48 108,51 114,51 121,53 127,53 134,54 140,54 146,54 152,55 159,55 165,55 171,56 177,56 184,57 190,57 196,57 202,57 208,57 214,57 226,55 232,56 251,54 257,55 263,55 270,55 270,100 0,100" fill="#3D6117" />
  </g>
</svg>
