<svg width="300" height="160" viewBox="0 0 300 160" fill="none" role="img" xmlns="http://www.w3.org/2000/svg">
  <style>
    .header {font: 600 18px 'Segoe UI', Ubuntu, Sans-Serif; fill: #2f80ed; }
    .lang-name {font: 400 11px 'Segoe UI', Ubuntu, Sans-Serif; fill: #888; }
  </style>
  <rect x="0.5" y="0.5" rx="4.5" width="299" height="159" stroke="#888" stroke-opacity="1" fill="none" />
  <g transform="translate(15,25)"><text x="0" y="0" class="header">Language History</text></g>
  <g transform="translate(15,45)">
    <rect x="0" y="0" width="270" height="100" fill="#888" />
    <polygon points="0,12 11,12 28,12 36,11 45,11 54,9 62,9 71,9 79,7 88,7 96,7 105,7 114,7 122,2 139,3 148,3 157,3 166,3 175,3 184,3 192,3 201,3 209,3 218,3 227,3 235,2 244,2 252,2 261,2 270,2 270,100 0,100" fill="#fcb32c" />
    <polygon points="0,14 11,14 28,14 36,13 45,12 54,10 62,10 71,11 79,9 88,9 96,9 105,9 114,9 122,4 139,5 148,5 157,4 166,4 175,4 184,4 192,5 201,4 209,4 218,4 227,4 235,4 244,4 252,3 261,3 270,3 270,100 0,100" fill="#ff5a03" />
    <polygon points="0,17 11,17 28,17 36,16 45,15 54,13 62,13 71,13 79,12 88,12 96,12 105,12 114,12 122,6 139,7 148,9 157,9 166,9 175,9 184,9 192,9 201,9 209,9 218,9 227,9 235,8 244,8 252,8 261,8 270,8 270,100 0,100" fill="#3178c6" />
    <polygon points="0,21 11,21 28,20 36,19 45,18 54,16 62,16 71,16 79,15 88,14 96,15 105,15 114,15 122,9 139,11 148,14 157,14 166,15 175,15 184,15 192,15 201,15 209,15 218,15 227,15 235,14 244,13 252,14 261,14 270,15 270,100 0,100" fill="#3572A5" />
    <polygon points="0,40 11,40 28,40 36,38 45,35 54,33 62,33 71,33 79,32 88,32 96,32 105,32 114,32 122,29 139,31 148,33 157,33 166,33 175,33 184,33 192,33 201,33 209,34 218,34 227,34 235,34 244,34 252,35 261,34 270,35 270,100 0,100" fill="#dea584" />
    <polygon points="0,61 11,61 28,60 36,57 45,53 54,49 62,49 71,49 79,49 88,48 96,48 105,49 114,50 122,48 139,48 148,50 157,51 166,53 175,53 184,54 192,54 201,54 209,55 218,55 227,55 235,56 244,55 252,57 261,57 270,57 270,100 0,100" fill="#3D6117" />
  </g>
</svg>
