<svg width="300" height="160" viewBox="0 0 300 160" fill="none" role="img" xmlns="http://www.w3.org/2000/svg">
  <style>
    .header {font: 600 18px 'Segoe UI', Ubuntu, Sans-Serif; fill: #2f80ed; }
    .lang-name {font: 400 11px 'Segoe UI', Ubuntu, Sans-Serif; fill: #888; }
  </style>
  <rect x="0.5" y="0.5" rx="4.5" width="299" height="159" stroke="#888" stroke-opacity="1" fill="none" />
  <g transform="translate(15,25)"><text x="0" y="0" class="header">Language History</text></g>
  <g transform="translate(15,45)">
    <rect x="0" y="0" width="270" height="100" fill="#888" />
    <polygon points="0,12 13,12 33,12 43,11 54,11 64,9 74,9 84,9 94,7 105,7 115,7 125,7 135,7 145,2 166,3 176,3 186,3 198,3 208,3 218,3 229,3 239,3 249,3 259,3 270,3 270,100 0,100" fill="#fcb32c" />
    <polygon points="0,14 13,14 33,14 43,13 54,12 64,10 74,10 84,11 94,9 105,9 115,9 125,9 135,9 145,4 166,5 176,5 186,4 198,4 208,4 218,4 229,5 239,4 249,4 259,4 270,4 270,100 0,100" fill="#ff5a03" />
    <polygon points="0,17 13,17 33,17 43,16 54,15 64,13 74,13 84,13 94,12 105,12 115,12 125,12 135,12 145,6 166,7 176,9 186,9 198,9 208,9 218,9 229,9 239,9 249,9 259,9 270,9 270,100 0,100" fill="#3178c6" />
    <polygon points="0,21 13,21 33,20 43,19 54,18 64,16 74,16 84,16 94,15 105,14 115,15 125,15 135,15 145,9 166,11 176,14 186,14 198,15 208,15 218,15 229,15 239,15 249,15 259,15 270,15 270,100 0,100" fill="#3572A5" />
    <polygon points="0,40 13,40 33,40 43,38 54,35 64,33 74,33 84,33 94,32 105,32 115,32 125,32 135,32 145,29 166,31 176,33 186,33 198,33 208,33 218,33 229,33 239,33 249,34 259,34 270,34 270,100 0,100" fill="#dea584" />
    <polygon points="0,61 13,61 33,60 43,57 54,53 64,49 74,49 84,49 94,49 105,48 115,48 125,49 135,50 145,48 166,48 176,50 186,51 198,53 208,53 218,54 229,54 239,54 249,55 259,55 270,55 270,100 0,100" fill="#3D6117" />
  </g>
</svg>
