<svg width="300" height="160" viewBox="0 0 300 160" fill="none" role="img" xmlns="http://www.w3.org/2000/svg">
  <style>
    .header {font: 600 18px 'Segoe UI', Ubuntu, Sans-Serif; fill: #2f80ed; }
    .lang-name {font: 400 11px 'Segoe UI', Ubuntu, Sans-Serif; fill: #888; }
  </style>
  <rect x="0.5" y="0.5" rx="4.5" width="299" height="159" stroke="#888" stroke-opacity="1" fill="none" />
  <g transform="translate(15,25)"><text x="0" y="0" class="header">Language History</text></g>
  <g transform="translate(15,45)">
    <rect x="0" y="0" width="270" height="100" fill="#888" />
    <polygon points="0,17 3,17 9,17 12,16 15,15 17,13 20,13 23,13 26,12 29,12 32,12 34,12 37,12 40,6 46,7 49,9 51,9 55,9 57,9 60,9 63,9 66,9 69,9 72,9 75,9 77,8 80,8 83,8 86,8 89,8 92,8 94,8 97,8 102,11 105,15 113,8 116,9 119,8 122,8 125,8 128,8 130,5 136,5 139,6 142,6 150,6 156,6 159,6 162,6 165,6 170,6 182,6 184,6 196,6 199,6 201,6 210,6 213,5 216,5 233,6 235,6 238,6 241,6 244,6 247,6 250,5 252,6 261,5 270,6 270,100 0,100" fill="#3178c6" />
    <polygon points="0,21 3,21 9,20 12,19 15,18 17,16 20,16 23,16 26,15 29,14 32,15 34,15 37,15 40,9 46,11 49,14 51,14 55,15 57,15 60,15 63,15 66,15 69,15 72,15 75,15 77,14 80,13 83,14 86,14 89,15 92,13 94,14 97,15 102,17 105,20 113,16 116,18 119,17 122,18 125,19 128,19 130,16 136,12 139,13 142,13 150,12 156,12 159,11 162,11 165,11 170,11 182,11 184,10 196,10 199,10 201,10 210,10 213,10 216,10 233,10 235,11 238,11 241,11 244,11 247,10 250,10 252,11 261,10 270,11 270,100 0,100" fill="#ff3e00" />
    <polygon points="0,21 3,21 9,20 12,19 15,18 17,16 20,16 23,16 26,15 29,14 32,15 34,15 37,15 40,9 46,11 49,14 51,14 55,15 57,15 60,15 63,15 66,15 69,15 72,15 75,15 77,14 80,13 83,14 86,14 89,15 92,13 94,14 97,15 102,17 105,20 113,16 116,18 119,17 122,18 125,19 128,19 130,20 136,16 139,18 142,18 150,18 156,18 159,15 162,15 165,15 170,15 182,15 184,14 196,14 199,14 201,14 210,14 213,13 216,13 233,13 235,14 238,15 241,15 244,16 247,16 250,15 252,16 261,16 270,17 270,100 0,100" fill="#239dad" />
    <polygon points="0,21 3,21 9,20 12,19 15,18 17,16 20,16 23,16 26,15 29,14 32,15 34,15 37,15 40,9 46,11 49,14 51,14 55,15 57,15 60,15 63,15 66,15 69,15 72,15 75,15 77,14 80,13 83,14 86,14 89,15 92,13 94,14 97,15 102,17 105,20 113,16 116,18 119,17 122,18 125,19 128,19 130,20 136,16 139,18 142,18 150,18 156,18 159,15 162,15 165,15 170,15 182,15 184,14 196,14 199,14 201,14 210,14 213,13 216,13 233,13 235,14 238,28 241,28 244,29 247,29 250,28 252,29 261,29 270,31 270,100 0,100" fill="#3572A5" />
    <polygon points="0,40 3,40 9,40 12,38 15,35 17,33 20,33 23,33 26,32 29,32 32,32 34,32 37,32 40,29 46,31 49,33 51,33 55,33 57,33 60,33 63,33 66,33 69,34 72,34 75,34 77,34 80,34 83,35 86,34 89,35 92,34 94,35 97,35 102,38 105,40 113,38 116,39 119,39 122,39 125,39 128,40 130,40 136,37 139,37 142,38 150,37 156,38 159,35 162,35 165,35 170,34 182,34 184,34 196,34 199,33 201,32 210,32 213,31 216,31 233,31 235,33 238,46 241,46 244,46 247,46 250,46 252,46 261,46 270,51 270,100 0,100" fill="#dea584" />
    <polygon points="0,61 3,61 9,60 12,57 15,53 17,49 20,49 23,49 26,49 29,48 32,48 34,49 37,50 40,48 46,48 49,50 51,51 55,53 57,53 60,54 63,54 66,54 69,55 72,55 75,55 77,56 80,55 83,57 86,57 89,57 92,57 94,57 97,57 102,55 105,56 113,54 116,55 119,55 122,55 125,55 128,56 130,56 136,57 139,58 142,58 150,58 156,58 159,57 162,57 165,58 170,58 182,58 184,58 196,59 199,60 201,61 210,61 213,62 216,62 233,62 235,60 238,73 241,74 244,74 247,74 250,74 252,75 261,75 270,72 270,100 0,100" fill="#3D6117" />
  </g>
</svg>
