<svg width="300" height="160" viewBox="0 0 300 160" fill="none" role="img" xmlns="http://www.w3.org/2000/svg">
  <style>
    .header {font: 600 18px 'Segoe UI', Ubuntu, Sans-Serif; fill: #2f80ed; }
    .lang-name {font: 400 11px 'Segoe UI', Ubuntu, Sans-Serif; fill: #888; }
  </style>
  <rect x="0.5" y="0.5" rx="4.5" width="299" height="159" stroke="#888" stroke-opacity="1" fill="none" />
  <g transform="translate(15,25)"><text x="0" y="0" class="header">Language History</text></g>
  <g transform="translate(15,45)">
    <rect x="0" y="0" width="270" height="100" fill="#888" />
    <polygon points="0,17 3,17 8,17 11,16 14,15 16,13 19,13 22,13 24,12 27,12 30,12 32,12 35,12 38,6 43,7 46,9 48,9 51,9 54,9 57,9 59,9 62,9 65,9 67,9 70,9 73,8 75,8 78,8 81,8 83,8 86,8 88,8 91,8 96,11 99,15 107,8 109,9 112,8 115,8 117,8 120,8 123,5 128,5 131,6 133,6 141,6 147,6 149,6 152,6 155,6 160,6 171,6 173,6 184,6 187,6 189,6 197,6 200,5 203,5 219,6 221,6 224,6 227,6 229,6 232,6 235,5 237,6 245,5 253,6 259,6 261,6 264,6 267,5 270,5 270,100 0,100" fill="#ff3e00" />
    <polygon points="0,17 3,17 8,17 11,16 14,15 16,13 19,13 22,13 24,12 27,12 30,12 32,12 35,12 38,6 43,7 46,9 48,9 51,9 54,9 57,9 59,9 62,9 65,9 67,9 70,9 73,8 75,8 78,8 81,8 83,8 86,8 88,8 91,8 96,11 99,15 107,8 109,9 112,8 115,8 117,8 120,8 123,8 128,10 131,11 133,11 141,11 147,12 149,10 152,10 155,10 160,10 171,10 173,10 184,10 187,9 189,9 197,9 200,9 203,9 219,9 221,10 224,9 227,10 229,10 232,11 235,10 237,11 245,11 253,12 259,11 261,11 264,11 267,10 270,9 270,100 0,100" fill="#3178c6" />
    <polygon points="0,21 3,21 8,20 11,19 14,18 16,16 19,16 22,16 24,15 27,14 30,15 32,15 35,15 38,9 43,11 46,14 48,14 51,15 54,15 57,15 59,15 62,15 65,15 67,15 70,15 73,14 75,13 78,14 81,14 83,15 86,13 88,14 91,15 96,17 99,20 107,16 109,18 112,17 115,18 117,19 120,19 123,20 128,16 131,18 133,18 141,18 147,18 149,15 152,15 155,15 160,15 171,15 173,14 184,14 187,14 189,14 197,14 200,13 203,13 219,13 221,14 224,15 227,15 229,16 232,16 235,15 237,16 245,16 253,17 259,17 261,17 264,17 267,16 270,14 270,100 0,100" fill="#239dad" />
    <polygon points="0,21 3,21 8,20 11,19 14,18 16,16 19,16 22,16 24,15 27,14 30,15 32,15 35,15 38,9 43,11 46,14 48,14 51,15 54,15 57,15 59,15 62,15 65,15 67,15 70,15 73,14 75,13 78,14 81,14 83,15 86,13 88,14 91,15 96,17 99,20 107,16 109,18 112,17 115,18 117,19 120,19 123,20 128,16 131,18 133,18 141,18 147,18 149,15 152,15 155,15 160,15 171,15 173,14 184,14 187,14 189,14 197,14 200,13 203,13 219,13 221,14 224,28 227,28 229,29 232,29 235,28 237,29 245,29 253,31 259,31 261,31 264,31 267,30 270,28 270,100 0,100" fill="#3572A5" />
    <polygon points="0,40 3,40 8,40 11,38 14,35 16,33 19,33 22,33 24,32 27,32 30,32 32,32 35,32 38,29 43,31 46,33 48,33 51,33 54,33 57,33 59,33 62,33 65,34 67,34 70,34 73,34 75,34 78,35 81,34 83,35 86,34 88,35 91,35 96,38 99,40 107,38 109,39 112,39 115,39 117,39 120,40 123,40 128,37 131,37 133,38 141,37 147,38 149,35 152,35 155,35 160,34 171,34 173,34 184,34 187,33 189,32 197,32 200,31 203,31 219,31 221,33 224,46 227,46 229,46 232,46 235,46 237,46 245,46 253,51 259,50 261,50 264,50 267,50 270,48 270,100 0,100" fill="#dea584" />
    <polygon points="0,61 3,61 8,60 11,57 14,53 16,49 19,49 22,49 24,49 27,48 30,48 32,49 35,50 38,48 43,48 46,50 48,51 51,53 54,53 57,54 59,54 62,54 65,55 67,55 70,55 73,56 75,55 78,57 81,57 83,57 86,57 88,57 91,57 96,55 99,56 107,54 109,55 112,55 115,55 117,55 120,56 123,56 128,57 131,58 133,58 141,58 147,58 149,57 152,57 155,58 160,58 171,58 173,58 184,59 187,60 189,61 197,61 200,62 203,62 219,62 221,60 224,73 227,74 229,74 232,74 235,74 237,75 245,75 253,72 259,72 261,72 264,72 267,72 270,71 270,100 0,100" fill="#3D6117" />
  </g>
</svg>
