<svg width="300" height="160" viewBox="0 0 300 160" fill="none" role="img" xmlns="http://www.w3.org/2000/svg">
  <style>
    .header {font: 600 18px 'Segoe UI', Ubuntu, Sans-Serif; fill: #2f80ed; }
    .lang-name {font: 400 11px 'Segoe UI', Ubuntu, Sans-Serif; fill: #888; }
  </style>
  <rect x="0.5" y="0.5" rx="4.5" width="299" height="159" stroke="#888" stroke-opacity="1" fill="none" />
  <g transform="translate(15,25)"><text x="0" y="0" class="header">Language History</text></g>
  <g transform="translate(15,45)">
    <rect x="0" y="0" width="270" height="100" fill="#888" />
    <polygon points="0,17 3,17 9,17 12,16 15,15 18,13 21,13 24,13 27,12 30,12 33,12 36,12 38,12 41,6 47,7 50,9 53,9 56,9 59,9 62,9 65,9 68,9 71,9 74,9 77,9 80,8 83,8 86,8 89,8 92,8 95,8 97,8 100,8 105,11 108,15 117,8 120,9 123,8 126,8 129,8 132,8 135,5 141,5 144,6 146,6 155,6 161,6 164,6 167,6 170,6 176,6 187,6 190,6 202,6 205,6 208,6 217,6 220,5 223,5 240,6 243,6 246,6 249,6 252,6 255,6 258,5 261,6 270,5 270,100 0,100" fill="#3178c6" />
    <polygon points="0,21 3,21 9,20 12,19 15,18 18,16 21,16 24,16 27,15 30,14 33,15 36,15 38,15 41,9 47,11 50,14 53,14 56,15 59,15 62,15 65,15 68,15 71,15 74,15 77,15 80,14 83,13 86,14 89,14 92,15 95,13 97,14 100,15 105,17 108,20 117,16 120,18 123,17 126,18 129,19 132,19 135,16 141,12 144,13 146,13 155,12 161,12 164,11 167,11 170,11 176,11 187,11 190,10 202,10 205,10 208,10 217,10 220,10 223,10 240,10 243,11 246,11 249,11 252,11 255,10 258,10 261,11 270,10 270,100 0,100" fill="#ff3e00" />
    <polygon points="0,21 3,21 9,20 12,19 15,18 18,16 21,16 24,16 27,15 30,14 33,15 36,15 38,15 41,9 47,11 50,14 53,14 56,15 59,15 62,15 65,15 68,15 71,15 74,15 77,15 80,14 83,13 86,14 89,14 92,15 95,13 97,14 100,15 105,17 108,20 117,16 120,18 123,17 126,18 129,19 132,19 135,20 141,16 144,18 146,18 155,18 161,18 164,15 167,15 170,15 176,15 187,15 190,14 202,14 205,14 208,14 217,14 220,13 223,13 240,13 243,14 246,15 249,15 252,16 255,16 258,15 261,16 270,16 270,100 0,100" fill="#239dad" />
    <polygon points="0,21 3,21 9,20 12,19 15,18 18,16 21,16 24,16 27,15 30,14 33,15 36,15 38,15 41,9 47,11 50,14 53,14 56,15 59,15 62,15 65,15 68,15 71,15 74,15 77,15 80,14 83,13 86,14 89,14 92,15 95,13 97,14 100,15 105,17 108,20 117,16 120,18 123,17 126,18 129,19 132,19 135,20 141,16 144,18 146,18 155,18 161,18 164,15 167,15 170,15 176,15 187,15 190,14 202,14 205,14 208,14 217,14 220,13 223,13 240,13 243,14 246,28 249,28 252,29 255,29 258,28 261,29 270,29 270,100 0,100" fill="#3572A5" />
    <polygon points="0,40 3,40 9,40 12,38 15,35 18,33 21,33 24,33 27,32 30,32 33,32 36,32 38,32 41,29 47,31 50,33 53,33 56,33 59,33 62,33 65,33 68,33 71,34 74,34 77,34 80,34 83,34 86,35 89,34 92,35 95,34 97,35 100,35 105,38 108,40 117,38 120,39 123,39 126,39 129,39 132,40 135,40 141,37 144,37 146,38 155,37 161,38 164,35 167,35 170,35 176,34 187,34 190,34 202,34 205,33 208,32 217,32 220,31 223,31 240,31 243,33 246,46 249,46 252,46 255,46 258,46 261,46 270,46 270,100 0,100" fill="#3D6117" />
    <polygon points="0,79 3,79 9,80 12,81 15,82 18,83 21,83 24,83 27,83 30,84 33,84 36,83 38,82 41,81 47,82 50,82 53,81 56,79 59,79 62,78 65,78 68,78 71,79 74,78 77,79 80,78 83,78 86,77 89,77 92,78 95,77 97,78 100,78 105,82 108,84 117,83 120,83 123,83 126,83 129,84 132,84 135,84 141,80 144,79 146,79 155,79 161,79 164,78 167,77 170,76 176,76 187,76 190,75 202,74 205,72 208,71 217,70 220,69 223,68 240,68 243,72 246,72 249,71 252,72 255,71 258,71 261,71 270,71 270,100 0,100" fill="#dea584" />
  </g>
</svg>
