<svg width="300" height="160" viewBox="0 0 300 160" fill="none" role="img" xmlns="http://www.w3.org/2000/svg">
  <style>
    .header {font: 600 18px 'Segoe UI', Ubuntu, Sans-Serif; fill: #2f80ed; }
    .lang-name {font: 400 11px 'Segoe UI', Ubuntu, Sans-Serif; fill: #888; }
  </style>
  <rect x="0.5" y="0.5" rx="4.5" width="299" height="159" stroke="#888" stroke-opacity="1" fill="none" />
  <g transform="translate(15,25)"><text x="0" y="0" class="header">Language History</text></g>
  <g transform="translate(15,45)">
    <rect x="0" y="0" width="270" height="100" fill="#888" />
    <polygon points="0,14 6,14 17,14 23,13 28,12 33,10 39,10 44,11 50,9 55,9 60,9 66,9 71,9 76,4 87,5 93,5 98,4 104,4 110,4 115,4 120,5 126,4 131,4 136,4 142,4 147,4 153,4 158,3 163,3 169,3 174,4 179,4 184,4 194,7 200,10 216,4 221,5 226,4 232,4 237,4 243,4 248,2 259,3 264,3 270,3 270,100 0,100" fill="#ff5a03" />
    <polygon points="0,17 6,17 17,17 23,16 28,15 33,13 39,13 44,13 50,12 55,12 60,12 66,12 71,12 76,6 87,7 93,9 98,9 104,9 110,9 115,9 120,9 126,9 131,9 136,9 142,9 147,8 153,8 158,8 163,8 169,8 174,8 179,8 184,8 194,11 200,15 216,8 221,9 226,8 232,8 237,8 243,8 248,5 259,5 264,6 270,6 270,100 0,100" fill="#ff3e00" />
    <polygon points="0,17 6,17 17,17 23,16 28,15 33,13 39,13 44,13 50,12 55,12 60,12 66,12 71,12 76,6 87,7 93,9 98,9 104,9 110,9 115,9 120,9 126,9 131,9 136,9 142,9 147,8 153,8 158,8 163,8 169,8 174,8 179,8 184,8 194,11 200,15 216,8 221,9 226,8 232,8 237,8 243,8 248,8 259,10 264,11 270,11 270,100 0,100" fill="#3178c6" />
    <polygon points="0,21 6,21 17,20 23,19 28,18 33,16 39,16 44,16 50,15 55,14 60,15 66,15 71,15 76,9 87,11 93,14 98,14 104,15 110,15 115,15 120,15 126,15 131,15 136,15 142,15 147,14 153,13 158,14 163,14 169,15 174,13 179,14 184,15 194,17 200,20 216,16 221,18 226,17 232,18 237,19 243,19 248,20 259,16 264,18 270,18 270,100 0,100" fill="#3572A5" />
    <polygon points="0,40 6,40 17,40 23,38 28,35 33,33 39,33 44,33 50,32 55,32 60,32 66,32 71,32 76,29 87,31 93,33 98,33 104,33 110,33 115,33 120,33 126,33 131,34 136,34 142,34 147,34 153,34 158,35 163,34 169,35 174,34 179,35 184,35 194,38 200,40 216,38 221,39 226,39 232,39 237,39 243,40 248,40 259,37 264,37 270,38 270,100 0,100" fill="#dea584" />
    <polygon points="0,61 6,61 17,60 23,57 28,53 33,49 39,49 44,49 50,49 55,48 60,48 66,49 71,50 76,48 87,48 93,50 98,51 104,53 110,53 115,54 120,54 126,54 131,55 136,55 142,55 147,56 153,55 158,57 163,57 169,57 174,57 179,57 184,57 194,55 200,56 216,54 221,55 226,55 232,55 237,55 243,56 248,56 259,57 264,58 270,58 270,100 0,100" fill="#3D6117" />
  </g>
</svg>
