<svg width="300" height="160" viewBox="0 0 300 160" fill="none" role="img" xmlns="http://www.w3.org/2000/svg">
  <style>
    .header {font: 600 18px 'Segoe UI', Ubuntu, Sans-Serif; fill: #2f80ed; }
    .lang-name {font: 400 11px 'Segoe UI', Ubuntu, Sans-Serif; fill: #888; }
  </style>
  <rect x="0.5" y="0.5" rx="4.5" width="299" height="159" stroke="#888" stroke-opacity="1" fill="none" />
  <g transform="translate(15,25)"><text x="0" y="0" class="header">Language History</text></g>
  <g transform="translate(15,45)">
    <rect x="0" y="0" width="270" height="100" fill="#888" />
    <polygon points="0,17 3,17 8,17 11,16 13,15 16,13 19,13 21,13 24,12 27,12 29,12 32,12 35,12 37,6 43,7 45,9 48,9 51,9 54,9 56,9 59,9 61,9 64,9 67,9 69,9 72,8 75,8 77,8 80,8 83,8 85,8 87,8 90,8 95,11 98,15 106,8 108,9 111,8 114,8 116,8 119,8 121,5 127,5 129,6 132,6 140,6 145,6 148,6 151,6 153,6 158,6 169,6 172,6 182,6 185,6 188,6 195,6 198,5 201,5 217,6 219,6 222,6 225,6 227,6 230,6 232,5 235,6 243,5 251,6 256,6 259,6 262,6 264,5 267,5 270,5 270,100 0,100" fill="#ff3e00" />
    <polygon points="0,17 3,17 8,17 11,16 13,15 16,13 19,13 21,13 24,12 27,12 29,12 32,12 35,12 37,6 43,7 45,9 48,9 51,9 54,9 56,9 59,9 61,9 64,9 67,9 69,9 72,8 75,8 77,8 80,8 83,8 85,8 87,8 90,8 95,11 98,15 106,8 108,9 111,8 114,8 116,8 119,8 121,8 127,10 129,11 132,11 140,11 145,12 148,10 151,10 153,10 158,10 169,10 172,10 182,10 185,9 188,9 195,9 198,9 201,9 217,9 219,10 222,9 225,10 227,10 230,11 232,10 235,11 243,11 251,12 256,11 259,11 262,11 264,10 267,9 270,9 270,100 0,100" fill="#3178c6" />
    <polygon points="0,21 3,21 8,20 11,19 13,18 16,16 19,16 21,16 24,15 27,14 29,15 32,15 35,15 37,9 43,11 45,14 48,14 51,15 54,15 56,15 59,15 61,15 64,15 67,15 69,15 72,14 75,13 77,14 80,14 83,15 85,13 87,14 90,15 95,17 98,20 106,16 108,18 111,17 114,18 116,19 119,19 121,20 127,16 129,18 132,18 140,18 145,18 148,15 151,15 153,15 158,15 169,15 172,14 182,14 185,14 188,14 195,14 198,13 201,13 217,13 219,14 222,15 225,15 227,16 230,16 232,15 235,16 243,16 251,17 256,17 259,17 262,17 264,16 267,14 270,14 270,100 0,100" fill="#239dad" />
    <polygon points="0,21 3,21 8,20 11,19 13,18 16,16 19,16 21,16 24,15 27,14 29,15 32,15 35,15 37,9 43,11 45,14 48,14 51,15 54,15 56,15 59,15 61,15 64,15 67,15 69,15 72,14 75,13 77,14 80,14 83,15 85,13 87,14 90,15 95,17 98,20 106,16 108,18 111,17 114,18 116,19 119,19 121,20 127,16 129,18 132,18 140,18 145,18 148,15 151,15 153,15 158,15 169,15 172,14 182,14 185,14 188,14 195,14 198,13 201,13 217,13 219,14 222,28 225,28 227,29 230,29 232,28 235,29 243,29 251,31 256,31 259,31 262,31 264,30 267,28 270,28 270,100 0,100" fill="#3572A5" />
    <polygon points="0,40 3,40 8,40 11,38 13,35 16,33 19,33 21,33 24,32 27,32 29,32 32,32 35,32 37,29 43,31 45,33 48,33 51,33 54,33 56,33 59,33 61,33 64,34 67,34 69,34 72,34 75,34 77,35 80,34 83,35 85,34 87,35 90,35 95,38 98,40 106,38 108,39 111,39 114,39 116,39 119,40 121,40 127,37 129,37 132,38 140,37 145,38 148,35 151,35 153,35 158,34 169,34 172,34 182,34 185,33 188,32 195,32 198,31 201,31 217,31 219,33 222,46 225,46 227,46 230,46 232,46 235,46 243,46 251,51 256,50 259,50 262,50 264,50 267,48 270,48 270,100 0,100" fill="#dea584" />
    <polygon points="0,61 3,61 8,60 11,57 13,53 16,49 19,49 21,49 24,49 27,48 29,48 32,49 35,50 37,48 43,48 45,50 48,51 51,53 54,53 56,54 59,54 61,54 64,55 67,55 69,55 72,56 75,55 77,57 80,57 83,57 85,57 87,57 90,57 95,55 98,56 106,54 108,55 111,55 114,55 116,55 119,56 121,56 127,57 129,58 132,58 140,58 145,58 148,57 151,57 153,58 158,58 169,58 172,58 182,59 185,60 188,61 195,61 198,62 201,62 217,62 219,60 222,73 225,74 227,74 230,74 232,74 235,75 243,75 251,72 256,72 259,72 262,72 264,72 267,71 270,71 270,100 0,100" fill="#3D6117" />
  </g>
</svg>
