<svg width="300" height="160" viewBox="0 0 300 160" fill="none" role="img" xmlns="http://www.w3.org/2000/svg">
  <style>
    .header {font: 600 18px 'Segoe UI', Ubuntu, Sans-Serif; fill: #2f80ed; }
    .lang-name {font: 400 11px 'Segoe UI', Ubuntu, Sans-Serif; fill: #888; }
  </style>
  <rect x="0.5" y="0.5" rx="4.5" width="299" height="159" stroke="#888" stroke-opacity="1" fill="none" />
  <g transform="translate(15,25)"><text x="0" y="0" class="header">Language History</text></g>
  <g transform="translate(15,45)">
    <rect x="0" y="0" width="270" height="100" fill="#888" />
    <polygon points="0,14 4,14 10,14 13,13 17,12 20,10 23,10 26,11 30,9 33,9 36,9 39,9 43,9 46,4 52,5 56,5 59,4 63,4 66,4 69,4 72,5 76,4 79,4 82,4 85,4 89,4 92,4 95,3 98,3 102,3 105,4 108,4 111,4 117,7 120,10 130,4 133,5 136,4 140,4 143,4 146,4 149,2 156,3 159,3 162,3 172,3 179,4 182,3 185,4 188,4 195,3 208,3 211,3 224,3 227,3 231,3 240,3 244,3 247,3 266,3 270,4 270,100 0,100" fill="#ff5a03" />
    <polygon points="0,17 4,17 10,17 13,16 17,15 20,13 23,13 26,13 30,12 33,12 36,12 39,12 43,12 46,6 52,7 56,9 59,9 63,9 66,9 69,9 72,9 76,9 79,9 82,9 85,9 89,8 92,8 95,8 98,8 102,8 105,8 108,8 111,8 117,11 120,15 130,8 133,9 136,8 140,8 143,8 146,8 149,5 156,5 159,6 162,6 172,6 179,6 182,6 185,6 188,6 195,6 208,6 211,6 224,6 227,6 231,6 240,6 244,5 247,5 266,6 270,6 270,100 0,100" fill="#ff3e00" />
    <polygon points="0,17 4,17 10,17 13,16 17,15 20,13 23,13 26,13 30,12 33,12 36,12 39,12 43,12 46,6 52,7 56,9 59,9 63,9 66,9 69,9 72,9 76,9 79,9 82,9 85,9 89,8 92,8 95,8 98,8 102,8 105,8 108,8 111,8 117,11 120,15 130,8 133,9 136,8 140,8 143,8 146,8 149,8 156,10 159,11 162,11 172,11 179,12 182,10 185,10 188,10 195,10 208,10 211,10 224,10 227,9 231,9 240,9 244,9 247,9 266,9 270,10 270,100 0,100" fill="#3178c6" />
    <polygon points="0,21 4,21 10,20 13,19 17,18 20,16 23,16 26,16 30,15 33,14 36,15 39,15 43,15 46,9 52,11 56,14 59,14 63,15 66,15 69,15 72,15 76,15 79,15 82,15 85,15 89,14 92,13 95,14 98,14 102,15 105,13 108,14 111,15 117,17 120,20 130,16 133,18 136,17 140,18 143,19 146,19 149,20 156,16 159,18 162,18 172,18 179,18 182,15 185,15 188,15 195,15 208,15 211,14 224,14 227,14 231,14 240,14 244,13 247,13 266,13 270,14 270,100 0,100" fill="#3572A5" />
    <polygon points="0,40 4,40 10,40 13,38 17,35 20,33 23,33 26,33 30,32 33,32 36,32 39,32 43,32 46,29 52,31 56,33 59,33 63,33 66,33 69,33 72,33 76,33 79,34 82,34 85,34 89,34 92,34 95,35 98,34 102,35 105,34 108,35 111,35 117,38 120,40 130,38 133,39 136,39 140,39 143,39 146,40 149,40 156,37 159,37 162,38 172,37 179,38 182,35 185,35 188,35 195,34 208,34 211,34 224,34 227,33 231,32 240,32 244,31 247,31 266,31 270,33 270,100 0,100" fill="#dea584" />
    <polygon points="0,61 4,61 10,60 13,57 17,53 20,49 23,49 26,49 30,49 33,48 36,48 39,49 43,50 46,48 52,48 56,50 59,51 63,53 66,53 69,54 72,54 76,54 79,55 82,55 85,55 89,56 92,55 95,57 98,57 102,57 105,57 108,57 111,57 117,55 120,56 130,54 133,55 136,55 140,55 143,55 146,56 149,56 156,57 159,58 162,58 172,58 179,58 182,57 185,57 188,58 195,58 208,58 211,58 224,59 227,60 231,61 240,61 244,62 247,62 266,62 270,60 270,100 0,100" fill="#3D6117" />
  </g>
</svg>
