<svg width="300" height="160" viewBox="0 0 300 160" fill="none" role="img" xmlns="http://www.w3.org/2000/svg">
  <style>
    .header {font: 600 18px 'Segoe UI', Ubuntu, Sans-Serif; fill: #2f80ed; }
    .lang-name {font: 400 11px 'Segoe UI', Ubuntu, Sans-Serif; fill: #888; }
  </style>
  <rect x="0.5" y="0.5" rx="4.5" width="299" height="159" stroke="#888" stroke-opacity="1" fill="none" />
  <g transform="translate(15,25)"><text x="0" y="0" class="header">Language History</text></g>
  <g transform="translate(15,45)">
    <rect x="0" y="0" width="270" height="100" fill="#888" />
    <polygon points="0,12 7,12 19,12 25,11 31,11 37,9 43,9 49,9 55,7 61,7 67,7 73,7 79,7 85,2 97,3 103,3 109,3 116,3 122,3 128,3 134,3 140,3 146,3 152,3 158,3 164,2 170,2 176,2 181,2 187,2 193,2 199,3 205,3 216,5 222,9 240,2 246,3 252,2 258,2 264,2 270,2 270,100 0,100" fill="#fcb32c" />
    <polygon points="0,14 7,14 19,14 25,13 31,12 37,10 43,10 49,11 55,9 61,9 67,9 73,9 79,9 85,4 97,5 103,5 109,4 116,4 122,4 128,4 134,5 140,4 146,4 152,4 158,4 164,4 170,4 176,3 181,3 187,3 193,4 199,4 205,4 216,7 222,10 240,4 246,5 252,4 258,4 264,4 270,4 270,100 0,100" fill="#ff5a03" />
    <polygon points="0,17 7,17 19,17 25,16 31,15 37,13 43,13 49,13 55,12 61,12 67,12 73,12 79,12 85,6 97,7 103,9 109,9 116,9 122,9 128,9 134,9 140,9 146,9 152,9 158,9 164,8 170,8 176,8 181,8 187,8 193,8 199,8 205,8 216,11 222,15 240,8 246,9 252,8 258,8 264,8 270,8 270,100 0,100" fill="#3178c6" />
    <polygon points="0,21 7,21 19,20 25,19 31,18 37,16 43,16 49,16 55,15 61,14 67,15 73,15 79,15 85,9 97,11 103,14 109,14 116,15 122,15 128,15 134,15 140,15 146,15 152,15 158,15 164,14 170,13 176,14 181,14 187,15 193,13 199,14 205,15 216,17 222,20 240,16 246,18 252,17 258,18 264,19 270,19 270,100 0,100" fill="#dea584" />
    <polygon points="0,41 7,41 19,40 25,38 31,35 37,32 43,32 49,32 55,32 61,30 67,30 73,31 79,32 85,28 97,29 103,31 109,32 116,35 122,35 128,36 134,37 140,37 146,36 152,36 158,36 164,36 170,35 176,36 181,36 187,37 193,36 199,36 205,36 216,34 222,35 240,33 246,34 252,34 258,34 264,35 270,35 270,100 0,100" fill="#3572A5" />
    <polygon points="0,61 7,61 19,60 25,57 31,53 37,49 43,49 49,50 55,49 61,48 67,48 73,49 79,50 85,48 97,48 103,51 109,51 116,53 122,53 128,54 134,54 140,54 146,55 152,55 158,55 164,56 170,56 176,57 181,57 187,57 193,57 199,57 205,57 216,55 222,56 240,54 246,55 252,55 258,55 264,55 270,56 270,100 0,100" fill="#3D6117" />
  </g>
</svg>
