<svg width="300" height="160" viewBox="0 0 300 160" fill="none" role="img" xmlns="http://www.w3.org/2000/svg">
  <style>
    .header {font: 600 18px 'Segoe UI', Ubuntu, Sans-Serif; fill: #2f80ed; }
    .lang-name {font: 400 11px 'Segoe UI', Ubuntu, Sans-Serif; fill: #888; }
  </style>
  <rect x="0.5" y="0.5" rx="4.5" width="299" height="159" stroke="#888" stroke-opacity="1" fill="none" />
  <g transform="translate(15,25)"><text x="0" y="0" class="header">Language History</text></g>
  <g transform="translate(15,45)">
    <rect x="0" y="0" width="270" height="100" fill="#888" />
    <polygon points="0,3 41,3 46,3 107,3 139,3 172,2 204,2 237,2 270,2 270,100 0,100" fill="#ff3e00" />
    <polygon points="0,5 41,4 46,4 107,4 139,4 172,4 204,3 237,4 270,4 270,100 0,100" fill="#fcb32c" />
    <polygon points="0,7 41,6 46,6 107,6 139,6 172,6 204,5 237,5 270,5 270,100 0,100" fill="#ff5a03" />
    <polygon points="0,9 41,9 46,9 107,9 139,9 172,8 204,7 237,7 270,7 270,100 0,100" fill="#3178c6" />
    <polygon points="0,13 41,13 46,13 107,13 139,12 172,11 204,10 237,11 270,10 270,100 0,100" fill="#f1e05a" />
    <polygon points="0,21 41,21 46,21 107,20 139,19 172,18 204,16 237,16 270,16 270,100 0,100" fill="#dea584" />
    <polygon points="0,41 41,41 46,41 107,40 139,38 172,35 204,32 237,32 270,32 270,100 0,100" fill="#3572A5" />
    <polygon points="0,61 41,61 46,60 107,60 139,57 172,53 204,49 237,49 270,50 270,100 0,100" fill="#3D6117" />
  </g>
</svg>
