<svg width="300" height="160" viewBox="0 0 300 160" fill="none" role="img" xmlns="http://www.w3.org/2000/svg">
  <style>
    .header {font: 600 18px 'Segoe UI', Ubuntu, Sans-Serif; fill: #2f80ed; }
    .lang-name {font: 400 11px 'Segoe UI', Ubuntu, Sans-Serif; fill: #888; }
  </style>
  <rect x="0.5" y="0.5" rx="4.5" width="299" height="159" stroke="#888" stroke-opacity="1" fill="none" />
  <g transform="translate(15,25)"><text x="0" y="0" class="header">Language History</text></g>
  <g transform="translate(15,45)">
    <rect x="0" y="0" width="270" height="100" fill="#888" />
    <polygon points="0,14 5,14 12,14 16,13 20,12 24,10 28,10 32,11 36,9 40,9 44,9 47,9 51,9 55,4 63,5 67,5 71,4 75,4 79,4 83,4 87,5 91,4 95,4 99,4 103,4 107,4 111,4 114,3 118,3 122,3 126,4 129,4 133,4 141,7 145,10 156,4 160,5 164,4 168,4 172,4 176,4 180,2 187,3 191,3 195,3 207,3 215,4 219,3 223,4 227,4 234,3 250,3 254,3 270,3 270,100 0,100" fill="#ff5a03" />
    <polygon points="0,17 5,17 12,17 16,16 20,15 24,13 28,13 32,13 36,12 40,12 44,12 47,12 51,12 55,6 63,7 67,9 71,9 75,9 79,9 83,9 87,9 91,9 95,9 99,9 103,9 107,8 111,8 114,8 118,8 122,8 126,8 129,8 133,8 141,11 145,15 156,8 160,9 164,8 168,8 172,8 176,8 180,5 187,5 191,6 195,6 207,6 215,6 219,6 223,6 227,6 234,6 250,6 254,6 270,6 270,100 0,100" fill="#ff3e00" />
    <polygon points="0,17 5,17 12,17 16,16 20,15 24,13 28,13 32,13 36,12 40,12 44,12 47,12 51,12 55,6 63,7 67,9 71,9 75,9 79,9 83,9 87,9 91,9 95,9 99,9 103,9 107,8 111,8 114,8 118,8 122,8 126,8 129,8 133,8 141,11 145,15 156,8 160,9 164,8 168,8 172,8 176,8 180,8 187,10 191,11 195,11 207,11 215,12 219,10 223,10 227,10 234,10 250,10 254,10 270,10 270,100 0,100" fill="#3178c6" />
    <polygon points="0,21 5,21 12,20 16,19 20,18 24,16 28,16 32,16 36,15 40,14 44,15 47,15 51,15 55,9 63,11 67,14 71,14 75,15 79,15 83,15 87,15 91,15 95,15 99,15 103,15 107,14 111,13 114,14 118,14 122,15 126,13 129,14 133,15 141,17 145,20 156,16 160,18 164,17 168,18 172,19 176,19 180,20 187,16 191,18 195,18 207,18 215,18 219,15 223,15 227,15 234,15 250,15 254,14 270,14 270,100 0,100" fill="#3572A5" />
    <polygon points="0,40 5,40 12,40 16,38 20,35 24,33 28,33 32,33 36,32 40,32 44,32 47,32 51,32 55,29 63,31 67,33 71,33 75,33 79,33 83,33 87,33 91,33 95,34 99,34 103,34 107,34 111,34 114,35 118,34 122,35 126,34 129,35 133,35 141,38 145,40 156,38 160,39 164,39 168,39 172,39 176,40 180,40 187,37 191,37 195,38 207,37 215,38 219,35 223,35 227,35 234,34 250,34 254,34 270,34 270,100 0,100" fill="#dea584" />
    <polygon points="0,61 5,61 12,60 16,57 20,53 24,49 28,49 32,49 36,49 40,48 44,48 47,49 51,50 55,48 63,48 67,50 71,51 75,53 79,53 83,54 87,54 91,54 95,55 99,55 103,55 107,56 111,55 114,57 118,57 122,57 126,57 129,57 133,57 141,55 145,56 156,54 160,55 164,55 168,55 172,55 176,56 180,56 187,57 191,58 195,58 207,58 215,58 219,57 223,57 227,58 234,58 250,58 254,58 270,59 270,100 0,100" fill="#3D6117" />
  </g>
</svg>
