<svg width="300" height="160" viewBox="0 0 300 160" fill="none" role="img" xmlns="http://www.w3.org/2000/svg">
  <style>
    .header {font: 600 18px 'Segoe UI', Ubuntu, Sans-Serif; fill: #2f80ed; }
    .lang-name {font: 400 11px 'Segoe UI', Ubuntu, Sans-Serif; fill: #888; }
  </style>
  <rect x="0.5" y="0.5" rx="4.5" width="299" height="159" stroke="#888" stroke-opacity="1" fill="none" />
  <g transform="translate(15,25)"><text x="0" y="0" class="header">Language History</text></g>
  <g transform="translate(15,45)">
    <rect x="0" y="0" width="270" height="100" fill="#888" />
    <polygon points="0,14 7,14 18,14 23,13 29,12 34,10 40,10 45,11 51,9 56,9 62,9 67,9 72,9 78,4 89,5 94,5 100,4 106,4 112,4 117,4 123,5 128,4 134,4 139,4 145,4 150,4 156,4 161,3 167,3 172,3 178,4 182,4 188,4 198,7 204,10 220,4 226,5 231,4 237,4 242,4 248,4 253,2 264,3 270,3 270,100 0,100" fill="#ff5a03" />
    <polygon points="0,17 7,17 18,17 23,16 29,15 34,13 40,13 45,13 51,12 56,12 62,12 67,12 72,12 78,6 89,7 94,9 100,9 106,9 112,9 117,9 123,9 128,9 134,9 139,9 145,9 150,8 156,8 161,8 167,8 172,8 178,8 182,8 188,8 198,11 204,15 220,8 226,9 231,8 237,8 242,8 248,8 253,5 264,5 270,6 270,100 0,100" fill="#ff3e00" />
    <polygon points="0,17 7,17 18,17 23,16 29,15 34,13 40,13 45,13 51,12 56,12 62,12 67,12 72,12 78,6 89,7 94,9 100,9 106,9 112,9 117,9 123,9 128,9 134,9 139,9 145,9 150,8 156,8 161,8 167,8 172,8 178,8 182,8 188,8 198,11 204,15 220,8 226,9 231,8 237,8 242,8 248,8 253,8 264,10 270,11 270,100 0,100" fill="#3178c6" />
    <polygon points="0,21 7,21 18,20 23,19 29,18 34,16 40,16 45,16 51,15 56,14 62,15 67,15 72,15 78,9 89,11 94,14 100,14 106,15 112,15 117,15 123,15 128,15 134,15 139,15 145,15 150,14 156,13 161,14 167,14 172,15 178,13 182,14 188,15 198,17 204,20 220,16 226,18 231,17 237,18 242,19 248,19 253,20 264,16 270,18 270,100 0,100" fill="#3572A5" />
    <polygon points="0,40 7,40 18,40 23,38 29,35 34,33 40,33 45,33 51,32 56,32 62,32 67,32 72,32 78,29 89,31 94,33 100,33 106,33 112,33 117,33 123,33 128,33 134,34 139,34 145,34 150,34 156,34 161,35 167,34 172,35 178,34 182,35 188,35 198,38 204,40 220,38 226,39 231,39 237,39 242,39 248,40 253,40 264,37 270,37 270,100 0,100" fill="#dea584" />
    <polygon points="0,61 7,61 18,60 23,57 29,53 34,49 40,49 45,49 51,49 56,48 62,48 67,49 72,50 78,48 89,48 94,50 100,51 106,53 112,53 117,54 123,54 128,54 134,55 139,55 145,55 150,56 156,55 161,57 167,57 172,57 178,57 182,57 188,57 198,55 204,56 220,54 226,55 231,55 237,55 242,55 248,56 253,56 264,57 270,58 270,100 0,100" fill="#3D6117" />
  </g>
</svg>
