<svg width="300" height="160" viewBox="0 0 300 160" fill="none" role="img" xmlns="http://www.w3.org/2000/svg">
  <style>
    .header {font: 600 18px 'Segoe UI', Ubuntu, Sans-Serif; fill: #2f80ed; }
    .lang-name {font: 400 11px 'Segoe UI', Ubuntu, Sans-Serif; fill: #888; }
  </style>
  <rect x="0.5" y="0.5" rx="4.5" width="299" height="159" stroke="#888" stroke-opacity="1" fill="none" />
  <g transform="translate(15,25)"><text x="0" y="0" class="header">Language History</text></g>
  <g transform="translate(15,45)">
    <rect x="0" y="0" width="270" height="100" fill="#888" />
    <polygon points="0,17 3,17 10,17 13,16 16,15 19,13 22,13 25,13 28,12 31,12 34,12 37,12 40,12 43,6 49,7 52,9 56,9 59,9 62,9 65,9 68,9 71,9 74,9 77,9 80,9 84,8 87,8 90,8 93,8 96,8 99,8 101,8 105,8 110,11 113,15 122,8 126,9 129,8 132,8 135,8 138,8 141,5 147,5 150,6 153,6 162,6 168,6 171,6 175,6 178,6 184,6 196,6 199,6 211,6 214,6 217,6 227,6 230,5 233,5 251,6 254,6 257,6 260,6 263,6 266,6 270,5 270,100 0,100" fill="#3178c6" />
    <polygon points="0,21 3,21 10,20 13,19 16,18 19,16 22,16 25,16 28,15 31,14 34,15 37,15 40,15 43,9 49,11 52,14 56,14 59,15 62,15 65,15 68,15 71,15 74,15 77,15 80,15 84,14 87,13 90,14 93,14 96,15 99,13 101,14 105,15 110,17 113,20 122,16 126,18 129,17 132,18 135,19 138,19 141,16 147,12 150,13 153,13 162,12 168,12 171,11 175,11 178,11 184,11 196,11 199,10 211,10 214,10 217,10 227,10 230,10 233,10 251,10 254,11 257,11 260,11 263,11 266,10 270,10 270,100 0,100" fill="#ff3e00" />
    <polygon points="0,21 3,21 10,20 13,19 16,18 19,16 22,16 25,16 28,15 31,14 34,15 37,15 40,15 43,9 49,11 52,14 56,14 59,15 62,15 65,15 68,15 71,15 74,15 77,15 80,15 84,14 87,13 90,14 93,14 96,15 99,13 101,14 105,15 110,17 113,20 122,16 126,18 129,17 132,18 135,19 138,19 141,20 147,16 150,18 153,18 162,18 168,18 171,15 175,15 178,15 184,15 196,15 199,14 211,14 214,14 217,14 227,14 230,13 233,13 251,13 254,14 257,15 260,15 263,16 266,16 270,15 270,100 0,100" fill="#239dad" />
    <polygon points="0,21 3,21 10,20 13,19 16,18 19,16 22,16 25,16 28,15 31,14 34,15 37,15 40,15 43,9 49,11 52,14 56,14 59,15 62,15 65,15 68,15 71,15 74,15 77,15 80,15 84,14 87,13 90,14 93,14 96,15 99,13 101,14 105,15 110,17 113,20 122,16 126,18 129,17 132,18 135,19 138,19 141,20 147,16 150,18 153,18 162,18 168,18 171,15 175,15 178,15 184,15 196,15 199,14 211,14 214,14 217,14 227,14 230,13 233,13 251,13 254,14 257,28 260,28 263,29 266,29 270,28 270,100 0,100" fill="#3572A5" />
    <polygon points="0,40 3,40 10,40 13,38 16,35 19,33 22,33 25,33 28,32 31,32 34,32 37,32 40,32 43,29 49,31 52,33 56,33 59,33 62,33 65,33 68,33 71,33 74,34 77,34 80,34 84,34 87,34 90,35 93,34 96,35 99,34 101,35 105,35 110,38 113,40 122,38 126,39 129,39 132,39 135,39 138,40 141,40 147,37 150,37 153,38 162,37 168,38 171,35 175,35 178,35 184,34 196,34 199,34 211,34 214,33 217,32 227,32 230,31 233,31 251,31 254,33 257,46 260,46 263,46 266,46 270,46 270,100 0,100" fill="#3D6117" />
    <polygon points="0,79 3,79 10,80 13,81 16,82 19,83 22,83 25,83 28,83 31,84 34,84 37,83 40,82 43,81 49,82 52,82 56,81 59,79 62,79 65,78 68,78 71,78 74,79 77,78 80,79 84,78 87,78 90,77 93,77 96,78 99,77 101,78 105,78 110,82 113,84 122,83 126,83 129,83 132,83 135,84 138,84 141,84 147,80 150,79 153,79 162,79 168,79 171,78 175,77 178,76 184,76 196,76 199,75 211,74 214,72 217,71 227,70 230,69 233,68 251,68 254,72 257,72 260,71 263,72 266,71 270,71 270,100 0,100" fill="#dea584" />
  </g>
</svg>
