<svg width="300" height="160" viewBox="0 0 300 160" fill="none" role="img" xmlns="http://www.w3.org/2000/svg">
  <style>
    .header {font: 600 18px 'Segoe UI', Ubuntu, Sans-Serif; fill: #2f80ed; }
    .lang-name {font: 400 11px 'Segoe UI', Ubuntu, Sans-Serif; fill: #888; }
  </style>
  <rect x="0.5" y="0.5" rx="4.5" width="299" height="159" stroke="#888" stroke-opacity="1" fill="none" />
  <g transform="translate(15,25)"><text x="0" y="0" class="header">Language History</text></g>
  <g transform="translate(15,45)">
    <rect x="0" y="0" width="270" height="100" fill="#888" />
    <polygon points="0,14 4,14 11,14 15,13 18,12 22,10 25,10 29,11 32,9 36,9 40,9 43,9 47,9 50,4 57,5 61,5 64,4 68,4 72,4 75,4 79,5 83,4 86,4 90,4 93,4 97,4 100,4 104,3 107,3 111,3 114,4 118,4 121,4 128,7 131,10 142,4 145,5 149,4 152,4 156,4 160,4 163,2 170,3 174,3 177,3 188,3 195,4 199,3 202,4 206,4 213,3 227,3 230,3 245,3 248,3 252,3 262,3 266,3 270,3 270,100 0,100" fill="#ff5a03" />
    <polygon points="0,17 4,17 11,17 15,16 18,15 22,13 25,13 29,13 32,12 36,12 40,12 43,12 47,12 50,6 57,7 61,9 64,9 68,9 72,9 75,9 79,9 83,9 86,9 90,9 93,9 97,8 100,8 104,8 107,8 111,8 114,8 118,8 121,8 128,11 131,15 142,8 145,9 149,8 152,8 156,8 160,8 163,5 170,5 174,6 177,6 188,6 195,6 199,6 202,6 206,6 213,6 227,6 230,6 245,6 248,6 252,6 262,6 266,5 270,5 270,100 0,100" fill="#ff3e00" />
    <polygon points="0,17 4,17 11,17 15,16 18,15 22,13 25,13 29,13 32,12 36,12 40,12 43,12 47,12 50,6 57,7 61,9 64,9 68,9 72,9 75,9 79,9 83,9 86,9 90,9 93,9 97,8 100,8 104,8 107,8 111,8 114,8 118,8 121,8 128,11 131,15 142,8 145,9 149,8 152,8 156,8 160,8 163,8 170,10 174,11 177,11 188,11 195,12 199,10 202,10 206,10 213,10 227,10 230,10 245,10 248,9 252,9 262,9 266,9 270,9 270,100 0,100" fill="#3178c6" />
    <polygon points="0,21 4,21 11,20 15,19 18,18 22,16 25,16 29,16 32,15 36,14 40,15 43,15 47,15 50,9 57,11 61,14 64,14 68,15 72,15 75,15 79,15 83,15 86,15 90,15 93,15 97,14 100,13 104,14 107,14 111,15 114,13 118,14 121,15 128,17 131,20 142,16 145,18 149,17 152,18 156,19 160,19 163,20 170,16 174,18 177,18 188,18 195,18 199,15 202,15 206,15 213,15 227,15 230,14 245,14 248,14 252,14 262,14 266,13 270,13 270,100 0,100" fill="#3572A5" />
    <polygon points="0,40 4,40 11,40 15,38 18,35 22,33 25,33 29,33 32,32 36,32 40,32 43,32 47,32 50,29 57,31 61,33 64,33 68,33 72,33 75,33 79,33 83,33 86,34 90,34 93,34 97,34 100,34 104,35 107,34 111,35 114,34 118,35 121,35 128,38 131,40 142,38 145,39 149,39 152,39 156,39 160,40 163,40 170,37 174,37 177,38 188,37 195,38 199,35 202,35 206,35 213,34 227,34 230,34 245,34 248,33 252,32 262,32 266,31 270,31 270,100 0,100" fill="#dea584" />
    <polygon points="0,61 4,61 11,60 15,57 18,53 22,49 25,49 29,49 32,49 36,48 40,48 43,49 47,50 50,48 57,48 61,50 64,51 68,53 72,53 75,54 79,54 83,54 86,55 90,55 93,55 97,56 100,55 104,57 107,57 111,57 114,57 118,57 121,57 128,55 131,56 142,54 145,55 149,55 152,55 156,55 160,56 163,56 170,57 174,58 177,58 188,58 195,58 199,57 202,57 206,58 213,58 227,58 230,58 245,59 248,60 252,61 262,61 266,62 270,62 270,100 0,100" fill="#3D6117" />
  </g>
</svg>
