<svg width="300" height="160" viewBox="0 0 300 160" fill="none" role="img" xmlns="http://www.w3.org/2000/svg">
  <style>
    .header {font: 600 18px 'Segoe UI', Ubuntu, Sans-Serif; fill: #2f80ed; }
    .lang-name {font: 400 11px 'Segoe UI', Ubuntu, Sans-Serif; fill: #888; }
  </style>
  <rect x="0.5" y="0.5" rx="4.5" width="299" height="159" stroke="#888" stroke-opacity="1" fill="none" />
  <g transform="translate(15,25)"><text x="0" y="0" class="header">Language History</text></g>
  <g transform="translate(15,45)">
    <rect x="0" y="0" width="270" height="100" fill="#888" />
    <polygon points="0,14 5,14 13,14 17,13 21,12 26,10 30,10 34,11 38,9 42,9 46,9 50,9 55,9 59,4 67,5 71,5 75,4 80,4 84,4 88,4 92,5 97,4 101,4 105,4 109,4 113,4 117,4 121,3 126,3 130,3 134,4 137,4 142,4 149,7 153,10 166,4 170,5 174,4 178,4 182,4 187,4 191,2 199,3 203,3 207,3 220,3 228,4 232,3 236,4 240,4 249,3 265,3 270,3 270,100 0,100" fill="#ff5a03" />
    <polygon points="0,17 5,17 13,17 17,16 21,15 26,13 30,13 34,13 38,12 42,12 46,12 50,12 55,12 59,6 67,7 71,9 75,9 80,9 84,9 88,9 92,9 97,9 101,9 105,9 109,9 113,8 117,8 121,8 126,8 130,8 134,8 137,8 142,8 149,11 153,15 166,8 170,9 174,8 178,8 182,8 187,8 191,5 199,5 203,6 207,6 220,6 228,6 232,6 236,6 240,6 249,6 265,6 270,6 270,100 0,100" fill="#ff3e00" />
    <polygon points="0,17 5,17 13,17 17,16 21,15 26,13 30,13 34,13 38,12 42,12 46,12 50,12 55,12 59,6 67,7 71,9 75,9 80,9 84,9 88,9 92,9 97,9 101,9 105,9 109,9 113,8 117,8 121,8 126,8 130,8 134,8 137,8 142,8 149,11 153,15 166,8 170,9 174,8 178,8 182,8 187,8 191,8 199,10 203,11 207,11 220,11 228,12 232,10 236,10 240,10 249,10 265,10 270,10 270,100 0,100" fill="#3178c6" />
    <polygon points="0,21 5,21 13,20 17,19 21,18 26,16 30,16 34,16 38,15 42,14 46,15 50,15 55,15 59,9 67,11 71,14 75,14 80,15 84,15 88,15 92,15 97,15 101,15 105,15 109,15 113,14 117,13 121,14 126,14 130,15 134,13 137,14 142,15 149,17 153,20 166,16 170,18 174,17 178,18 182,19 187,19 191,20 199,16 203,18 207,18 220,18 228,18 232,15 236,15 240,15 249,15 265,15 270,14 270,100 0,100" fill="#3572A5" />
    <polygon points="0,40 5,40 13,40 17,38 21,35 26,33 30,33 34,33 38,32 42,32 46,32 50,32 55,32 59,29 67,31 71,33 75,33 80,33 84,33 88,33 92,33 97,33 101,34 105,34 109,34 113,34 117,34 121,35 126,34 130,35 134,34 137,35 142,35 149,38 153,40 166,38 170,39 174,39 178,39 182,39 187,40 191,40 199,37 203,37 207,38 220,37 228,38 232,35 236,35 240,35 249,34 265,34 270,34 270,100 0,100" fill="#dea584" />
    <polygon points="0,61 5,61 13,60 17,57 21,53 26,49 30,49 34,49 38,49 42,48 46,48 50,49 55,50 59,48 67,48 71,50 75,51 80,53 84,53 88,54 92,54 97,54 101,55 105,55 109,55 113,56 117,55 121,57 126,57 130,57 134,57 137,57 142,57 149,55 153,56 166,54 170,55 174,55 178,55 182,55 187,56 191,56 199,57 203,58 207,58 220,58 228,58 232,57 236,57 240,58 249,58 265,58 270,58 270,100 0,100" fill="#3D6117" />
  </g>
</svg>
