<svg width="300" height="160" viewBox="0 0 300 160" fill="none" role="img" xmlns="http://www.w3.org/2000/svg">
  <style>
    .header {font: 600 18px 'Segoe UI', Ubuntu, Sans-Serif; fill: #2f80ed; }
    .lang-name {font: 400 11px 'Segoe UI', Ubuntu, Sans-Serif; fill: #888; }
  </style>
  <rect x="0.5" y="0.5" rx="4.5" width="299" height="159" stroke="#888" stroke-opacity="1" fill="none" />
  <g transform="translate(15,25)"><text x="0" y="0" class="header">Language History</text></g>
  <g transform="translate(15,45)">
    <rect x="0" y="0" width="270" height="100" fill="#888" />
    <polygon points="0,12 24,12 27,12 62,12 81,11 99,11 118,9 137,9 156,9 175,7 194,7 213,7 232,7 251,7 270,2 270,100 0,100" fill="#fcb32c" />
    <polygon points="0,14 24,14 27,14 62,14 81,13 99,12 118,10 137,10 156,11 175,9 194,9 213,9 232,9 251,9 270,4 270,100 0,100" fill="#ff5a03" />
    <polygon points="0,17 24,17 27,17 62,17 81,16 99,15 118,13 137,13 156,13 175,12 194,12 213,12 232,12 251,12 270,6 270,100 0,100" fill="#3178c6" />
    <polygon points="0,21 24,21 27,21 62,20 81,19 99,18 118,16 137,16 156,16 175,15 194,14 213,15 232,15 251,15 270,9 270,100 0,100" fill="#dea584" />
    <polygon points="0,41 24,41 27,41 62,40 81,38 99,35 118,32 137,32 156,32 175,32 194,30 213,30 232,31 251,32 270,28 270,100 0,100" fill="#3572A5" />
    <polygon points="0,61 24,61 27,60 62,60 81,57 99,53 118,49 137,49 156,50 175,49 194,48 213,48 232,49 251,50 270,48 270,100 0,100" fill="#3D6117" />
  </g>
</svg>
