<svg width="300" height="160" viewBox="0 0 300 160" fill="none" role="img" xmlns="http://www.w3.org/2000/svg">
  <style>
    .header {font: 600 18px 'Segoe UI', Ubuntu, Sans-Serif; fill: #2f80ed; }
    .lang-name {font: 400 11px 'Segoe UI', Ubuntu, Sans-Serif; fill: #888; }
  </style>
  <rect x="0.5" y="0.5" rx="4.5" width="299" height="159" stroke="#888" stroke-opacity="1" fill="none" />
  <g transform="translate(15,25)"><text x="0" y="0" class="header">Language History</text></g>
  <g transform="translate(15,45)">
    <rect x="0" y="0" width="270" height="100" fill="#888" />
    <polygon points="0,17 3,17 8,17 10,16 13,15 15,13 18,13 20,13 22,12 25,12 27,12 30,12 32,12 35,6 40,7 42,9 45,9 48,9 50,9 53,9 55,9 57,9 60,9 62,9 65,9 67,8 70,8 72,8 75,8 77,8 80,8 82,8 84,8 89,11 91,15 99,8 101,9 104,8 106,8 109,8 111,8 114,5 119,5 121,6 124,6 131,6 136,6 138,6 141,6 143,6 148,6 158,6 161,6 171,6 173,6 175,6 183,6 185,5 188,5 203,6 205,6 208,6 210,6 213,6 215,6 218,5 220,6 227,5 235,6 240,6 242,6 245,6 247,5 250,5 252,5 255,5 257,5 262,5 270,5 270,100 0,100" fill="#ff3e00" />
    <polygon points="0,17 3,17 8,17 10,16 13,15 15,13 18,13 20,13 22,12 25,12 27,12 30,12 32,12 35,6 40,7 42,9 45,9 48,9 50,9 53,9 55,9 57,9 60,9 62,9 65,9 67,8 70,8 72,8 75,8 77,8 80,8 82,8 84,8 89,11 91,15 99,8 101,9 104,8 106,8 109,8 111,8 114,8 119,10 121,11 124,11 131,11 136,12 138,10 141,10 143,10 148,10 158,10 161,10 171,10 173,9 175,9 183,9 185,9 188,9 203,9 205,10 208,9 210,10 213,10 215,11 218,10 220,11 227,11 235,12 240,11 242,11 245,11 247,10 250,9 252,9 255,10 257,10 262,10 270,10 270,100 0,100" fill="#3178c6" />
    <polygon points="0,21 3,21 8,20 10,19 13,18 15,16 18,16 20,16 22,15 25,14 27,15 30,15 32,15 35,9 40,11 42,14 45,14 48,15 50,15 53,15 55,15 57,15 60,15 62,15 65,15 67,14 70,13 72,14 75,14 77,15 80,13 82,14 84,15 89,17 91,20 99,16 101,18 104,17 106,18 109,19 111,19 114,20 119,16 121,18 124,18 131,18 136,18 138,15 141,15 143,15 148,15 158,15 161,14 171,14 173,14 175,14 183,14 185,13 188,13 203,13 205,14 208,15 210,15 213,16 215,16 218,15 220,16 227,16 235,17 240,17 242,17 245,17 247,16 250,14 252,14 255,16 257,16 262,15 270,16 270,100 0,100" fill="#239dad" />
    <polygon points="0,21 3,21 8,20 10,19 13,18 15,16 18,16 20,16 22,15 25,14 27,15 30,15 32,15 35,9 40,11 42,14 45,14 48,15 50,15 53,15 55,15 57,15 60,15 62,15 65,15 67,14 70,13 72,14 75,14 77,15 80,13 82,14 84,15 89,17 91,20 99,16 101,18 104,17 106,18 109,19 111,19 114,20 119,16 121,18 124,18 131,18 136,18 138,15 141,15 143,15 148,15 158,15 161,14 171,14 173,14 175,14 183,14 185,13 188,13 203,13 205,14 208,28 210,28 213,29 215,29 218,28 220,29 227,29 235,31 240,31 242,31 245,31 247,30 250,28 252,28 255,30 257,30 262,30 270,30 270,100 0,100" fill="#3572A5" />
    <polygon points="0,40 3,40 8,40 10,38 13,35 15,33 18,33 20,33 22,32 25,32 27,32 30,32 32,32 35,29 40,31 42,33 45,33 48,33 50,33 53,33 55,33 57,33 60,34 62,34 65,34 67,34 70,34 72,35 75,34 77,35 80,34 82,35 84,35 89,38 91,40 99,38 101,39 104,39 106,39 109,39 111,40 114,40 119,37 121,37 124,38 131,37 136,38 138,35 141,35 143,35 148,34 158,34 161,34 171,34 173,33 175,32 183,32 185,31 188,31 203,31 205,33 208,46 210,46 213,46 215,46 218,46 220,46 227,46 235,51 240,50 242,50 245,50 247,50 250,48 252,48 255,49 257,50 262,50 270,50 270,100 0,100" fill="#dea584" />
    <polygon points="0,61 3,61 8,60 10,57 13,53 15,49 18,49 20,49 22,49 25,48 27,48 30,49 32,50 35,48 40,48 42,50 45,51 48,53 50,53 53,54 55,54 57,54 60,55 62,55 65,55 67,56 70,55 72,57 75,57 77,57 80,57 82,57 84,57 89,55 91,56 99,54 101,55 104,55 106,55 109,55 111,56 114,56 119,57 121,58 124,58 131,58 136,58 138,57 141,57 143,58 148,58 158,58 161,58 171,59 173,60 175,61 183,61 185,62 188,62 203,62 205,60 208,73 210,74 213,74 215,74 218,74 220,75 227,75 235,72 240,72 242,72 245,72 247,72 250,71 252,71 255,72 257,72 262,72 270,73 270,100 0,100" fill="#3D6117" />
  </g>
</svg>
