<svg width="300" height="160" viewBox="0 0 300 160" fill="none" role="img" xmlns="http://www.w3.org/2000/svg">
  <style>
    .header {font: 600 18px 'Segoe UI', Ubuntu, Sans-Serif; fill: #2f80ed; }
    .lang-name {font: 400 11px 'Segoe UI', Ubuntu, Sans-Serif; fill: #888; }
  </style>
  <rect x="0.5" y="0.5" rx="4.5" width="299" height="159" stroke="#888" stroke-opacity="1" fill="none" />
  <g transform="translate(15,25)"><text x="0" y="0" class="header">Language History</text></g>
  <g transform="translate(15,45)">
    <rect x="0" y="0" width="270" height="100" fill="#888" />
    <polygon points="0,17 3,17 7,17 10,16 12,15 14,13 17,13 19,13 21,12 24,12 26,12 29,12 31,12 33,6 38,7 40,9 43,9 45,9 48,9 50,9 52,9 55,9 57,9 60,9 62,9 64,8 67,8 69,8 71,8 74,8 76,8 78,8 81,8 85,11 87,15 94,8 97,9 99,8 101,8 104,8 106,8 109,5 113,5 116,6 118,6 125,6 130,6 132,6 135,6 137,6 142,6 151,6 153,6 163,6 165,6 168,6 175,6 177,5 179,5 194,6 196,6 198,6 201,6 203,6 205,6 208,5 210,6 217,5 224,6 229,6 231,6 234,6 236,5 238,5 241,5 243,5 246,5 250,5 257,5 260,5 262,5 265,5 270,6 270,100 0,100" fill="#ff3e00" />
    <polygon points="0,17 3,17 7,17 10,16 12,15 14,13 17,13 19,13 21,12 24,12 26,12 29,12 31,12 33,6 38,7 40,9 43,9 45,9 48,9 50,9 52,9 55,9 57,9 60,9 62,9 64,8 67,8 69,8 71,8 74,8 76,8 78,8 81,8 85,11 87,15 94,8 97,9 99,8 101,8 104,8 106,8 109,8 113,10 116,11 118,11 125,11 130,12 132,10 135,10 137,10 142,10 151,10 153,10 163,10 165,9 168,9 175,9 177,9 179,9 194,9 196,10 198,9 201,10 203,10 205,11 208,10 210,11 217,11 224,12 229,11 231,11 234,11 236,10 238,9 241,9 243,10 246,10 250,10 257,10 260,10 262,10 265,11 270,11 270,100 0,100" fill="#3178c6" />
    <polygon points="0,21 3,21 7,20 10,19 12,18 14,16 17,16 19,16 21,15 24,14 26,15 29,15 31,15 33,9 38,11 40,14 43,14 45,15 48,15 50,15 52,15 55,15 57,15 60,15 62,15 64,14 67,13 69,14 71,14 74,15 76,13 78,14 81,15 85,17 87,20 94,16 97,18 99,17 101,18 104,19 106,19 109,20 113,16 116,18 118,18 125,18 130,18 132,15 135,15 137,15 142,15 151,15 153,14 163,14 165,14 168,14 175,14 177,13 179,13 194,13 196,14 198,15 201,15 203,16 205,16 208,15 210,16 217,16 224,17 229,17 231,17 234,17 236,16 238,14 241,14 243,16 246,16 250,15 257,16 260,16 262,16 265,16 270,16 270,100 0,100" fill="#239dad" />
    <polygon points="0,21 3,21 7,20 10,19 12,18 14,16 17,16 19,16 21,15 24,14 26,15 29,15 31,15 33,9 38,11 40,14 43,14 45,15 48,15 50,15 52,15 55,15 57,15 60,15 62,15 64,14 67,13 69,14 71,14 74,15 76,13 78,14 81,15 85,17 87,20 94,16 97,18 99,17 101,18 104,19 106,19 109,20 113,16 116,18 118,18 125,18 130,18 132,15 135,15 137,15 142,15 151,15 153,14 163,14 165,14 168,14 175,14 177,13 179,13 194,13 196,14 198,28 201,28 203,29 205,29 208,28 210,29 217,29 224,31 229,31 231,31 234,31 236,30 238,28 241,28 243,30 246,30 250,30 257,30 260,30 262,30 265,30 270,30 270,100 0,100" fill="#3572A5" />
    <polygon points="0,40 3,40 7,40 10,38 12,35 14,33 17,33 19,33 21,32 24,32 26,32 29,32 31,32 33,29 38,31 40,33 43,33 45,33 48,33 50,33 52,33 55,33 57,34 60,34 62,34 64,34 67,34 69,35 71,34 74,35 76,34 78,35 81,35 85,38 87,40 94,38 97,39 99,39 101,39 104,39 106,40 109,40 113,37 116,37 118,38 125,37 130,38 132,35 135,35 137,35 142,34 151,34 153,34 163,34 165,33 168,32 175,32 177,31 179,31 194,31 196,33 198,46 201,46 203,46 205,46 208,46 210,46 217,46 224,51 229,50 231,50 234,50 236,50 238,48 241,48 243,49 246,50 250,50 257,50 260,50 262,49 265,50 270,50 270,100 0,100" fill="#dea584" />
    <polygon points="0,61 3,61 7,60 10,57 12,53 14,49 17,49 19,49 21,49 24,48 26,48 29,49 31,50 33,48 38,48 40,50 43,51 45,53 48,53 50,54 52,54 55,54 57,55 60,55 62,55 64,56 67,55 69,57 71,57 74,57 76,57 78,57 81,57 85,55 87,56 94,54 97,55 99,55 101,55 104,55 106,56 109,56 113,57 116,58 118,58 125,58 130,58 132,57 135,57 137,58 142,58 151,58 153,58 163,59 165,60 168,61 175,61 177,62 179,62 194,62 196,60 198,73 201,74 203,74 205,74 208,74 210,75 217,75 224,72 229,72 231,72 234,72 236,72 238,71 241,71 243,72 246,72 250,72 257,73 260,72 262,73 265,73 270,73 270,100 0,100" fill="#3D6117" />
  </g>
</svg>
