<svg width="300" height="160" viewBox="0 0 300 160" fill="none" role="img" xmlns="http://www.w3.org/2000/svg">
  <style>
    .header {font: 600 18px 'Segoe UI', Ubuntu, Sans-Serif; fill: #2f80ed; }
    .lang-name {font: 400 11px 'Segoe UI', Ubuntu, Sans-Serif; fill: #888; }
  </style>
  <rect x="0.5" y="0.5" rx="4.5" width="299" height="159" stroke="#888" stroke-opacity="1" fill="none" />
  <g transform="translate(15,25)"><text x="0" y="0" class="header">Language History</text></g>
  <g transform="translate(15,45)">
    <rect x="0" y="0" width="270" height="100" fill="#888" />
    <polygon points="0,14 6,14 16,14 20,13 25,12 30,10 35,10 40,11 45,9 50,9 55,9 60,9 65,9 69,4 79,5 84,5 89,4 95,4 100,4 104,4 109,5 114,4 119,4 124,4 129,4 134,4 139,4 144,3 148,3 153,3 158,4 162,4 167,4 176,7 181,10 196,4 201,5 206,4 211,4 216,4 221,4 225,2 235,3 240,3 245,3 260,3 270,4 270,100 0,100" fill="#ff5a03" />
    <polygon points="0,17 6,17 16,17 20,16 25,15 30,13 35,13 40,13 45,12 50,12 55,12 60,12 65,12 69,6 79,7 84,9 89,9 95,9 100,9 104,9 109,9 114,9 119,9 124,9 129,9 134,8 139,8 144,8 148,8 153,8 158,8 162,8 167,8 176,11 181,15 196,8 201,9 206,8 211,8 216,8 221,8 225,5 235,5 240,6 245,6 260,6 270,6 270,100 0,100" fill="#3178c6" />
    <polygon points="0,21 6,21 16,20 20,19 25,18 30,16 35,16 40,16 45,15 50,14 55,15 60,15 65,15 69,9 79,11 84,14 89,14 95,15 100,15 104,15 109,15 114,15 119,15 124,15 129,15 134,14 139,13 144,14 148,14 153,15 158,13 162,14 167,15 176,17 181,20 196,16 201,18 206,17 211,18 216,19 221,19 225,16 235,12 240,13 245,13 260,12 270,12 270,100 0,100" fill="#ff3e00" />
    <polygon points="0,21 6,21 16,20 20,19 25,18 30,16 35,16 40,16 45,15 50,14 55,15 60,15 65,15 69,9 79,11 84,14 89,14 95,15 100,15 104,15 109,15 114,15 119,15 124,15 129,15 134,14 139,13 144,14 148,14 153,15 158,13 162,14 167,15 176,17 181,20 196,16 201,18 206,17 211,18 216,19 221,19 225,20 235,16 240,18 245,18 260,18 270,18 270,100 0,100" fill="#3572A5" />
    <polygon points="0,40 6,40 16,40 20,38 25,35 30,33 35,33 40,33 45,32 50,32 55,32 60,32 65,32 69,29 79,31 84,33 89,33 95,33 100,33 104,33 109,33 114,33 119,34 124,34 129,34 134,34 139,34 144,35 148,34 153,35 158,34 162,35 167,35 176,38 181,40 196,38 201,39 206,39 211,39 216,39 221,40 225,40 235,37 240,37 245,38 260,37 270,38 270,100 0,100" fill="#dea584" />
    <polygon points="0,61 6,61 16,60 20,57 25,53 30,49 35,49 40,49 45,49 50,48 55,48 60,49 65,50 69,48 79,48 84,50 89,51 95,53 100,53 104,54 109,54 114,54 119,55 124,55 129,55 134,56 139,55 144,57 148,57 153,57 158,57 162,57 167,57 176,55 181,56 196,54 201,55 206,55 211,55 216,55 221,56 225,56 235,57 240,58 245,58 260,58 270,58 270,100 0,100" fill="#3D6117" />
  </g>
</svg>
