<svg width="300" height="160" viewBox="0 0 300 160" fill="none" role="img" xmlns="http://www.w3.org/2000/svg">
  <style>
    .header {font: 600 18px 'Segoe UI', Ubuntu, Sans-Serif; fill: #2f80ed; }
    .lang-name {font: 400 11px 'Segoe UI', Ubuntu, Sans-Serif; fill: #888; }
  </style>
  <rect x="0.5" y="0.5" rx="4.5" width="299" height="159" stroke="#888" stroke-opacity="1" fill="none" />
  <g transform="translate(15,25)"><text x="0" y="0" class="header">Language History</text></g>
  <g transform="translate(15,45)">
    <rect x="0" y="0" width="270" height="100" fill="#888" />
    <polygon points="0,12 13,12 34,12 45,11 56,11 66,9 77,9 87,9 98,7 109,7 119,7 130,7 141,7 151,2 172,3 183,3 194,3 206,3 216,3 227,3 238,3 248,3 259,3 270,3 270,100 0,100" fill="#fcb32c" />
    <polygon points="0,14 13,14 34,14 45,13 56,12 66,10 77,10 87,11 98,9 109,9 119,9 130,9 141,9 151,4 172,5 183,5 194,4 206,4 216,4 227,4 238,5 248,4 259,4 270,4 270,100 0,100" fill="#ff5a03" />
    <polygon points="0,17 13,17 34,17 45,16 56,15 66,13 77,13 87,13 98,12 109,12 119,12 130,12 141,12 151,6 172,7 183,9 194,9 206,9 216,9 227,9 238,9 248,9 259,9 270,9 270,100 0,100" fill="#3178c6" />
    <polygon points="0,21 13,21 34,20 45,19 56,18 66,16 77,16 87,16 98,15 109,14 119,15 130,15 141,15 151,9 172,11 183,14 194,14 206,15 216,15 227,15 238,15 248,15 259,15 270,15 270,100 0,100" fill="#3572A5" />
    <polygon points="0,40 13,40 34,40 45,38 56,35 66,33 77,33 87,33 98,32 109,32 119,32 130,32 141,32 151,29 172,31 183,33 194,33 206,33 216,33 227,33 238,33 248,33 259,34 270,34 270,100 0,100" fill="#dea584" />
    <polygon points="0,61 13,61 34,60 45,57 56,53 66,49 77,49 87,49 98,49 109,48 119,48 130,49 141,50 151,48 172,48 183,50 194,51 206,53 216,53 227,54 238,54 248,54 259,55 270,55 270,100 0,100" fill="#3D6117" />
  </g>
</svg>
