<svg width="300" height="160" viewBox="0 0 300 160" fill="none" role="img" xmlns="http://www.w3.org/2000/svg">
  <style>
    .header {font: 600 18px 'Segoe UI', Ubuntu, Sans-Serif; fill: #2f80ed; }
    .lang-name {font: 400 11px 'Segoe UI', Ubuntu, Sans-Serif; fill: #888; }
  </style>
  <rect x="0.5" y="0.5" rx="4.5" width="299" height="159" stroke="#888" stroke-opacity="1" fill="none" />
  <g transform="translate(15,25)"><text x="0" y="0" class="header">Language History</text></g>
  <g transform="translate(15,45)">
    <rect x="0" y="0" width="270" height="100" fill="#888" />
    <polygon points="0,17 3,17 8,17 11,16 13,15 16,13 19,13 21,13 24,12 26,12 29,12 32,12 34,12 37,6 42,7 45,9 47,9 50,9 53,9 56,9 58,9 61,9 63,9 66,9 69,9 71,8 74,8 77,8 79,8 82,8 84,8 87,8 89,8 94,11 97,15 105,8 107,9 110,8 112,8 115,8 118,8 120,5 126,5 128,6 131,6 139,6 144,6 146,6 149,6 152,6 157,6 167,6 170,6 180,6 183,6 186,6 194,6 196,5 199,5 215,6 217,6 220,6 222,6 225,6 228,6 230,5 233,6 241,5 249,6 254,6 256,6 259,6 262,5 264,5 267,5 270,5 270,100 0,100" fill="#ff3e00" />
    <polygon points="0,17 3,17 8,17 11,16 13,15 16,13 19,13 21,13 24,12 26,12 29,12 32,12 34,12 37,6 42,7 45,9 47,9 50,9 53,9 56,9 58,9 61,9 63,9 66,9 69,9 71,8 74,8 77,8 79,8 82,8 84,8 87,8 89,8 94,11 97,15 105,8 107,9 110,8 112,8 115,8 118,8 120,8 126,10 128,11 131,11 139,11 144,12 146,10 149,10 152,10 157,10 167,10 170,10 180,10 183,9 186,9 194,9 196,9 199,9 215,9 217,10 220,9 222,10 225,10 228,11 230,10 233,11 241,11 249,12 254,11 256,11 259,11 262,10 264,9 267,9 270,10 270,100 0,100" fill="#3178c6" />
    <polygon points="0,21 3,21 8,20 11,19 13,18 16,16 19,16 21,16 24,15 26,14 29,15 32,15 34,15 37,9 42,11 45,14 47,14 50,15 53,15 56,15 58,15 61,15 63,15 66,15 69,15 71,14 74,13 77,14 79,14 82,15 84,13 87,14 89,15 94,17 97,20 105,16 107,18 110,17 112,18 115,19 118,19 120,20 126,16 128,18 131,18 139,18 144,18 146,15 149,15 152,15 157,15 167,15 170,14 180,14 183,14 186,14 194,14 196,13 199,13 215,13 217,14 220,15 222,15 225,16 228,16 230,15 233,16 241,16 249,17 254,17 256,17 259,17 262,16 264,14 267,14 270,16 270,100 0,100" fill="#239dad" />
    <polygon points="0,21 3,21 8,20 11,19 13,18 16,16 19,16 21,16 24,15 26,14 29,15 32,15 34,15 37,9 42,11 45,14 47,14 50,15 53,15 56,15 58,15 61,15 63,15 66,15 69,15 71,14 74,13 77,14 79,14 82,15 84,13 87,14 89,15 94,17 97,20 105,16 107,18 110,17 112,18 115,19 118,19 120,20 126,16 128,18 131,18 139,18 144,18 146,15 149,15 152,15 157,15 167,15 170,14 180,14 183,14 186,14 194,14 196,13 199,13 215,13 217,14 220,28 222,28 225,29 228,29 230,28 233,29 241,29 249,31 254,31 256,31 259,31 262,30 264,28 267,28 270,30 270,100 0,100" fill="#3572A5" />
    <polygon points="0,40 3,40 8,40 11,38 13,35 16,33 19,33 21,33 24,32 26,32 29,32 32,32 34,32 37,29 42,31 45,33 47,33 50,33 53,33 56,33 58,33 61,33 63,34 66,34 69,34 71,34 74,34 77,35 79,34 82,35 84,34 87,35 89,35 94,38 97,40 105,38 107,39 110,39 112,39 115,39 118,40 120,40 126,37 128,37 131,38 139,37 144,38 146,35 149,35 152,35 157,34 167,34 170,34 180,34 183,33 186,32 194,32 196,31 199,31 215,31 217,33 220,46 222,46 225,46 228,46 230,46 233,46 241,46 249,51 254,50 256,50 259,50 262,50 264,48 267,48 270,49 270,100 0,100" fill="#dea584" />
    <polygon points="0,61 3,61 8,60 11,57 13,53 16,49 19,49 21,49 24,49 26,48 29,48 32,49 34,50 37,48 42,48 45,50 47,51 50,53 53,53 56,54 58,54 61,54 63,55 66,55 69,55 71,56 74,55 77,57 79,57 82,57 84,57 87,57 89,57 94,55 97,56 105,54 107,55 110,55 112,55 115,55 118,56 120,56 126,57 128,58 131,58 139,58 144,58 146,57 149,57 152,58 157,58 167,58 170,58 180,59 183,60 186,61 194,61 196,62 199,62 215,62 217,60 220,73 222,74 225,74 228,74 230,74 233,75 241,75 249,72 254,72 256,72 259,72 262,72 264,71 267,71 270,72 270,100 0,100" fill="#3D6117" />
  </g>
</svg>
