<svg width="300" height="160" viewBox="0 0 300 160" fill="none" role="img" xmlns="http://www.w3.org/2000/svg">
  <style>
    .header {font: 600 18px 'Segoe UI', Ubuntu, Sans-Serif; fill: #2f80ed; }
    .lang-name {font: 400 11px 'Segoe UI', Ubuntu, Sans-Serif; fill: #888; }
  </style>
  <rect x="0.5" y="0.5" rx="4.5" width="299" height="159" stroke="#888" stroke-opacity="1" fill="none" />
  <g transform="translate(15,25)"><text x="0" y="0" class="header">Language History</text></g>
  <g transform="translate(15,45)">
    <rect x="0" y="0" width="270" height="100" fill="#888" />
    <polygon points="0,12 10,12 27,12 35,11 44,11 52,9 60,9 68,9 77,7 85,7 93,7 102,7 110,7 118,2 135,3 143,3 152,3 161,3 170,3 178,3 186,3 195,3 203,3 211,3 220,3 228,2 236,2 245,2 253,2 261,2 270,2 270,100 0,100" fill="#fcb32c" />
    <polygon points="0,14 10,14 27,14 35,13 44,12 52,10 60,10 68,11 77,9 85,9 93,9 102,9 110,9 118,4 135,5 143,5 152,4 161,4 170,4 178,4 186,5 195,4 203,4 211,4 220,4 228,4 236,4 245,3 253,3 261,3 270,4 270,100 0,100" fill="#ff5a03" />
    <polygon points="0,17 10,17 27,17 35,16 44,15 52,13 60,13 68,13 77,12 85,12 93,12 102,12 110,12 118,6 135,7 143,9 152,9 161,9 170,9 178,9 186,9 195,9 203,9 211,9 220,9 228,8 236,8 245,8 253,8 261,8 270,8 270,100 0,100" fill="#3178c6" />
    <polygon points="0,21 10,21 27,20 35,19 44,18 52,16 60,16 68,16 77,15 85,14 93,15 102,15 110,15 118,9 135,11 143,14 152,14 161,15 170,15 178,15 186,15 195,15 203,15 211,15 220,15 228,14 236,13 245,14 253,14 261,15 270,13 270,100 0,100" fill="#3572A5" />
    <polygon points="0,40 10,40 27,40 35,38 44,35 52,33 60,33 68,33 77,32 85,32 93,32 102,32 110,32 118,29 135,31 143,33 152,33 161,33 170,33 178,33 186,33 195,33 203,34 211,34 220,34 228,34 236,34 245,35 253,34 261,35 270,34 270,100 0,100" fill="#dea584" />
    <polygon points="0,61 10,61 27,60 35,57 44,53 52,49 60,49 68,49 77,49 85,48 93,48 102,49 110,50 118,48 135,48 143,50 152,51 161,53 170,53 178,54 186,54 195,54 203,55 211,55 220,55 228,56 236,55 245,57 253,57 261,57 270,57 270,100 0,100" fill="#3D6117" />
  </g>
</svg>
