<svg width="300" height="160" viewBox="0 0 300 160" fill="none" role="img" xmlns="http://www.w3.org/2000/svg">
  <style>
    .header {font: 600 18px 'Segoe UI', Ubuntu, Sans-Serif; fill: #2f80ed; }
    .lang-name {font: 400 11px 'Segoe UI', Ubuntu, Sans-Serif; fill: #888; }
  </style>
  <rect x="0.5" y="0.5" rx="4.5" width="299" height="159" stroke="#888" stroke-opacity="1" fill="none" />
  <g transform="translate(15,25)"><text x="0" y="0" class="header">Language History</text></g>
  <g transform="translate(15,45)">
    <rect x="0" y="0" width="270" height="100" fill="#888" />
    <polygon points="0,12 8,12 22,12 28,11 35,11 42,9 49,9 55,9 62,7 69,7 75,7 82,7 89,7 96,2 109,3 116,3 122,3 130,3 137,3 144,3 150,3 157,3 164,3 171,3 177,3 184,2 191,2 197,2 204,2 211,2 218,2 223,3 230,3 243,5 249,9 270,2 270,100 0,100" fill="#fcb32c" />
    <polygon points="0,14 8,14 22,14 28,13 35,12 42,10 49,10 55,11 62,9 69,9 75,9 82,9 89,9 96,4 109,5 116,5 122,4 130,4 137,4 144,4 150,5 157,4 164,4 171,4 177,4 184,4 191,4 197,3 204,3 211,3 218,4 223,4 230,4 243,7 249,10 270,4 270,100 0,100" fill="#ff5a03" />
    <polygon points="0,17 8,17 22,17 28,16 35,15 42,13 49,13 55,13 62,12 69,12 75,12 82,12 89,12 96,6 109,7 116,9 122,9 130,9 137,9 144,9 150,9 157,9 164,9 171,9 177,9 184,8 191,8 197,8 204,8 211,8 218,8 223,8 230,8 243,11 249,15 270,8 270,100 0,100" fill="#3178c6" />
    <polygon points="0,21 8,21 22,20 28,19 35,18 42,16 49,16 55,16 62,15 69,14 75,15 82,15 89,15 96,9 109,11 116,14 122,14 130,15 137,15 144,15 150,15 157,15 164,15 171,15 177,15 184,14 191,13 197,14 204,14 211,15 218,13 223,14 230,15 243,17 249,20 270,16 270,100 0,100" fill="#dea584" />
    <polygon points="0,41 8,41 22,40 28,38 35,35 42,32 49,32 55,32 62,32 69,30 75,30 82,31 89,32 96,28 109,29 116,31 122,32 130,35 137,35 144,36 150,37 157,37 164,36 171,36 177,36 184,36 191,35 197,36 204,36 211,37 218,36 223,36 230,36 243,34 249,35 270,33 270,100 0,100" fill="#3572A5" />
    <polygon points="0,61 8,61 22,60 28,57 35,53 42,49 49,49 55,50 62,49 69,48 75,48 82,49 89,50 96,48 109,48 116,51 122,51 130,53 137,53 144,54 150,54 157,54 164,55 171,55 177,55 184,56 191,56 197,57 204,57 211,57 218,57 223,57 230,57 243,55 249,56 270,54 270,100 0,100" fill="#3D6117" />
  </g>
</svg>
