<svg width="300" height="160" viewBox="0 0 300 160" fill="none" role="img" xmlns="http://www.w3.org/2000/svg">
  <style>
    .header {font: 600 18px 'Segoe UI', Ubuntu, Sans-Serif; fill: #2f80ed; }
    .lang-name {font: 400 11px 'Segoe UI', Ubuntu, Sans-Serif; fill: #888; }
  </style>
  <rect x="0.5" y="0.5" rx="4.5" width="299" height="159" stroke="#888" stroke-opacity="1" fill="none" />
  <g transform="translate(15,25)"><text x="0" y="0" class="header">Language History</text></g>
  <g transform="translate(15,45)">
    <rect x="0" y="0" width="270" height="100" fill="#888" />
    <polygon points="0,12 17,12 45,12 59,11 73,11 87,9 101,9 115,9 129,7 142,7 156,7 170,7 184,7 198,2 226,3 240,3 254,3 270,3 270,100 0,100" fill="#fcb32c" />
    <polygon points="0,14 17,14 45,14 59,13 73,12 87,10 101,10 115,11 129,9 142,9 156,9 170,9 184,9 198,4 226,5 240,5 254,4 270,4 270,100 0,100" fill="#ff5a03" />
    <polygon points="0,17 17,17 45,17 59,16 73,15 87,13 101,13 115,13 129,12 142,12 156,12 170,12 184,12 198,6 226,7 240,9 254,9 270,9 270,100 0,100" fill="#3178c6" />
    <polygon points="0,21 17,21 45,20 59,19 73,18 87,16 101,16 115,16 129,15 142,14 156,15 170,15 184,15 198,9 226,11 240,14 254,14 270,15 270,100 0,100" fill="#3572A5" />
    <polygon points="0,40 17,40 45,40 59,38 73,35 87,33 101,33 115,33 129,32 142,32 156,32 170,32 184,32 198,29 226,31 240,33 254,33 270,33 270,100 0,100" fill="#dea584" />
    <polygon points="0,61 17,61 45,60 59,57 73,53 87,49 101,49 115,49 129,49 142,48 156,48 170,49 184,50 198,48 226,48 240,50 254,51 270,53 270,100 0,100" fill="#3D6117" />
  </g>
</svg>
