<svg width="300" height="160" viewBox="0 0 300 160" fill="none" role="img" xmlns="http://www.w3.org/2000/svg">
  <style>
    .header {font: 600 18px 'Segoe UI', Ubuntu, Sans-Serif; fill: #2f80ed; }
    .lang-name {font: 400 11px 'Segoe UI', Ubuntu, Sans-Serif; fill: #888; }
  </style>
  <rect x="0.5" y="0.5" rx="4.5" width="299" height="159" stroke="#888" stroke-opacity="1" fill="none" />
  <g transform="translate(15,25)"><text x="0" y="0" class="header">Language History</text></g>
  <g transform="translate(15,45)">
    <rect x="0" y="0" width="270" height="100" fill="#888" />
    <polygon points="0,17 3,17 8,17 10,16 13,15 15,13 18,13 21,13 23,12 26,12 28,12 31,12 33,12 36,6 41,7 43,9 46,9 49,9 51,9 54,9 57,9 59,9 62,9 64,9 67,9 69,8 72,8 74,8 77,8 79,8 82,8 84,8 87,8 91,11 94,15 102,8 104,9 107,8 109,8 112,8 114,8 117,5 122,5 125,6 127,6 135,6 140,6 142,6 145,6 147,6 152,6 163,6 165,6 175,6 178,6 180,6 188,6 191,5 193,5 208,6 211,6 214,6 216,6 219,6 221,6 224,5 226,6 234,5 242,6 247,6 249,6 252,6 254,5 257,5 259,5 262,5 264,5 270,5 270,100 0,100" fill="#ff3e00" />
    <polygon points="0,17 3,17 8,17 10,16 13,15 15,13 18,13 21,13 23,12 26,12 28,12 31,12 33,12 36,6 41,7 43,9 46,9 49,9 51,9 54,9 57,9 59,9 62,9 64,9 67,9 69,8 72,8 74,8 77,8 79,8 82,8 84,8 87,8 91,11 94,15 102,8 104,9 107,8 109,8 112,8 114,8 117,8 122,10 125,11 127,11 135,11 140,12 142,10 145,10 147,10 152,10 163,10 165,10 175,10 178,9 180,9 188,9 191,9 193,9 208,9 211,10 214,9 216,10 219,10 221,11 224,10 226,11 234,11 242,12 247,11 249,11 252,11 254,10 257,9 259,9 262,10 264,10 270,10 270,100 0,100" fill="#3178c6" />
    <polygon points="0,21 3,21 8,20 10,19 13,18 15,16 18,16 21,16 23,15 26,14 28,15 31,15 33,15 36,9 41,11 43,14 46,14 49,15 51,15 54,15 57,15 59,15 62,15 64,15 67,15 69,14 72,13 74,14 77,14 79,15 82,13 84,14 87,15 91,17 94,20 102,16 104,18 107,17 109,18 112,19 114,19 117,20 122,16 125,18 127,18 135,18 140,18 142,15 145,15 147,15 152,15 163,15 165,14 175,14 178,14 180,14 188,14 191,13 193,13 208,13 211,14 214,15 216,15 219,16 221,16 224,15 226,16 234,16 242,17 247,17 249,17 252,17 254,16 257,14 259,14 262,16 264,16 270,15 270,100 0,100" fill="#239dad" />
    <polygon points="0,21 3,21 8,20 10,19 13,18 15,16 18,16 21,16 23,15 26,14 28,15 31,15 33,15 36,9 41,11 43,14 46,14 49,15 51,15 54,15 57,15 59,15 62,15 64,15 67,15 69,14 72,13 74,14 77,14 79,15 82,13 84,14 87,15 91,17 94,20 102,16 104,18 107,17 109,18 112,19 114,19 117,20 122,16 125,18 127,18 135,18 140,18 142,15 145,15 147,15 152,15 163,15 165,14 175,14 178,14 180,14 188,14 191,13 193,13 208,13 211,14 214,28 216,28 219,29 221,29 224,28 226,29 234,29 242,31 247,31 249,31 252,31 254,30 257,28 259,28 262,30 264,30 270,30 270,100 0,100" fill="#3572A5" />
    <polygon points="0,40 3,40 8,40 10,38 13,35 15,33 18,33 21,33 23,32 26,32 28,32 31,32 33,32 36,29 41,31 43,33 46,33 49,33 51,33 54,33 57,33 59,33 62,34 64,34 67,34 69,34 72,34 74,35 77,34 79,35 82,34 84,35 87,35 91,38 94,40 102,38 104,39 107,39 109,39 112,39 114,40 117,40 122,37 125,37 127,38 135,37 140,38 142,35 145,35 147,35 152,34 163,34 165,34 175,34 178,33 180,32 188,32 191,31 193,31 208,31 211,33 214,46 216,46 219,46 221,46 224,46 226,46 234,46 242,51 247,50 249,50 252,50 254,50 257,48 259,48 262,49 264,50 270,50 270,100 0,100" fill="#dea584" />
    <polygon points="0,61 3,61 8,60 10,57 13,53 15,49 18,49 21,49 23,49 26,48 28,48 31,49 33,50 36,48 41,48 43,50 46,51 49,53 51,53 54,54 57,54 59,54 62,55 64,55 67,55 69,56 72,55 74,57 77,57 79,57 82,57 84,57 87,57 91,55 94,56 102,54 104,55 107,55 109,55 112,55 114,56 117,56 122,57 125,58 127,58 135,58 140,58 142,57 145,57 147,58 152,58 163,58 165,58 175,59 178,60 180,61 188,61 191,62 193,62 208,62 211,60 214,73 216,74 219,74 221,74 224,74 226,75 234,75 242,72 247,72 249,72 252,72 254,72 257,71 259,71 262,72 264,72 270,72 270,100 0,100" fill="#3D6117" />
  </g>
</svg>
