<svg width="300" height="160" viewBox="0 0 300 160" fill="none" role="img" xmlns="http://www.w3.org/2000/svg">
  <style>
    .header {font: 600 18px 'Segoe UI', Ubuntu, Sans-Serif; fill: #2f80ed; }
    .lang-name {font: 400 11px 'Segoe UI', Ubuntu, Sans-Serif; fill: #888; }
  </style>
  <rect x="0.5" y="0.5" rx="4.5" width="299" height="159" stroke="#888" stroke-opacity="1" fill="none" />
  <g transform="translate(15,25)"><text x="0" y="0" class="header">Language History</text></g>
  <g transform="translate(15,45)">
    <rect x="0" y="0" width="270" height="100" fill="#888" />
    <polygon points="0,12 7,12 20,12 26,11 32,11 38,9 44,9 50,9 56,7 62,7 69,7 75,7 81,7 87,2 99,3 105,3 111,3 118,3 124,3 131,3 137,3 143,3 149,3 155,3 161,3 167,2 173,2 180,2 186,2 192,2 198,2 203,3 209,3 221,5 227,9 245,2 251,3 257,2 263,2 270,2 270,100 0,100" fill="#fcb32c" />
    <polygon points="0,14 7,14 20,14 26,13 32,12 38,10 44,10 50,11 56,9 62,9 69,9 75,9 81,9 87,4 99,5 105,5 111,4 118,4 124,4 131,4 137,5 143,4 149,4 155,4 161,4 167,4 173,4 180,3 186,3 192,3 198,4 203,4 209,4 221,7 227,10 245,4 251,5 257,4 263,4 270,4 270,100 0,100" fill="#ff5a03" />
    <polygon points="0,17 7,17 20,17 26,16 32,15 38,13 44,13 50,13 56,12 62,12 69,12 75,12 81,12 87,6 99,7 105,9 111,9 118,9 124,9 131,9 137,9 143,9 149,9 155,9 161,9 167,8 173,8 180,8 186,8 192,8 198,8 203,8 209,8 221,11 227,15 245,8 251,9 257,8 263,8 270,8 270,100 0,100" fill="#3178c6" />
    <polygon points="0,21 7,21 20,20 26,19 32,18 38,16 44,16 50,16 56,15 62,14 69,15 75,15 81,15 87,9 99,11 105,14 111,14 118,15 124,15 131,15 137,15 143,15 149,15 155,15 161,15 167,14 173,13 180,14 186,14 192,15 198,13 203,14 209,15 221,17 227,20 245,16 251,18 257,17 263,18 270,19 270,100 0,100" fill="#dea584" />
    <polygon points="0,41 7,41 20,40 26,38 32,35 38,32 44,32 50,32 56,32 62,30 69,30 75,31 81,32 87,28 99,29 105,31 111,32 118,35 124,35 131,36 137,37 143,37 149,36 155,36 161,36 167,36 173,35 180,36 186,36 192,37 198,36 203,36 209,36 221,34 227,35 245,33 251,34 257,34 263,34 270,35 270,100 0,100" fill="#3572A5" />
    <polygon points="0,61 7,61 20,60 26,57 32,53 38,49 44,49 50,50 56,49 62,48 69,48 75,49 81,50 87,48 99,48 105,51 111,51 118,53 124,53 131,54 137,54 143,54 149,55 155,55 161,55 167,56 173,56 180,57 186,57 192,57 198,57 203,57 209,57 221,55 227,56 245,54 251,55 257,55 263,55 270,55 270,100 0,100" fill="#3D6117" />
  </g>
</svg>
