<svg width="300" height="160" viewBox="0 0 300 160" fill="none" role="img" xmlns="http://www.w3.org/2000/svg">
  <style>
    .header {font: 600 18px 'Segoe UI', Ubuntu, Sans-Serif; fill: #2f80ed; }
    .lang-name {font: 400 11px 'Segoe UI', Ubuntu, Sans-Serif; fill: #888; }
  </style>
  <rect x="0.5" y="0.5" rx="4.5" width="299" height="159" stroke="#888" stroke-opacity="1" fill="none" />
  <g transform="translate(15,25)"><text x="0" y="0" class="header">Language History</text></g>
  <g transform="translate(15,45)">
    <rect x="0" y="0" width="270" height="100" fill="#888" />
    <polygon points="0,14 9,14 24,14 32,13 39,12 46,10 54,10 61,11 69,9 76,9 84,9 91,9 99,9 106,4 121,5 129,5 136,4 145,4 152,4 160,4 167,5 175,4 182,4 189,4 197,4 204,4 212,4 219,3 227,3 234,3 242,4 248,4 256,4 270,3 270,100 0,100" fill="#00B4AB" />
    <polygon points="0,14 9,14 24,14 32,13 39,12 46,10 54,10 61,11 69,9 76,9 84,9 91,9 99,9 106,4 121,5 129,5 136,4 145,4 152,4 160,4 167,5 175,4 182,4 189,4 197,4 204,4 212,4 219,3 227,3 234,3 242,4 248,4 256,4 270,7 270,100 0,100" fill="#ff5a03" />
    <polygon points="0,17 9,17 24,17 32,16 39,15 46,13 54,13 61,13 69,12 76,12 84,12 91,12 99,12 106,6 121,7 129,9 136,9 145,9 152,9 160,9 167,9 175,9 182,9 189,9 197,9 204,8 212,8 219,8 227,8 234,8 242,8 248,8 256,8 270,11 270,100 0,100" fill="#3178c6" />
    <polygon points="0,21 9,21 24,20 32,19 39,18 46,16 54,16 61,16 69,15 76,14 84,15 91,15 99,15 106,9 121,11 129,14 136,14 145,15 152,15 160,15 167,15 175,15 182,15 189,15 197,15 204,14 212,13 219,14 227,14 234,15 242,13 248,14 256,15 270,17 270,100 0,100" fill="#dea584" />
    <polygon points="0,41 9,41 24,40 32,38 39,35 46,32 54,32 61,32 69,32 76,30 84,30 91,31 99,32 106,28 121,29 129,31 136,32 145,35 152,35 160,36 167,37 175,37 182,36 189,36 197,36 204,36 212,35 219,36 227,36 234,37 242,36 248,36 256,36 270,34 270,100 0,100" fill="#3572A5" />
    <polygon points="0,61 9,61 24,60 32,57 39,53 46,49 54,49 61,50 69,49 76,48 84,48 91,49 99,50 106,48 121,48 129,51 136,51 145,53 152,53 160,54 167,54 175,54 182,55 189,55 197,55 204,56 212,56 219,57 227,57 234,57 242,57 248,57 256,57 270,55 270,100 0,100" fill="#3D6117" />
  </g>
</svg>
