<svg width="300" height="160" viewBox="0 0 300 160" fill="none" role="img" xmlns="http://www.w3.org/2000/svg">
  <style>
    .header {font: 600 18px 'Segoe UI', Ubuntu, Sans-Serif; fill: #2f80ed; }
    .lang-name {font: 400 11px 'Segoe UI', Ubuntu, Sans-Serif; fill: #888; }
  </style>
  <rect x="0.5" y="0.5" rx="4.5" width="299" height="159" stroke="#888" stroke-opacity="1" fill="none" />
  <g transform="translate(15,25)"><text x="0" y="0" class="header">Language History</text></g>
  <g transform="translate(15,45)">
    <rect x="0" y="0" width="270" height="100" fill="#888" />
    <polygon points="0,12 21,12 23,12 54,12 71,11 87,11 104,9 120,9 137,9 153,7 170,7 187,7 203,7 220,7 236,2 270,3 270,100 0,100" fill="#fcb32c" />
    <polygon points="0,14 21,14 23,14 54,14 71,13 87,12 104,10 120,10 137,11 153,9 170,9 187,9 203,9 220,9 236,4 270,5 270,100 0,100" fill="#ff5a03" />
    <polygon points="0,17 21,17 23,17 54,17 71,16 87,15 104,13 120,13 137,13 153,12 170,12 187,12 203,12 220,12 236,6 270,7 270,100 0,100" fill="#3178c6" />
    <polygon points="0,21 21,21 23,21 54,20 71,19 87,18 104,16 120,16 137,16 153,15 170,14 187,15 203,15 220,15 236,9 270,11 270,100 0,100" fill="#dea584" />
    <polygon points="0,41 21,41 23,41 54,40 71,38 87,35 104,32 120,32 137,32 153,32 170,30 187,30 203,31 220,32 236,28 270,29 270,100 0,100" fill="#3572A5" />
    <polygon points="0,61 21,61 23,60 54,60 71,57 87,53 104,49 120,49 137,50 153,49 170,48 187,48 203,49 220,50 236,48 270,48 270,100 0,100" fill="#3D6117" />
  </g>
</svg>
