<svg width="300" height="160" viewBox="0 0 300 160" fill="none" role="img" xmlns="http://www.w3.org/2000/svg">
  <style>
    .header {font: 600 18px 'Segoe UI', Ubuntu, Sans-Serif; fill: #2f80ed; }
    .lang-name {font: 400 11px 'Segoe UI', Ubuntu, Sans-Serif; fill: #888; }
  </style>
  <rect x="0.5" y="0.5" rx="4.5" width="299" height="159" stroke="#888" stroke-opacity="1" fill="none" />
  <g transform="translate(15,25)"><text x="0" y="0" class="header">Language History</text></g>
  <g transform="translate(15,45)">
    <rect x="0" y="0" width="270" height="100" fill="#888" />
    <polygon points="0,12 12,12 31,12 40,11 50,11 59,9 69,9 78,9 88,7 97,7 107,7 116,7 126,7 135,2 154,3 164,3 173,3 184,3 194,3 203,3 213,3 222,3 232,3 241,3 251,3 260,2 270,2 270,100 0,100" fill="#fcb32c" />
    <polygon points="0,14 12,14 31,14 40,13 50,12 59,10 69,10 78,11 88,9 97,9 107,9 116,9 126,9 135,4 154,5 164,5 173,4 184,4 194,4 203,4 213,5 222,4 232,4 241,4 251,4 260,4 270,4 270,100 0,100" fill="#ff5a03" />
    <polygon points="0,17 12,17 31,17 40,16 50,15 59,13 69,13 78,13 88,12 97,12 107,12 116,12 126,12 135,6 154,7 164,9 173,9 184,9 194,9 203,9 213,9 222,9 232,9 241,9 251,9 260,8 270,8 270,100 0,100" fill="#3178c6" />
    <polygon points="0,21 12,21 31,20 40,19 50,18 59,16 69,16 78,16 88,15 97,14 107,15 116,15 126,15 135,9 154,11 164,14 173,14 184,15 194,15 203,15 213,15 222,15 232,15 241,15 251,15 260,14 270,13 270,100 0,100" fill="#3572A5" />
    <polygon points="0,40 12,40 31,40 40,38 50,35 59,33 69,33 78,33 88,32 97,32 107,32 116,32 126,32 135,29 154,31 164,33 173,33 184,33 194,33 203,33 213,33 222,33 232,34 241,34 251,34 260,34 270,34 270,100 0,100" fill="#dea584" />
    <polygon points="0,61 12,61 31,60 40,57 50,53 59,49 69,49 78,49 88,49 97,48 107,48 116,49 126,50 135,48 154,48 164,50 173,51 184,53 194,53 203,54 213,54 222,54 232,55 241,55 251,55 260,56 270,55 270,100 0,100" fill="#3D6117" />
  </g>
</svg>
