<svg width="300" height="160" viewBox="0 0 300 160" fill="none" role="img" xmlns="http://www.w3.org/2000/svg">
  <style>
    .header {font: 600 18px 'Segoe UI', Ubuntu, Sans-Serif; fill: #2f80ed; }
    .lang-name {font: 400 11px 'Segoe UI', Ubuntu, Sans-Serif; fill: #888; }
  </style>
  <rect x="0.5" y="0.5" rx="4.5" width="299" height="159" stroke="#888" stroke-opacity="1" fill="none" />
  <g transform="translate(15,25)"><text x="0" y="0" class="header">Language History</text></g>
  <g transform="translate(15,45)">
    <rect x="0" y="0" width="270" height="100" fill="#888" />
    <polygon points="0,12 10,12 25,12 33,11 41,11 49,9 57,9 65,9 73,7 81,7 88,7 96,7 104,7 112,2 128,3 136,3 144,3 153,3 160,3 168,3 176,3 184,3 192,3 200,3 208,3 216,2 223,2 231,2 239,2 247,2 255,2 262,3 270,2 270,100 0,100" fill="#fcb32c" />
    <polygon points="0,14 10,14 25,14 33,13 41,12 49,10 57,10 65,11 73,9 81,9 88,9 96,9 104,9 112,4 128,5 136,5 144,4 153,4 160,4 168,4 176,5 184,4 192,4 200,4 208,4 216,4 223,4 231,3 239,3 247,3 255,4 262,4 270,4 270,100 0,100" fill="#ff5a03" />
    <polygon points="0,17 10,17 25,17 33,16 41,15 49,13 57,13 65,13 73,12 81,12 88,12 96,12 104,12 112,6 128,7 136,9 144,9 153,9 160,9 168,9 176,9 184,9 192,9 200,9 208,9 216,8 223,8 231,8 239,8 247,8 255,8 262,8 270,8 270,100 0,100" fill="#3178c6" />
    <polygon points="0,21 10,21 25,20 33,19 41,18 49,16 57,16 65,16 73,15 81,14 88,15 96,15 104,15 112,9 128,11 136,14 144,14 153,15 160,15 168,15 176,15 184,15 192,15 200,15 208,15 216,14 223,13 231,14 239,14 247,15 255,13 262,14 270,15 270,100 0,100" fill="#3572A5" />
    <polygon points="0,40 10,40 25,40 33,38 41,35 49,33 57,33 65,33 73,32 81,32 88,32 96,32 104,32 112,29 128,31 136,33 144,33 153,33 160,33 168,33 176,33 184,33 192,34 200,34 208,34 216,34 223,34 231,35 239,34 247,35 255,34 262,35 270,35 270,100 0,100" fill="#dea584" />
    <polygon points="0,61 10,61 25,60 33,57 41,53 49,49 57,49 65,49 73,49 81,48 88,48 96,49 104,50 112,48 128,48 136,50 144,51 153,53 160,53 168,54 176,54 184,54 192,55 200,55 208,55 216,56 223,55 231,57 239,57 247,57 255,57 262,57 270,57 270,100 0,100" fill="#3D6117" />
  </g>
</svg>
