<svg width="300" height="160" viewBox="0 0 300 160" fill="none" role="img" xmlns="http://www.w3.org/2000/svg">
  <style>
    .header {font: 600 18px 'Segoe UI', Ubuntu, Sans-Serif; fill: #2f80ed; }
    .lang-name {font: 400 11px 'Segoe UI', Ubuntu, Sans-Serif; fill: #888; }
  </style>
  <rect x="0.5" y="0.5" rx="4.5" width="299" height="159" stroke="#888" stroke-opacity="1" fill="none" />
  <g transform="translate(15,25)"><text x="0" y="0" class="header">Language History</text></g>
  <g transform="translate(15,45)">
    <rect x="0" y="0" width="270" height="100" fill="#888" />
    <polygon points="0,14 7,14 19,14 25,13 30,12 36,10 42,10 48,11 54,9 60,9 66,9 71,9 77,9 83,4 95,5 101,5 106,4 113,4 119,4 125,4 131,5 137,4 142,4 148,4 154,4 160,4 166,4 172,3 178,3 183,3 189,4 194,4 200,4 211,7 217,10 234,4 240,5 246,4 252,4 258,4 264,4 270,2 270,100 0,100" fill="#ff5a03" />
    <polygon points="0,17 7,17 19,17 25,16 30,15 36,13 42,13 48,13 54,12 60,12 66,12 71,12 77,12 83,6 95,7 101,9 106,9 113,9 119,9 125,9 131,9 137,9 142,9 148,9 154,9 160,8 166,8 172,8 178,8 183,8 189,8 194,8 200,8 211,11 217,15 234,8 240,9 246,8 252,8 258,8 264,8 270,5 270,100 0,100" fill="#ff3e00" />
    <polygon points="0,17 7,17 19,17 25,16 30,15 36,13 42,13 48,13 54,12 60,12 66,12 71,12 77,12 83,6 95,7 101,9 106,9 113,9 119,9 125,9 131,9 137,9 142,9 148,9 154,9 160,8 166,8 172,8 178,8 183,8 189,8 194,8 200,8 211,11 217,15 234,8 240,9 246,8 252,8 258,8 264,8 270,8 270,100 0,100" fill="#3178c6" />
    <polygon points="0,21 7,21 19,20 25,19 30,18 36,16 42,16 48,16 54,15 60,14 66,15 71,15 77,15 83,9 95,11 101,14 106,14 113,15 119,15 125,15 131,15 137,15 142,15 148,15 154,15 160,14 166,13 172,14 178,14 183,15 189,13 194,14 200,15 211,17 217,20 234,16 240,18 246,17 252,18 258,19 264,19 270,20 270,100 0,100" fill="#dea584" />
    <polygon points="0,41 7,41 19,40 25,38 30,35 36,32 42,32 48,32 54,32 60,30 66,30 71,31 77,32 83,28 95,29 101,31 106,32 113,35 119,35 125,36 131,37 137,37 142,36 148,36 154,36 160,36 166,35 172,36 178,36 183,37 189,36 194,36 200,36 211,34 217,35 234,33 240,34 246,34 252,34 258,35 264,35 270,35 270,100 0,100" fill="#3572A5" />
    <polygon points="0,61 7,61 19,60 25,57 30,53 36,49 42,49 48,50 54,49 60,48 66,48 71,49 77,50 83,48 95,48 101,51 106,51 113,53 119,53 125,54 131,54 137,54 142,55 148,55 154,55 160,56 166,56 172,57 178,57 183,57 189,57 194,57 200,57 211,55 217,56 234,54 240,55 246,55 252,55 258,55 264,56 270,56 270,100 0,100" fill="#3D6117" />
  </g>
</svg>
