<svg width="300" height="160" viewBox="0 0 300 160" fill="none" role="img" xmlns="http://www.w3.org/2000/svg">
  <style>
    .header {font: 600 18px 'Segoe UI', Ubuntu, Sans-Serif; fill: #2f80ed; }
    .lang-name {font: 400 11px 'Segoe UI', Ubuntu, Sans-Serif; fill: #888; }
  </style>
  <rect x="0.5" y="0.5" rx="4.5" width="299" height="159" stroke="#888" stroke-opacity="1" fill="none" />
  <g transform="translate(15,25)"><text x="0" y="0" class="header">Language History</text></g>
  <g transform="translate(15,45)">
    <rect x="0" y="0" width="270" height="100" fill="#888" />
    <polygon points="0,12 11,12 30,12 39,11 48,11 57,9 66,9 76,9 85,7 94,7 103,7 112,7 121,7 131,2 149,3 158,3 167,3 178,3 187,3 196,3 205,3 214,3 224,3 233,3 242,3 251,2 260,2 270,2 270,100 0,100" fill="#fcb32c" />
    <polygon points="0,14 11,14 30,14 39,13 48,12 57,10 66,10 76,11 85,9 94,9 103,9 112,9 121,9 131,4 149,5 158,5 167,4 178,4 187,4 196,4 205,5 214,4 224,4 233,4 242,4 251,4 260,4 270,3 270,100 0,100" fill="#ff5a03" />
    <polygon points="0,17 11,17 30,17 39,16 48,15 57,13 66,13 76,13 85,12 94,12 103,12 112,12 121,12 131,6 149,7 158,9 167,9 178,9 187,9 196,9 205,9 214,9 224,9 233,9 242,9 251,8 260,8 270,8 270,100 0,100" fill="#3178c6" />
    <polygon points="0,21 11,21 30,20 39,19 48,18 57,16 66,16 76,16 85,15 94,14 103,15 112,15 121,15 131,9 149,11 158,14 167,14 178,15 187,15 196,15 205,15 214,15 224,15 233,15 242,15 251,14 260,13 270,14 270,100 0,100" fill="#3572A5" />
    <polygon points="0,40 11,40 30,40 39,38 48,35 57,33 66,33 76,33 85,32 94,32 103,32 112,32 121,32 131,29 149,31 158,33 167,33 178,33 187,33 196,33 205,33 214,33 224,34 233,34 242,34 251,34 260,34 270,35 270,100 0,100" fill="#dea584" />
    <polygon points="0,61 11,61 30,60 39,57 48,53 57,49 66,49 76,49 85,49 94,48 103,48 112,49 121,50 131,48 149,48 158,50 167,51 178,53 187,53 196,54 205,54 214,54 224,55 233,55 242,55 251,56 260,55 270,57 270,100 0,100" fill="#3D6117" />
  </g>
</svg>
