<svg width="300" height="160" viewBox="0 0 300 160" fill="none" role="img" xmlns="http://www.w3.org/2000/svg">
  <style>
    .header {font: 600 18px 'Segoe UI', Ubuntu, Sans-Serif; fill: #2f80ed; }
    .lang-name {font: 400 11px 'Segoe UI', Ubuntu, Sans-Serif; fill: #888; }
  </style>
  <rect x="0.5" y="0.5" rx="4.5" width="299" height="159" stroke="#888" stroke-opacity="1" fill="none" />
  <g transform="translate(15,25)"><text x="0" y="0" class="header">Language History</text></g>
  <g transform="translate(15,45)">
    <rect x="0" y="0" width="270" height="100" fill="#888" />
    <polygon points="0,12 12,12 32,12 42,11 52,11 61,9 71,9 81,9 91,7 101,7 111,7 120,7 130,7 140,2 160,3 170,3 180,3 191,3 201,3 210,3 220,3 230,3 240,3 250,3 260,3 270,2 270,100 0,100" fill="#fcb32c" />
    <polygon points="0,14 12,14 32,14 42,13 52,12 61,10 71,10 81,11 91,9 101,9 111,9 120,9 130,9 140,4 160,5 170,5 180,4 191,4 201,4 210,4 220,5 230,4 240,4 250,4 260,4 270,4 270,100 0,100" fill="#ff5a03" />
    <polygon points="0,17 12,17 32,17 42,16 52,15 61,13 71,13 81,13 91,12 101,12 111,12 120,12 130,12 140,6 160,7 170,9 180,9 191,9 201,9 210,9 220,9 230,9 240,9 250,9 260,9 270,8 270,100 0,100" fill="#3178c6" />
    <polygon points="0,21 12,21 32,20 42,19 52,18 61,16 71,16 81,16 91,15 101,14 111,15 120,15 130,15 140,9 160,11 170,14 180,14 191,15 201,15 210,15 220,15 230,15 240,15 250,15 260,15 270,14 270,100 0,100" fill="#3572A5" />
    <polygon points="0,40 12,40 32,40 42,38 52,35 61,33 71,33 81,33 91,32 101,32 111,32 120,32 130,32 140,29 160,31 170,33 180,33 191,33 201,33 210,33 220,33 230,33 240,34 250,34 260,34 270,34 270,100 0,100" fill="#dea584" />
    <polygon points="0,61 12,61 32,60 42,57 52,53 61,49 71,49 81,49 91,49 101,48 111,48 120,49 130,50 140,48 160,48 170,50 180,51 191,53 201,53 210,54 220,54 230,54 240,55 250,55 260,55 270,56 270,100 0,100" fill="#3D6117" />
  </g>
</svg>
