<svg width="300" height="160" viewBox="0 0 300 160" fill="none" role="img" xmlns="http://www.w3.org/2000/svg">
  <style>
    .header {font: 600 18px 'Segoe UI', Ubuntu, Sans-Serif; fill: #2f80ed; }
    .lang-name {font: 400 11px 'Segoe UI', Ubuntu, Sans-Serif; fill: #888; }
  </style>
  <rect x="0.5" y="0.5" rx="4.5" width="299" height="159" stroke="#888" stroke-opacity="1" fill="none" />
  <g transform="translate(15,25)"><text x="0" y="0" class="header">Language History</text></g>
  <g transform="translate(15,45)">
    <rect x="0" y="0" width="270" height="100" fill="#888" />
    <polygon points="0,14 6,14 15,14 20,13 24,12 29,10 34,10 39,11 43,9 48,9 53,9 58,9 62,9 67,4 76,5 81,5 86,4 91,4 96,4 101,4 105,5 110,4 115,4 120,4 124,4 129,4 134,4 139,3 143,3 148,3 153,4 157,4 162,4 170,7 175,10 189,4 194,5 199,4 203,4 208,4 213,4 218,2 227,3 232,3 236,3 251,3 260,4 265,3 270,4 270,100 0,100" fill="#ff5a03" />
    <polygon points="0,17 6,17 15,17 20,16 24,15 29,13 34,13 39,13 43,12 48,12 53,12 58,12 62,12 67,6 76,7 81,9 86,9 91,9 96,9 101,9 105,9 110,9 115,9 120,9 124,9 129,8 134,8 139,8 143,8 148,8 153,8 157,8 162,8 170,11 175,15 189,8 194,9 199,8 203,8 208,8 213,8 218,5 227,5 232,6 236,6 251,6 260,6 265,6 270,6 270,100 0,100" fill="#ff3e00" />
    <polygon points="0,17 6,17 15,17 20,16 24,15 29,13 34,13 39,13 43,12 48,12 53,12 58,12 62,12 67,6 76,7 81,9 86,9 91,9 96,9 101,9 105,9 110,9 115,9 120,9 124,9 129,8 134,8 139,8 143,8 148,8 153,8 157,8 162,8 170,11 175,15 189,8 194,9 199,8 203,8 208,8 213,8 218,8 227,10 232,11 236,11 251,11 260,12 265,10 270,10 270,100 0,100" fill="#3178c6" />
    <polygon points="0,21 6,21 15,20 20,19 24,18 29,16 34,16 39,16 43,15 48,14 53,15 58,15 62,15 67,9 76,11 81,14 86,14 91,15 96,15 101,15 105,15 110,15 115,15 120,15 124,15 129,14 134,13 139,14 143,14 148,15 153,13 157,14 162,15 170,17 175,20 189,16 194,18 199,17 203,18 208,19 213,19 218,20 227,16 232,18 236,18 251,18 260,18 265,15 270,15 270,100 0,100" fill="#3572A5" />
    <polygon points="0,40 6,40 15,40 20,38 24,35 29,33 34,33 39,33 43,32 48,32 53,32 58,32 62,32 67,29 76,31 81,33 86,33 91,33 96,33 101,33 105,33 110,33 115,34 120,34 124,34 129,34 134,34 139,35 143,34 148,35 153,34 157,35 162,35 170,38 175,40 189,38 194,39 199,39 203,39 208,39 213,40 218,40 227,37 232,37 236,38 251,37 260,38 265,35 270,35 270,100 0,100" fill="#dea584" />
    <polygon points="0,61 6,61 15,60 20,57 24,53 29,49 34,49 39,49 43,49 48,48 53,48 58,49 62,50 67,48 76,48 81,50 86,51 91,53 96,53 101,54 105,54 110,54 115,55 120,55 124,55 129,56 134,55 139,57 143,57 148,57 153,57 157,57 162,57 170,55 175,56 189,54 194,55 199,55 203,55 208,55 213,56 218,56 227,57 232,58 236,58 251,58 260,58 265,57 270,57 270,100 0,100" fill="#3D6117" />
  </g>
</svg>
