<svg width="300" height="160" viewBox="0 0 300 160" fill="none" role="img" xmlns="http://www.w3.org/2000/svg">
  <style>
    .header {font: 600 18px 'Segoe UI', Ubuntu, Sans-Serif; fill: #2f80ed; }
    .lang-name {font: 400 11px 'Segoe UI', Ubuntu, Sans-Serif; fill: #888; }
  </style>
  <rect x="0.5" y="0.5" rx="4.5" width="299" height="159" stroke="#888" stroke-opacity="1" fill="none" />
  <g transform="translate(15,25)"><text x="0" y="0" class="header">Language History</text></g>
  <g transform="translate(15,45)">
    <rect x="0" y="0" width="270" height="100" fill="#888" />
    <polygon points="0,7 26,6 29,6 66,6 87,6 107,6 127,5 148,5 168,5 188,4 209,4 229,4 249,4 270,4 270,100 0,100" fill="#3178c6" />
    <polygon points="0,10 26,10 29,10 66,10 87,10 107,9 127,8 148,8 168,8 188,7 209,5 229,6 249,6 270,6 270,100 0,100" fill="#ff5a03" />
    <polygon points="0,13 26,13 29,13 66,13 87,12 107,11 127,10 148,11 168,10 188,10 209,9 229,9 249,10 270,10 270,100 0,100" fill="#f1e05a" />
    <polygon points="0,21 26,21 29,21 66,20 87,19 107,18 127,16 148,16 168,16 188,15 209,14 229,15 249,15 270,15 270,100 0,100" fill="#3572A5" />
    <polygon points="0,40 26,40 29,40 66,40 87,38 107,35 127,33 148,33 168,33 188,32 209,32 229,32 249,32 270,32 270,100 0,100" fill="#dea584" />
    <polygon points="0,61 26,61 29,60 66,60 87,57 107,53 127,49 148,49 168,49 188,49 209,48 229,48 249,49 270,50 270,100 0,100" fill="#3D6117" />
  </g>
</svg>
