<svg width="300" height="160" viewBox="0 0 300 160" fill="none" role="img" xmlns="http://www.w3.org/2000/svg">
  <style>
    .header {font: 600 18px 'Segoe UI', Ubuntu, Sans-Serif; fill: #2f80ed; }
    .lang-name {font: 400 11px 'Segoe UI', Ubuntu, Sans-Serif; fill: #888; }
  </style>
  <rect x="0.5" y="0.5" rx="4.5" width="299" height="159" stroke="#888" stroke-opacity="1" fill="none" />
  <g transform="translate(15,25)"><text x="0" y="0" class="header">Language History</text></g>
  <g transform="translate(15,45)">
    <rect x="0" y="0" width="270" height="100" fill="#888" />
    <polygon points="0,7 28,6 31,6 72,6 94,6 116,6 138,5 160,5 182,5 204,4 226,4 248,4 270,4 270,100 0,100" fill="#3178c6" />
    <polygon points="0,10 28,10 31,10 72,10 94,10 116,9 138,8 160,8 182,8 204,7 226,5 248,6 270,6 270,100 0,100" fill="#ff5a03" />
    <polygon points="0,13 28,13 31,13 72,13 94,12 116,11 138,10 160,11 182,10 204,10 226,9 248,9 270,10 270,100 0,100" fill="#f1e05a" />
    <polygon points="0,21 28,21 31,21 72,20 94,19 116,18 138,16 160,16 182,16 204,15 226,14 248,15 270,15 270,100 0,100" fill="#dea584" />
    <polygon points="0,41 28,41 31,41 72,40 94,38 116,35 138,32 160,32 182,32 204,32 226,30 248,30 270,31 270,100 0,100" fill="#3572A5" />
    <polygon points="0,61 28,61 31,60 72,60 94,57 116,53 138,49 160,49 182,50 204,49 226,48 248,48 270,49 270,100 0,100" fill="#3D6117" />
  </g>
</svg>
