<svg width="300" height="160" viewBox="0 0 300 160" fill="none" role="img" xmlns="http://www.w3.org/2000/svg">
  <style>
    .header {font: 600 18px 'Segoe UI', Ubuntu, Sans-Serif; fill: #2f80ed; }
    .lang-name {font: 400 11px 'Segoe UI', Ubuntu, Sans-Serif; fill: #888; }
  </style>
  <rect x="0.5" y="0.5" rx="4.5" width="299" height="159" stroke="#888" stroke-opacity="1" fill="none" />
  <g transform="translate(15,25)"><text x="0" y="0" class="header">Language History</text></g>
  <g transform="translate(15,45)">
    <rect x="0" y="0" width="270" height="100" fill="#888" />
    <polygon points="0,14 5,14 14,14 19,13 23,12 28,10 32,10 37,11 41,9 46,9 50,9 55,9 59,9 64,4 73,5 77,5 82,4 87,4 91,4 96,4 100,5 105,4 109,4 114,4 118,4 123,4 127,4 132,3 136,3 141,3 145,4 149,4 153,4 162,7 166,10 180,4 184,5 189,4 193,4 198,4 202,4 207,2 216,3 220,3 225,3 238,3 247,4 252,3 256,4 261,4 270,3 270,100 0,100" fill="#ff5a03" />
    <polygon points="0,17 5,17 14,17 19,16 23,15 28,13 32,13 37,13 41,12 46,12 50,12 55,12 59,12 64,6 73,7 77,9 82,9 87,9 91,9 96,9 100,9 105,9 109,9 114,9 118,9 123,8 127,8 132,8 136,8 141,8 145,8 149,8 153,8 162,11 166,15 180,8 184,9 189,8 193,8 198,8 202,8 207,5 216,5 220,6 225,6 238,6 247,6 252,6 256,6 261,6 270,6 270,100 0,100" fill="#ff3e00" />
    <polygon points="0,17 5,17 14,17 19,16 23,15 28,13 32,13 37,13 41,12 46,12 50,12 55,12 59,12 64,6 73,7 77,9 82,9 87,9 91,9 96,9 100,9 105,9 109,9 114,9 118,9 123,8 127,8 132,8 136,8 141,8 145,8 149,8 153,8 162,11 166,15 180,8 184,9 189,8 193,8 198,8 202,8 207,8 216,10 220,11 225,11 238,11 247,12 252,10 256,10 261,10 270,10 270,100 0,100" fill="#3178c6" />
    <polygon points="0,21 5,21 14,20 19,19 23,18 28,16 32,16 37,16 41,15 46,14 50,15 55,15 59,15 64,9 73,11 77,14 82,14 87,15 91,15 96,15 100,15 105,15 109,15 114,15 118,15 123,14 127,13 132,14 136,14 141,15 145,13 149,14 153,15 162,17 166,20 180,16 184,18 189,17 193,18 198,19 202,19 207,20 216,16 220,18 225,18 238,18 247,18 252,15 256,15 261,15 270,15 270,100 0,100" fill="#3572A5" />
    <polygon points="0,40 5,40 14,40 19,38 23,35 28,33 32,33 37,33 41,32 46,32 50,32 55,32 59,32 64,29 73,31 77,33 82,33 87,33 91,33 96,33 100,33 105,33 109,34 114,34 118,34 123,34 127,34 132,35 136,34 141,35 145,34 149,35 153,35 162,38 166,40 180,38 184,39 189,39 193,39 198,39 202,40 207,40 216,37 220,37 225,38 238,37 247,38 252,35 256,35 261,35 270,34 270,100 0,100" fill="#dea584" />
    <polygon points="0,61 5,61 14,60 19,57 23,53 28,49 32,49 37,49 41,49 46,48 50,48 55,49 59,50 64,48 73,48 77,50 82,51 87,53 91,53 96,54 100,54 105,54 109,55 114,55 118,55 123,56 127,55 132,57 136,57 141,57 145,57 149,57 153,57 162,55 166,56 180,54 184,55 189,55 193,55 198,55 202,56 207,56 216,57 220,58 225,58 238,58 247,58 252,57 256,57 261,58 270,58 270,100 0,100" fill="#3D6117" />
  </g>
</svg>
