<svg width="300" height="160" viewBox="0 0 300 160" fill="none" role="img" xmlns="http://www.w3.org/2000/svg">
  <style>
    .header {font: 600 18px 'Segoe UI', Ubuntu, Sans-Serif; fill: #2f80ed; }
    .lang-name {font: 400 11px 'Segoe UI', Ubuntu, Sans-Serif; fill: #888; }
  </style>
  <rect x="0.5" y="0.5" rx="4.5" width="299" height="159" stroke="#888" stroke-opacity="1" fill="none" />
  <g transform="translate(15,25)"><text x="0" y="0" class="header">Language History</text></g>
  <g transform="translate(15,45)">
    <rect x="0" y="0" width="270" height="100" fill="#888" />
    <polygon points="0,17 3,17 10,17 13,16 16,15 19,13 22,13 25,13 28,12 31,12 34,12 38,12 41,12 44,6 50,7 53,9 56,9 60,9 63,9 66,9 69,9 72,9 75,9 78,9 81,9 84,8 88,8 91,8 94,8 97,8 100,8 103,8 106,8 111,11 115,15 124,8 127,9 130,8 133,8 136,8 139,8 142,5 149,5 152,6 155,6 164,6 170,6 173,6 177,6 180,6 186,6 198,6 201,6 214,6 217,6 220,6 229,6 232,5 235,5 254,6 257,6 260,6 263,6 266,6 270,6 270,100 0,100" fill="#3178c6" />
    <polygon points="0,21 3,21 10,20 13,19 16,18 19,16 22,16 25,16 28,15 31,14 34,15 38,15 41,15 44,9 50,11 53,14 56,14 60,15 63,15 66,15 69,15 72,15 75,15 78,15 81,15 84,14 88,13 91,14 94,14 97,15 100,13 103,14 106,15 111,17 115,20 124,16 127,18 130,17 133,18 136,19 139,19 142,16 149,12 152,13 155,13 164,12 170,12 173,11 177,11 180,11 186,11 198,11 201,10 214,10 217,10 220,10 229,10 232,10 235,10 254,10 257,11 260,11 263,11 266,11 270,10 270,100 0,100" fill="#ff3e00" />
    <polygon points="0,21 3,21 10,20 13,19 16,18 19,16 22,16 25,16 28,15 31,14 34,15 38,15 41,15 44,9 50,11 53,14 56,14 60,15 63,15 66,15 69,15 72,15 75,15 78,15 81,15 84,14 88,13 91,14 94,14 97,15 100,13 103,14 106,15 111,17 115,20 124,16 127,18 130,17 133,18 136,19 139,19 142,20 149,16 152,18 155,18 164,18 170,18 173,15 177,15 180,15 186,15 198,15 201,14 214,14 217,14 220,14 229,14 232,13 235,13 254,13 257,14 260,15 263,15 266,16 270,16 270,100 0,100" fill="#239dad" />
    <polygon points="0,21 3,21 10,20 13,19 16,18 19,16 22,16 25,16 28,15 31,14 34,15 38,15 41,15 44,9 50,11 53,14 56,14 60,15 63,15 66,15 69,15 72,15 75,15 78,15 81,15 84,14 88,13 91,14 94,14 97,15 100,13 103,14 106,15 111,17 115,20 124,16 127,18 130,17 133,18 136,19 139,19 142,20 149,16 152,18 155,18 164,18 170,18 173,15 177,15 180,15 186,15 198,15 201,14 214,14 217,14 220,14 229,14 232,13 235,13 254,13 257,14 260,28 263,28 266,29 270,29 270,100 0,100" fill="#3572A5" />
    <polygon points="0,40 3,40 10,40 13,38 16,35 19,33 22,33 25,33 28,32 31,32 34,32 38,32 41,32 44,29 50,31 53,33 56,33 60,33 63,33 66,33 69,33 72,33 75,34 78,34 81,34 84,34 88,34 91,35 94,34 97,35 100,34 103,35 106,35 111,38 115,40 124,38 127,39 130,39 133,39 136,39 139,40 142,40 149,37 152,37 155,38 164,37 170,38 173,35 177,35 180,35 186,34 198,34 201,34 214,34 217,33 220,32 229,32 232,31 235,31 254,31 257,33 260,46 263,46 266,46 270,46 270,100 0,100" fill="#3D6117" />
    <polygon points="0,79 3,79 10,80 13,81 16,82 19,83 22,83 25,83 28,83 31,84 34,84 38,83 41,82 44,81 50,82 53,82 56,81 60,79 63,79 66,78 69,78 72,78 75,79 78,78 81,79 84,78 88,78 91,77 94,77 97,78 100,77 103,78 106,78 111,82 115,84 124,83 127,83 130,83 133,83 136,84 139,84 142,84 149,80 152,79 155,79 164,79 170,79 173,78 177,77 180,76 186,76 198,76 201,75 214,74 217,72 220,71 229,70 232,69 235,68 254,68 257,72 260,72 263,71 266,72 270,71 270,100 0,100" fill="#dea584" />
  </g>
</svg>
