<svg width="300" height="160" viewBox="0 0 300 160" fill="none" role="img" xmlns="http://www.w3.org/2000/svg">
  <style>
    .header {font: 600 18px 'Segoe UI', Ubuntu, Sans-Serif; fill: #2f80ed; }
    .lang-name {font: 400 11px 'Segoe UI', Ubuntu, Sans-Serif; fill: #888; }
  </style>
  <rect x="0.5" y="0.5" rx="4.5" width="299" height="159" stroke="#888" stroke-opacity="1" fill="none" />
  <g transform="translate(15,25)"><text x="0" y="0" class="header">Language History</text></g>
  <g transform="translate(15,45)">
    <rect x="0" y="0" width="270" height="100" fill="#888" />
    <polygon points="0,17 4,17 10,17 13,16 16,15 19,13 23,13 26,13 29,12 32,12 35,12 38,12 42,12 45,6 51,7 54,9 57,9 61,9 64,9 67,9 71,9 74,9 77,9 80,9 83,9 86,8 90,8 93,8 96,8 99,8 102,8 105,8 108,8 114,11 117,15 127,8 130,9 133,8 136,8 139,8 143,8 146,5 152,5 155,6 159,6 168,6 174,6 178,6 181,6 184,6 190,6 203,6 206,6 219,6 222,6 225,6 235,6 238,5 241,5 260,6 263,6 266,6 270,6 270,100 0,100" fill="#ff3e00" />
    <polygon points="0,17 4,17 10,17 13,16 16,15 19,13 23,13 26,13 29,12 32,12 35,12 38,12 42,12 45,6 51,7 54,9 57,9 61,9 64,9 67,9 71,9 74,9 77,9 80,9 83,9 86,8 90,8 93,8 96,8 99,8 102,8 105,8 108,8 114,11 117,15 127,8 130,9 133,8 136,8 139,8 143,8 146,8 152,10 155,11 159,11 168,11 174,12 178,10 181,10 184,10 190,10 203,10 206,10 219,10 222,9 225,9 235,9 238,9 241,9 260,9 263,10 266,9 270,10 270,100 0,100" fill="#3178c6" />
    <polygon points="0,21 4,21 10,20 13,19 16,18 19,16 23,16 26,16 29,15 32,14 35,15 38,15 42,15 45,9 51,11 54,14 57,14 61,15 64,15 67,15 71,15 74,15 77,15 80,15 83,15 86,14 90,13 93,14 96,14 99,15 102,13 105,14 108,15 114,17 117,20 127,16 130,18 133,17 136,18 139,19 143,19 146,20 152,16 155,18 159,18 168,18 174,18 178,15 181,15 184,15 190,15 203,15 206,14 219,14 222,14 225,14 235,14 238,13 241,13 260,13 263,14 266,15 270,15 270,100 0,100" fill="#239dad" />
    <polygon points="0,21 4,21 10,20 13,19 16,18 19,16 23,16 26,16 29,15 32,14 35,15 38,15 42,15 45,9 51,11 54,14 57,14 61,15 64,15 67,15 71,15 74,15 77,15 80,15 83,15 86,14 90,13 93,14 96,14 99,15 102,13 105,14 108,15 114,17 117,20 127,16 130,18 133,17 136,18 139,19 143,19 146,20 152,16 155,18 159,18 168,18 174,18 178,15 181,15 184,15 190,15 203,15 206,14 219,14 222,14 225,14 235,14 238,13 241,13 260,13 263,14 266,28 270,28 270,100 0,100" fill="#3572A5" />
    <polygon points="0,40 4,40 10,40 13,38 16,35 19,33 23,33 26,33 29,32 32,32 35,32 38,32 42,32 45,29 51,31 54,33 57,33 61,33 64,33 67,33 71,33 74,33 77,34 80,34 83,34 86,34 90,34 93,35 96,34 99,35 102,34 105,35 108,35 114,38 117,40 127,38 130,39 133,39 136,39 139,39 143,40 146,40 152,37 155,37 159,38 168,37 174,38 178,35 181,35 184,35 190,34 203,34 206,34 219,34 222,33 225,32 235,32 238,31 241,31 260,31 263,33 266,46 270,46 270,100 0,100" fill="#3D6117" />
    <polygon points="0,79 4,79 10,80 13,81 16,82 19,83 23,83 26,83 29,83 32,84 35,84 38,83 42,82 45,81 51,82 54,82 57,81 61,79 64,79 67,78 71,78 74,78 77,79 80,78 83,79 86,78 90,78 93,77 96,77 99,78 102,77 105,78 108,78 114,82 117,84 127,83 130,83 133,83 136,83 139,84 143,84 146,84 152,80 155,79 159,79 168,79 174,79 178,78 181,77 184,76 190,76 203,76 206,75 219,74 222,72 225,71 235,70 238,69 241,68 260,68 263,72 266,72 270,71 270,100 0,100" fill="#dea584" />
  </g>
</svg>
