<svg width="300" height="160" viewBox="0 0 300 160" fill="none" role="img" xmlns="http://www.w3.org/2000/svg">
  <style>
    .header {font: 600 18px 'Segoe UI', Ubuntu, Sans-Serif; fill: #2f80ed; }
    .lang-name {font: 400 11px 'Segoe UI', Ubuntu, Sans-Serif; fill: #888; }
  </style>
  <rect x="0.5" y="0.5" rx="4.5" width="299" height="159" stroke="#888" stroke-opacity="1" fill="none" />
  <g transform="translate(15,25)"><text x="0" y="0" class="header">Language History</text></g>
  <g transform="translate(15,45)">
    <rect x="0" y="0" width="270" height="100" fill="#888" />
    <polygon points="0,12 16,12 41,12 54,11 66,11 79,9 91,9 104,9 117,7 129,7 142,7 154,7 167,7 180,2 205,3 217,3 230,3 244,3 257,3 270,3 270,100 0,100" fill="#fcb32c" />
    <polygon points="0,14 16,14 41,14 54,13 66,12 79,10 91,10 104,11 117,9 129,9 142,9 154,9 167,9 180,4 205,5 217,5 230,4 244,4 257,4 270,4 270,100 0,100" fill="#ff5a03" />
    <polygon points="0,17 16,17 41,17 54,16 66,15 79,13 91,13 104,13 117,12 129,12 142,12 154,12 167,12 180,6 205,7 217,9 230,9 244,9 257,9 270,9 270,100 0,100" fill="#3178c6" />
    <polygon points="0,21 16,21 41,20 54,19 66,18 79,16 91,16 104,16 117,15 129,14 142,15 154,15 167,15 180,9 205,11 217,14 230,14 244,15 257,15 270,15 270,100 0,100" fill="#3572A5" />
    <polygon points="0,40 16,40 41,40 54,38 66,35 79,33 91,33 104,33 117,32 129,32 142,32 154,32 167,32 180,29 205,31 217,33 230,33 244,33 257,33 270,33 270,100 0,100" fill="#dea584" />
    <polygon points="0,61 16,61 41,60 54,57 66,53 79,49 91,49 104,49 117,49 129,48 142,48 154,49 167,50 180,48 205,48 217,50 230,51 244,53 257,53 270,54 270,100 0,100" fill="#3D6117" />
  </g>
</svg>
