<svg width="300" height="160" viewBox="0 0 300 160" fill="none" role="img" xmlns="http://www.w3.org/2000/svg">
  <style>
    .header {font: 600 18px 'Segoe UI', Ubuntu, Sans-Serif; fill: #2f80ed; }
    .lang-name {font: 400 11px 'Segoe UI', Ubuntu, Sans-Serif; fill: #888; }
  </style>
  <rect x="0.5" y="0.5" rx="4.5" width="299" height="159" stroke="#888" stroke-opacity="1" fill="none" />
  <g transform="translate(15,25)"><text x="0" y="0" class="header">Language History</text></g>
  <g transform="translate(15,45)">
    <rect x="0" y="0" width="270" height="100" fill="#888" />
    <polygon points="0,12 10,12 26,12 34,11 42,11 50,9 59,9 67,9 75,7 83,7 91,7 99,7 107,7 115,2 132,3 140,3 148,3 157,3 165,3 173,3 181,3 190,3 198,3 206,3 214,3 222,2 230,2 238,2 246,2 254,2 263,2 270,3 270,100 0,100" fill="#fcb32c" />
    <polygon points="0,14 10,14 26,14 34,13 42,12 50,10 59,10 67,11 75,9 83,9 91,9 99,9 107,9 115,4 132,5 140,5 148,4 157,4 165,4 173,4 181,5 190,4 198,4 206,4 214,4 222,4 230,4 238,3 246,3 254,3 263,4 270,4 270,100 0,100" fill="#ff5a03" />
    <polygon points="0,17 10,17 26,17 34,16 42,15 50,13 59,13 67,13 75,12 83,12 91,12 99,12 107,12 115,6 132,7 140,9 148,9 157,9 165,9 173,9 181,9 190,9 198,9 206,9 214,9 222,8 230,8 238,8 246,8 254,8 263,8 270,8 270,100 0,100" fill="#3178c6" />
    <polygon points="0,21 10,21 26,20 34,19 42,18 50,16 59,16 67,16 75,15 83,14 91,15 99,15 107,15 115,9 132,11 140,14 148,14 157,15 165,15 173,15 181,15 190,15 198,15 206,15 214,15 222,14 230,13 238,14 246,14 254,15 263,13 270,14 270,100 0,100" fill="#3572A5" />
    <polygon points="0,40 10,40 26,40 34,38 42,35 50,33 59,33 67,33 75,32 83,32 91,32 99,32 107,32 115,29 132,31 140,33 148,33 157,33 165,33 173,33 181,33 190,33 198,34 206,34 214,34 222,34 230,34 238,35 246,34 254,35 263,34 270,35 270,100 0,100" fill="#dea584" />
    <polygon points="0,61 10,61 26,60 34,57 42,53 50,49 59,49 67,49 75,49 83,48 91,48 99,49 107,50 115,48 132,48 140,50 148,51 157,53 165,53 173,54 181,54 190,54 198,55 206,55 214,55 222,56 230,55 238,57 246,57 254,57 263,57 270,57 270,100 0,100" fill="#3D6117" />
  </g>
</svg>
