<svg width="300" height="160" viewBox="0 0 300 160" fill="none" role="img" xmlns="http://www.w3.org/2000/svg">
  <style>
    .header {font: 600 18px 'Segoe UI', Ubuntu, Sans-Serif; fill: #2f80ed; }
    .lang-name {font: 400 11px 'Segoe UI', Ubuntu, Sans-Serif; fill: #888; }
  </style>
  <rect x="0.5" y="0.5" rx="4.5" width="299" height="159" stroke="#888" stroke-opacity="1" fill="none" />
  <g transform="translate(15,25)"><text x="0" y="0" class="header">Language History</text></g>
  <g transform="translate(15,45)">
    <rect x="0" y="0" width="270" height="100" fill="#888" />
    <polygon points="0,14 4,14 12,14 16,13 20,12 23,10 27,10 31,11 35,9 39,9 42,9 46,9 50,9 54,4 61,5 65,5 69,4 73,4 77,4 81,4 85,5 88,4 92,4 96,4 100,4 104,4 107,4 111,3 115,3 119,3 123,4 126,4 130,4 137,7 140,10 152,4 156,5 159,4 163,4 167,4 171,4 175,2 182,3 186,3 190,3 201,3 209,4 213,3 216,4 220,4 228,3 243,3 247,3 262,3 266,3 270,3 270,100 0,100" fill="#ff5a03" />
    <polygon points="0,17 4,17 12,17 16,16 20,15 23,13 27,13 31,13 35,12 39,12 42,12 46,12 50,12 54,6 61,7 65,9 69,9 73,9 77,9 81,9 85,9 88,9 92,9 96,9 100,9 104,8 107,8 111,8 115,8 119,8 123,8 126,8 130,8 137,11 140,15 152,8 156,9 159,8 163,8 167,8 171,8 175,5 182,5 186,6 190,6 201,6 209,6 213,6 216,6 220,6 228,6 243,6 247,6 262,6 266,6 270,6 270,100 0,100" fill="#ff3e00" />
    <polygon points="0,17 4,17 12,17 16,16 20,15 23,13 27,13 31,13 35,12 39,12 42,12 46,12 50,12 54,6 61,7 65,9 69,9 73,9 77,9 81,9 85,9 88,9 92,9 96,9 100,9 104,8 107,8 111,8 115,8 119,8 123,8 126,8 130,8 137,11 140,15 152,8 156,9 159,8 163,8 167,8 171,8 175,8 182,10 186,11 190,11 201,11 209,12 213,10 216,10 220,10 228,10 243,10 247,10 262,10 266,9 270,9 270,100 0,100" fill="#3178c6" />
    <polygon points="0,21 4,21 12,20 16,19 20,18 23,16 27,16 31,16 35,15 39,14 42,15 46,15 50,15 54,9 61,11 65,14 69,14 73,15 77,15 81,15 85,15 88,15 92,15 96,15 100,15 104,14 107,13 111,14 115,14 119,15 123,13 126,14 130,15 137,17 140,20 152,16 156,18 159,17 163,18 167,19 171,19 175,20 182,16 186,18 190,18 201,18 209,18 213,15 216,15 220,15 228,15 243,15 247,14 262,14 266,14 270,14 270,100 0,100" fill="#3572A5" />
    <polygon points="0,40 4,40 12,40 16,38 20,35 23,33 27,33 31,33 35,32 39,32 42,32 46,32 50,32 54,29 61,31 65,33 69,33 73,33 77,33 81,33 85,33 88,33 92,34 96,34 100,34 104,34 107,34 111,35 115,34 119,35 123,34 126,35 130,35 137,38 140,40 152,38 156,39 159,39 163,39 167,39 171,40 175,40 182,37 186,37 190,38 201,37 209,38 213,35 216,35 220,35 228,34 243,34 247,34 262,34 266,33 270,32 270,100 0,100" fill="#dea584" />
    <polygon points="0,61 4,61 12,60 16,57 20,53 23,49 27,49 31,49 35,49 39,48 42,48 46,49 50,50 54,48 61,48 65,50 69,51 73,53 77,53 81,54 85,54 88,54 92,55 96,55 100,55 104,56 107,55 111,57 115,57 119,57 123,57 126,57 130,57 137,55 140,56 152,54 156,55 159,55 163,55 167,55 171,56 175,56 182,57 186,58 190,58 201,58 209,58 213,57 216,57 220,58 228,58 243,58 247,58 262,59 266,60 270,61 270,100 0,100" fill="#3D6117" />
  </g>
</svg>
