<svg width="300" height="160" viewBox="0 0 300 160" fill="none" role="img" xmlns="http://www.w3.org/2000/svg">
  <style>
    .header {font: 600 18px 'Segoe UI', Ubuntu, Sans-Serif; fill: #2f80ed; }
    .lang-name {font: 400 11px 'Segoe UI', Ubuntu, Sans-Serif; fill: #888; }
  </style>
  <rect x="0.5" y="0.5" rx="4.5" width="299" height="159" stroke="#888" stroke-opacity="1" fill="none" />
  <g transform="translate(15,25)"><text x="0" y="0" class="header">Language History</text></g>
  <g transform="translate(15,45)">
    <rect x="0" y="0" width="270" height="100" fill="#888" />
    <polygon points="0,12 11,12 29,12 38,11 46,11 55,9 64,9 73,9 82,7 91,7 100,7 109,7 117,7 126,2 144,3 153,3 162,3 172,3 181,3 190,3 199,3 207,3 216,3 225,3 234,3 243,2 252,2 261,2 270,2 270,100 0,100" fill="#fcb32c" />
    <polygon points="0,14 11,14 29,14 38,13 46,12 55,10 64,10 73,11 82,9 91,9 100,9 109,9 117,9 126,4 144,5 153,5 162,4 172,4 181,4 190,4 199,5 207,4 216,4 225,4 234,4 243,4 252,4 261,3 270,3 270,100 0,100" fill="#ff5a03" />
    <polygon points="0,17 11,17 29,17 38,16 46,15 55,13 64,13 73,13 82,12 91,12 100,12 109,12 117,12 126,6 144,7 153,9 162,9 172,9 181,9 190,9 199,9 207,9 216,9 225,9 234,9 243,8 252,8 261,8 270,8 270,100 0,100" fill="#3178c6" />
    <polygon points="0,21 11,21 29,20 38,19 46,18 55,16 64,16 73,16 82,15 91,14 100,15 109,15 117,15 126,9 144,11 153,14 162,14 172,15 181,15 190,15 199,15 207,15 216,15 225,15 234,15 243,14 252,13 261,14 270,14 270,100 0,100" fill="#3572A5" />
    <polygon points="0,40 11,40 29,40 38,38 46,35 55,33 64,33 73,33 82,32 91,32 100,32 109,32 117,32 126,29 144,31 153,33 162,33 172,33 181,33 190,33 199,33 207,33 216,34 225,34 234,34 243,34 252,34 261,35 270,34 270,100 0,100" fill="#dea584" />
    <polygon points="0,61 11,61 29,60 38,57 46,53 55,49 64,49 73,49 82,49 91,48 100,48 109,49 117,50 126,48 144,48 153,50 162,51 172,53 181,53 190,54 199,54 207,54 216,55 225,55 234,55 243,56 252,55 261,57 270,57 270,100 0,100" fill="#3D6117" />
  </g>
</svg>
