<svg width="300" height="160" viewBox="0 0 300 160" fill="none" role="img" xmlns="http://www.w3.org/2000/svg">
  <style>
    .header {font: 600 18px 'Segoe UI', Ubuntu, Sans-Serif; fill: #2f80ed; }
    .lang-name {font: 400 11px 'Segoe UI', Ubuntu, Sans-Serif; fill: #888; }
  </style>
  <rect x="0.5" y="0.5" rx="4.5" width="299" height="159" stroke="#888" stroke-opacity="1" fill="none" />
  <g transform="translate(15,25)"><text x="0" y="0" class="header">Language History</text></g>
  <g transform="translate(15,45)">
    <rect x="0" y="0" width="270" height="100" fill="#888" />
    <polygon points="0,7 33,6 37,6 86,6 112,6 138,6 165,5 191,5 217,5 243,4 270,4 270,100 0,100" fill="#3178c6" />
    <polygon points="0,10 33,10 37,10 86,10 112,10 138,9 165,8 191,8 217,8 243,7 270,5 270,100 0,100" fill="#ff5a03" />
    <polygon points="0,13 33,13 37,13 86,13 112,12 138,11 165,10 191,11 217,10 243,10 270,9 270,100 0,100" fill="#f1e05a" />
    <polygon points="0,21 33,21 37,21 86,20 112,19 138,18 165,16 191,16 217,16 243,15 270,14 270,100 0,100" fill="#dea584" />
    <polygon points="0,41 33,41 37,41 86,40 112,38 138,35 165,32 191,32 217,32 243,32 270,30 270,100 0,100" fill="#3572A5" />
    <polygon points="0,61 33,61 37,60 86,60 112,57 138,53 165,49 191,49 217,50 243,49 270,48 270,100 0,100" fill="#3D6117" />
  </g>
</svg>
