<svg width="300" height="160" viewBox="0 0 300 160" fill="none" role="img" xmlns="http://www.w3.org/2000/svg">
  <style>
    .header {font: 600 18px 'Segoe UI', Ubuntu, Sans-Serif; fill: #2f80ed; }
    .lang-name {font: 400 11px 'Segoe UI', Ubuntu, Sans-Serif; fill: #888; }
  </style>
  <rect x="0.5" y="0.5" rx="4.5" width="299" height="159" stroke="#888" stroke-opacity="1" fill="none" />
  <g transform="translate(15,25)"><text x="0" y="0" class="header">Language History</text></g>
  <g transform="translate(15,45)">
    <rect x="0" y="0" width="270" height="100" fill="#888" />
    <polygon points="0,17 3,17 8,17 11,16 14,15 17,13 19,13 22,13 25,12 28,12 30,12 33,12 36,12 38,6 44,7 47,9 49,9 52,9 55,9 58,9 61,9 63,9 66,9 69,9 71,9 74,8 77,8 80,8 82,8 85,8 88,8 90,8 93,8 98,11 101,15 109,8 112,9 114,8 117,8 120,8 122,8 125,5 131,5 133,6 136,6 144,6 150,6 152,6 155,6 158,6 163,6 174,6 177,6 188,6 191,6 193,6 201,6 204,5 207,5 223,6 226,6 229,6 231,6 234,6 237,6 240,5 242,6 250,5 259,6 264,6 267,6 270,6 270,100 0,100" fill="#ff3e00" />
    <polygon points="0,17 3,17 8,17 11,16 14,15 17,13 19,13 22,13 25,12 28,12 30,12 33,12 36,12 38,6 44,7 47,9 49,9 52,9 55,9 58,9 61,9 63,9 66,9 69,9 71,9 74,8 77,8 80,8 82,8 85,8 88,8 90,8 93,8 98,11 101,15 109,8 112,9 114,8 117,8 120,8 122,8 125,8 131,10 133,11 136,11 144,11 150,12 152,10 155,10 158,10 163,10 174,10 177,10 188,10 191,9 193,9 201,9 204,9 207,9 223,9 226,10 229,9 231,10 234,10 237,11 240,10 242,11 250,11 259,12 264,11 267,11 270,11 270,100 0,100" fill="#3178c6" />
    <polygon points="0,21 3,21 8,20 11,19 14,18 17,16 19,16 22,16 25,15 28,14 30,15 33,15 36,15 38,9 44,11 47,14 49,14 52,15 55,15 58,15 61,15 63,15 66,15 69,15 71,15 74,14 77,13 80,14 82,14 85,15 88,13 90,14 93,15 98,17 101,20 109,16 112,18 114,17 117,18 120,19 122,19 125,20 131,16 133,18 136,18 144,18 150,18 152,15 155,15 158,15 163,15 174,15 177,14 188,14 191,14 193,14 201,14 204,13 207,13 223,13 226,14 229,15 231,15 234,16 237,16 240,15 242,16 250,16 259,17 264,17 267,17 270,17 270,100 0,100" fill="#239dad" />
    <polygon points="0,21 3,21 8,20 11,19 14,18 17,16 19,16 22,16 25,15 28,14 30,15 33,15 36,15 38,9 44,11 47,14 49,14 52,15 55,15 58,15 61,15 63,15 66,15 69,15 71,15 74,14 77,13 80,14 82,14 85,15 88,13 90,14 93,15 98,17 101,20 109,16 112,18 114,17 117,18 120,19 122,19 125,20 131,16 133,18 136,18 144,18 150,18 152,15 155,15 158,15 163,15 174,15 177,14 188,14 191,14 193,14 201,14 204,13 207,13 223,13 226,14 229,28 231,28 234,29 237,29 240,28 242,29 250,29 259,31 264,31 267,31 270,31 270,100 0,100" fill="#3572A5" />
    <polygon points="0,40 3,40 8,40 11,38 14,35 17,33 19,33 22,33 25,32 28,32 30,32 33,32 36,32 38,29 44,31 47,33 49,33 52,33 55,33 58,33 61,33 63,33 66,34 69,34 71,34 74,34 77,34 80,35 82,34 85,35 88,34 90,35 93,35 98,38 101,40 109,38 112,39 114,39 117,39 120,39 122,40 125,40 131,37 133,37 136,38 144,37 150,38 152,35 155,35 158,35 163,34 174,34 177,34 188,34 191,33 193,32 201,32 204,31 207,31 223,31 226,33 229,46 231,46 234,46 237,46 240,46 242,46 250,46 259,51 264,50 267,50 270,50 270,100 0,100" fill="#dea584" />
    <polygon points="0,61 3,61 8,60 11,57 14,53 17,49 19,49 22,49 25,49 28,48 30,48 33,49 36,50 38,48 44,48 47,50 49,51 52,53 55,53 58,54 61,54 63,54 66,55 69,55 71,55 74,56 77,55 80,57 82,57 85,57 88,57 90,57 93,57 98,55 101,56 109,54 112,55 114,55 117,55 120,55 122,56 125,56 131,57 133,58 136,58 144,58 150,58 152,57 155,57 158,58 163,58 174,58 177,58 188,59 191,60 193,61 201,61 204,62 207,62 223,62 226,60 229,73 231,74 234,74 237,74 240,74 242,75 250,75 259,72 264,72 267,72 270,72 270,100 0,100" fill="#3D6117" />
  </g>
</svg>
