<svg width="300" height="160" viewBox="0 0 300 160" fill="none" role="img" xmlns="http://www.w3.org/2000/svg">
  <style>
    .header {font: 600 18px 'Segoe UI', Ubuntu, Sans-Serif; fill: #2f80ed; }
    .lang-name {font: 400 11px 'Segoe UI', Ubuntu, Sans-Serif; fill: #888; }
  </style>
  <rect x="0.5" y="0.5" rx="4.5" width="299" height="159" stroke="#888" stroke-opacity="1" fill="none" />
  <g transform="translate(15,25)"><text x="0" y="0" class="header">Language History</text></g>
  <g transform="translate(15,45)">
    <rect x="0" y="0" width="270" height="100" fill="#888" />
    <polygon points="0,17 3,17 7,17 10,16 12,15 15,13 17,13 20,13 22,12 24,12 27,12 29,12 32,12 34,6 39,7 41,9 44,9 47,9 49,9 52,9 54,9 56,9 59,9 61,9 64,9 66,8 69,8 71,8 73,8 76,8 78,8 80,8 83,8 87,11 90,15 97,8 99,9 102,8 104,8 107,8 109,8 112,5 116,5 119,6 121,6 129,6 133,6 136,6 138,6 141,6 146,6 155,6 158,6 167,6 170,6 172,6 180,6 182,5 184,5 199,6 201,6 204,6 206,6 209,6 211,6 214,5 216,6 223,5 231,6 235,6 238,6 240,6 243,5 245,5 248,5 250,5 252,5 257,5 265,5 267,5 270,5 270,100 0,100" fill="#ff3e00" />
    <polygon points="0,17 3,17 7,17 10,16 12,15 15,13 17,13 20,13 22,12 24,12 27,12 29,12 32,12 34,6 39,7 41,9 44,9 47,9 49,9 52,9 54,9 56,9 59,9 61,9 64,9 66,8 69,8 71,8 73,8 76,8 78,8 80,8 83,8 87,11 90,15 97,8 99,9 102,8 104,8 107,8 109,8 112,8 116,10 119,11 121,11 129,11 133,12 136,10 138,10 141,10 146,10 155,10 158,10 167,10 170,9 172,9 180,9 182,9 184,9 199,9 201,10 204,9 206,10 209,10 211,11 214,10 216,11 223,11 231,12 235,11 238,11 240,11 243,10 245,9 248,9 250,10 252,10 257,10 265,10 267,10 270,10 270,100 0,100" fill="#3178c6" />
    <polygon points="0,21 3,21 7,20 10,19 12,18 15,16 17,16 20,16 22,15 24,14 27,15 29,15 32,15 34,9 39,11 41,14 44,14 47,15 49,15 52,15 54,15 56,15 59,15 61,15 64,15 66,14 69,13 71,14 73,14 76,15 78,13 80,14 83,15 87,17 90,20 97,16 99,18 102,17 104,18 107,19 109,19 112,20 116,16 119,18 121,18 129,18 133,18 136,15 138,15 141,15 146,15 155,15 158,14 167,14 170,14 172,14 180,14 182,13 184,13 199,13 201,14 204,15 206,15 209,16 211,16 214,15 216,16 223,16 231,17 235,17 238,17 240,17 243,16 245,14 248,14 250,16 252,16 257,15 265,16 267,16 270,16 270,100 0,100" fill="#239dad" />
    <polygon points="0,21 3,21 7,20 10,19 12,18 15,16 17,16 20,16 22,15 24,14 27,15 29,15 32,15 34,9 39,11 41,14 44,14 47,15 49,15 52,15 54,15 56,15 59,15 61,15 64,15 66,14 69,13 71,14 73,14 76,15 78,13 80,14 83,15 87,17 90,20 97,16 99,18 102,17 104,18 107,19 109,19 112,20 116,16 119,18 121,18 129,18 133,18 136,15 138,15 141,15 146,15 155,15 158,14 167,14 170,14 172,14 180,14 182,13 184,13 199,13 201,14 204,28 206,28 209,29 211,29 214,28 216,29 223,29 231,31 235,31 238,31 240,31 243,30 245,28 248,28 250,30 252,30 257,30 265,30 267,30 270,30 270,100 0,100" fill="#3572A5" />
    <polygon points="0,40 3,40 7,40 10,38 12,35 15,33 17,33 20,33 22,32 24,32 27,32 29,32 32,32 34,29 39,31 41,33 44,33 47,33 49,33 52,33 54,33 56,33 59,34 61,34 64,34 66,34 69,34 71,35 73,34 76,35 78,34 80,35 83,35 87,38 90,40 97,38 99,39 102,39 104,39 107,39 109,40 112,40 116,37 119,37 121,38 129,37 133,38 136,35 138,35 141,35 146,34 155,34 158,34 167,34 170,33 172,32 180,32 182,31 184,31 199,31 201,33 204,46 206,46 209,46 211,46 214,46 216,46 223,46 231,51 235,50 238,50 240,50 243,50 245,48 248,48 250,49 252,50 257,50 265,50 267,50 270,49 270,100 0,100" fill="#dea584" />
    <polygon points="0,61 3,61 7,60 10,57 12,53 15,49 17,49 20,49 22,49 24,48 27,48 29,49 32,50 34,48 39,48 41,50 44,51 47,53 49,53 52,54 54,54 56,54 59,55 61,55 64,55 66,56 69,55 71,57 73,57 76,57 78,57 80,57 83,57 87,55 90,56 97,54 99,55 102,55 104,55 107,55 109,56 112,56 116,57 119,58 121,58 129,58 133,58 136,57 138,57 141,58 146,58 155,58 158,58 167,59 170,60 172,61 180,61 182,62 184,62 199,62 201,60 204,73 206,74 209,74 211,74 214,74 216,75 223,75 231,72 235,72 238,72 240,72 243,72 245,71 248,71 250,72 252,72 257,72 265,73 267,72 270,73 270,100 0,100" fill="#3D6117" />
  </g>
</svg>
