<svg width="300" height="160" viewBox="0 0 300 160" fill="none" role="img" xmlns="http://www.w3.org/2000/svg">
  <style>
    .header {font: 600 18px 'Segoe UI', Ubuntu, Sans-Serif; fill: #2f80ed; }
    .lang-name {font: 400 11px 'Segoe UI', Ubuntu, Sans-Serif; fill: #888; }
  </style>
  <rect x="0.5" y="0.5" rx="4.5" width="299" height="159" stroke="#888" stroke-opacity="1" fill="none" />
  <g transform="translate(15,25)"><text x="0" y="0" class="header">Language History</text></g>
  <g transform="translate(15,45)">
    <rect x="0" y="0" width="270" height="100" fill="#888" />
    <polygon points="0,14 5,14 13,14 18,13 22,12 26,10 30,10 34,11 39,9 43,9 47,9 51,9 55,9 60,4 68,5 72,5 76,4 81,4 85,4 90,4 94,5 98,4 102,4 107,4 111,4 115,4 119,4 123,3 128,3 132,3 136,4 140,4 144,4 152,7 156,10 168,4 173,5 177,4 181,4 185,4 190,4 194,2 202,3 206,3 211,3 223,3 232,4 236,3 240,4 244,4 253,3 270,3 270,100 0,100" fill="#ff5a03" />
    <polygon points="0,17 5,17 13,17 18,16 22,15 26,13 30,13 34,13 39,12 43,12 47,12 51,12 55,12 60,6 68,7 72,9 76,9 81,9 85,9 90,9 94,9 98,9 102,9 107,9 111,9 115,8 119,8 123,8 128,8 132,8 136,8 140,8 144,8 152,11 156,15 168,8 173,9 177,8 181,8 185,8 190,8 194,5 202,5 206,6 211,6 223,6 232,6 236,6 240,6 244,6 253,6 270,6 270,100 0,100" fill="#ff3e00" />
    <polygon points="0,17 5,17 13,17 18,16 22,15 26,13 30,13 34,13 39,12 43,12 47,12 51,12 55,12 60,6 68,7 72,9 76,9 81,9 85,9 90,9 94,9 98,9 102,9 107,9 111,9 115,8 119,8 123,8 128,8 132,8 136,8 140,8 144,8 152,11 156,15 168,8 173,9 177,8 181,8 185,8 190,8 194,8 202,10 206,11 211,11 223,11 232,12 236,10 240,10 244,10 253,10 270,10 270,100 0,100" fill="#3178c6" />
    <polygon points="0,21 5,21 13,20 18,19 22,18 26,16 30,16 34,16 39,15 43,14 47,15 51,15 55,15 60,9 68,11 72,14 76,14 81,15 85,15 90,15 94,15 98,15 102,15 107,15 111,15 115,14 119,13 123,14 128,14 132,15 136,13 140,14 144,15 152,17 156,20 168,16 173,18 177,17 181,18 185,19 190,19 194,20 202,16 206,18 211,18 223,18 232,18 236,15 240,15 244,15 253,15 270,15 270,100 0,100" fill="#3572A5" />
    <polygon points="0,40 5,40 13,40 18,38 22,35 26,33 30,33 34,33 39,32 43,32 47,32 51,32 55,32 60,29 68,31 72,33 76,33 81,33 85,33 90,33 94,33 98,33 102,34 107,34 111,34 115,34 119,34 123,35 128,34 132,35 136,34 140,35 144,35 152,38 156,40 168,38 173,39 177,39 181,39 185,39 190,40 194,40 202,37 206,37 211,38 223,37 232,38 236,35 240,35 244,35 253,34 270,34 270,100 0,100" fill="#dea584" />
    <polygon points="0,61 5,61 13,60 18,57 22,53 26,49 30,49 34,49 39,49 43,48 47,48 51,49 55,50 60,48 68,48 72,50 76,51 81,53 85,53 90,54 94,54 98,54 102,55 107,55 111,55 115,56 119,55 123,57 128,57 132,57 136,57 140,57 144,57 152,55 156,56 168,54 173,55 177,55 181,55 185,55 190,56 194,56 202,57 206,58 211,58 223,58 232,58 236,57 240,57 244,58 253,58 270,58 270,100 0,100" fill="#3D6117" />
  </g>
</svg>
