<svg width="300" height="160" viewBox="0 0 300 160" fill="none" role="img" xmlns="http://www.w3.org/2000/svg">
  <style>
    .header {font: 600 18px 'Segoe UI', Ubuntu, Sans-Serif; fill: #2f80ed; }
    .lang-name {font: 400 11px 'Segoe UI', Ubuntu, Sans-Serif; fill: #888; }
  </style>
  <rect x="0.5" y="0.5" rx="4.5" width="299" height="159" stroke="#888" stroke-opacity="1" fill="none" />
  <g transform="translate(15,25)"><text x="0" y="0" class="header">Language History</text></g>
  <g transform="translate(15,45)">
    <rect x="0" y="0" width="270" height="100" fill="#888" />
    <polygon points="0,17 3,17 8,17 11,16 13,15 16,13 18,13 21,13 24,12 26,12 29,12 31,12 34,12 37,6 42,7 44,9 47,9 50,9 52,9 55,9 58,9 60,9 63,9 65,9 68,9 71,8 73,8 76,8 78,8 81,8 84,8 86,8 88,8 93,11 96,15 104,8 106,9 109,8 111,8 114,8 117,8 119,5 124,5 127,6 130,6 137,6 142,6 145,6 148,6 150,6 155,6 166,6 168,6 179,6 181,6 184,6 192,6 194,5 197,5 212,6 215,6 218,6 220,6 223,6 225,6 228,5 231,6 238,5 246,6 251,6 254,6 257,6 259,5 262,5 264,5 267,5 270,5 270,100 0,100" fill="#ff3e00" />
    <polygon points="0,17 3,17 8,17 11,16 13,15 16,13 18,13 21,13 24,12 26,12 29,12 31,12 34,12 37,6 42,7 44,9 47,9 50,9 52,9 55,9 58,9 60,9 63,9 65,9 68,9 71,8 73,8 76,8 78,8 81,8 84,8 86,8 88,8 93,11 96,15 104,8 106,9 109,8 111,8 114,8 117,8 119,8 124,10 127,11 130,11 137,11 142,12 145,10 148,10 150,10 155,10 166,10 168,10 179,10 181,9 184,9 192,9 194,9 197,9 212,9 215,10 218,9 220,10 223,10 225,11 228,10 231,11 238,11 246,12 251,11 254,11 257,11 259,10 262,9 264,9 267,10 270,10 270,100 0,100" fill="#3178c6" />
    <polygon points="0,21 3,21 8,20 11,19 13,18 16,16 18,16 21,16 24,15 26,14 29,15 31,15 34,15 37,9 42,11 44,14 47,14 50,15 52,15 55,15 58,15 60,15 63,15 65,15 68,15 71,14 73,13 76,14 78,14 81,15 84,13 86,14 88,15 93,17 96,20 104,16 106,18 109,17 111,18 114,19 117,19 119,20 124,16 127,18 130,18 137,18 142,18 145,15 148,15 150,15 155,15 166,15 168,14 179,14 181,14 184,14 192,14 194,13 197,13 212,13 215,14 218,15 220,15 223,16 225,16 228,15 231,16 238,16 246,17 251,17 254,17 257,17 259,16 262,14 264,14 267,16 270,16 270,100 0,100" fill="#239dad" />
    <polygon points="0,21 3,21 8,20 11,19 13,18 16,16 18,16 21,16 24,15 26,14 29,15 31,15 34,15 37,9 42,11 44,14 47,14 50,15 52,15 55,15 58,15 60,15 63,15 65,15 68,15 71,14 73,13 76,14 78,14 81,15 84,13 86,14 88,15 93,17 96,20 104,16 106,18 109,17 111,18 114,19 117,19 119,20 124,16 127,18 130,18 137,18 142,18 145,15 148,15 150,15 155,15 166,15 168,14 179,14 181,14 184,14 192,14 194,13 197,13 212,13 215,14 218,28 220,28 223,29 225,29 228,28 231,29 238,29 246,31 251,31 254,31 257,31 259,30 262,28 264,28 267,30 270,30 270,100 0,100" fill="#3572A5" />
    <polygon points="0,40 3,40 8,40 11,38 13,35 16,33 18,33 21,33 24,32 26,32 29,32 31,32 34,32 37,29 42,31 44,33 47,33 50,33 52,33 55,33 58,33 60,33 63,34 65,34 68,34 71,34 73,34 76,35 78,34 81,35 84,34 86,35 88,35 93,38 96,40 104,38 106,39 109,39 111,39 114,39 117,40 119,40 124,37 127,37 130,38 137,37 142,38 145,35 148,35 150,35 155,34 166,34 168,34 179,34 181,33 184,32 192,32 194,31 197,31 212,31 215,33 218,46 220,46 223,46 225,46 228,46 231,46 238,46 246,51 251,50 254,50 257,50 259,50 262,48 264,48 267,49 270,50 270,100 0,100" fill="#dea584" />
    <polygon points="0,61 3,61 8,60 11,57 13,53 16,49 18,49 21,49 24,49 26,48 29,48 31,49 34,50 37,48 42,48 44,50 47,51 50,53 52,53 55,54 58,54 60,54 63,55 65,55 68,55 71,56 73,55 76,57 78,57 81,57 84,57 86,57 88,57 93,55 96,56 104,54 106,55 109,55 111,55 114,55 117,56 119,56 124,57 127,58 130,58 137,58 142,58 145,57 148,57 150,58 155,58 166,58 168,58 179,59 181,60 184,61 192,61 194,62 197,62 212,62 215,60 218,73 220,74 223,74 225,74 228,74 231,75 238,75 246,72 251,72 254,72 257,72 259,72 262,71 264,71 267,72 270,72 270,100 0,100" fill="#3D6117" />
  </g>
</svg>
