<svg width="300" height="160" viewBox="0 0 300 160" fill="none" role="img" xmlns="http://www.w3.org/2000/svg">
  <style>
    .header {font: 600 18px 'Segoe UI', Ubuntu, Sans-Serif; fill: #2f80ed; }
    .lang-name {font: 400 11px 'Segoe UI', Ubuntu, Sans-Serif; fill: #888; }
  </style>
  <rect x="0.5" y="0.5" rx="4.5" width="299" height="159" stroke="#888" stroke-opacity="1" fill="none" />
  <g transform="translate(15,25)"><text x="0" y="0" class="header">Language History</text></g>
  <g transform="translate(15,45)">
    <rect x="0" y="0" width="270" height="100" fill="#888" />
    <polygon points="0,14 7,14 18,14 24,13 29,12 35,10 40,10 46,11 52,9 57,9 63,9 68,9 74,9 80,4 91,5 96,5 102,4 108,4 114,4 120,4 125,5 131,4 137,4 142,4 148,4 153,4 159,4 165,3 170,3 176,3 181,4 186,4 192,4 202,7 208,10 225,4 230,5 236,4 241,4 247,4 253,4 258,2 270,3 270,100 0,100" fill="#ff5a03" />
    <polygon points="0,17 7,17 18,17 24,16 29,15 35,13 40,13 46,13 52,12 57,12 63,12 68,12 74,12 80,6 91,7 96,9 102,9 108,9 114,9 120,9 125,9 131,9 137,9 142,9 148,9 153,8 159,8 165,8 170,8 176,8 181,8 186,8 192,8 202,11 208,15 225,8 230,9 236,8 241,8 247,8 253,8 258,5 270,5 270,100 0,100" fill="#ff3e00" />
    <polygon points="0,17 7,17 18,17 24,16 29,15 35,13 40,13 46,13 52,12 57,12 63,12 68,12 74,12 80,6 91,7 96,9 102,9 108,9 114,9 120,9 125,9 131,9 137,9 142,9 148,9 153,8 159,8 165,8 170,8 176,8 181,8 186,8 192,8 202,11 208,15 225,8 230,9 236,8 241,8 247,8 253,8 258,8 270,10 270,100 0,100" fill="#3178c6" />
    <polygon points="0,21 7,21 18,20 24,19 29,18 35,16 40,16 46,16 52,15 57,14 63,15 68,15 74,15 80,9 91,11 96,14 102,14 108,15 114,15 120,15 125,15 131,15 137,15 142,15 148,15 153,14 159,13 165,14 170,14 176,15 181,13 186,14 192,15 202,17 208,20 225,16 230,18 236,17 241,18 247,19 253,19 258,20 270,16 270,100 0,100" fill="#dea584" />
    <polygon points="0,41 7,41 18,40 24,38 29,35 35,32 40,32 46,32 52,32 57,30 63,30 68,31 74,32 80,28 91,29 96,31 102,32 108,35 114,35 120,36 125,37 131,37 137,36 142,36 148,36 153,36 159,35 165,36 170,36 176,37 181,36 186,36 192,36 202,34 208,35 225,33 230,34 236,34 241,34 247,35 253,35 258,35 270,36 270,100 0,100" fill="#3572A5" />
    <polygon points="0,61 7,61 18,60 24,57 29,53 35,49 40,49 46,50 52,49 57,48 63,48 68,49 74,50 80,48 91,48 96,51 102,51 108,53 114,53 120,54 125,54 131,54 137,55 142,55 148,55 153,56 159,56 165,57 170,57 176,57 181,57 186,57 192,57 202,55 208,56 225,54 230,55 236,55 241,55 247,55 253,56 258,56 270,57 270,100 0,100" fill="#3D6117" />
  </g>
</svg>
