<svg width="300" height="160" viewBox="0 0 300 160" fill="none" role="img" xmlns="http://www.w3.org/2000/svg">
  <style>
    .header {font: 600 18px 'Segoe UI', Ubuntu, Sans-Serif; fill: #2f80ed; }
    .lang-name {font: 400 11px 'Segoe UI', Ubuntu, Sans-Serif; fill: #888; }
  </style>
  <rect x="0.5" y="0.5" rx="4.5" width="299" height="159" stroke="#888" stroke-opacity="1" fill="none" />
  <g transform="translate(15,25)"><text x="0" y="0" class="header">Language History</text></g>
  <g transform="translate(15,45)">
    <rect x="0" y="0" width="270" height="100" fill="#888" />
    <polygon points="0,12 16,12 43,12 56,11 69,11 83,9 96,9 109,9 122,7 135,7 149,7 162,7 175,7 188,2 215,3 228,3 241,3 256,3 270,3 270,100 0,100" fill="#fcb32c" />
    <polygon points="0,14 16,14 43,14 56,13 69,12 83,10 96,10 109,11 122,9 135,9 149,9 162,9 175,9 188,4 215,5 228,5 241,4 256,4 270,4 270,100 0,100" fill="#ff5a03" />
    <polygon points="0,17 16,17 43,17 56,16 69,15 83,13 96,13 109,13 122,12 135,12 149,12 162,12 175,12 188,6 215,7 228,9 241,9 256,9 270,9 270,100 0,100" fill="#3178c6" />
    <polygon points="0,21 16,21 43,20 56,19 69,18 83,16 96,16 109,16 122,15 135,14 149,15 162,15 175,15 188,9 215,11 228,14 241,14 256,15 270,15 270,100 0,100" fill="#3572A5" />
    <polygon points="0,40 16,40 43,40 56,38 69,35 83,33 96,33 109,33 122,32 135,32 149,32 162,32 175,32 188,29 215,31 228,33 241,33 256,33 270,33 270,100 0,100" fill="#dea584" />
    <polygon points="0,61 16,61 43,60 56,57 69,53 83,49 96,49 109,49 122,49 135,48 149,48 162,49 175,50 188,48 215,48 228,50 241,51 256,53 270,53 270,100 0,100" fill="#3D6117" />
  </g>
</svg>
