<svg width="300" height="160" viewBox="0 0 300 160" fill="none" role="img" xmlns="http://www.w3.org/2000/svg">
  <style>
    .header {font: 600 18px 'Segoe UI', Ubuntu, Sans-Serif; fill: #2f80ed; }
    .lang-name {font: 400 11px 'Segoe UI', Ubuntu, Sans-Serif; fill: #888; }
  </style>
  <rect x="0.5" y="0.5" rx="4.5" width="299" height="159" stroke="#888" stroke-opacity="1" fill="none" />
  <g transform="translate(15,25)"><text x="0" y="0" class="header">Language History</text></g>
  <g transform="translate(15,45)">
    <rect x="0" y="0" width="270" height="100" fill="#888" />
    <polygon points="0,14 4,14 10,14 14,13 17,12 20,10 23,10 27,11 30,9 33,9 37,9 40,9 43,9 46,4 53,5 56,5 60,4 63,4 67,4 70,4 73,5 77,4 80,4 83,4 86,4 90,4 93,4 96,3 100,3 103,3 106,4 109,4 112,4 118,7 122,10 131,4 135,5 138,4 141,4 145,4 148,4 151,2 158,3 161,3 164,3 174,3 181,4 184,3 187,4 191,4 197,3 210,3 214,3 227,3 230,3 233,3 243,3 246,3 250,3 270,3 270,100 0,100" fill="#ff5a03" />
    <polygon points="0,17 4,17 10,17 14,16 17,15 20,13 23,13 27,13 30,12 33,12 37,12 40,12 43,12 46,6 53,7 56,9 60,9 63,9 67,9 70,9 73,9 77,9 80,9 83,9 86,9 90,8 93,8 96,8 100,8 103,8 106,8 109,8 112,8 118,11 122,15 131,8 135,9 138,8 141,8 145,8 148,8 151,5 158,5 161,6 164,6 174,6 181,6 184,6 187,6 191,6 197,6 210,6 214,6 227,6 230,6 233,6 243,6 246,5 250,5 270,6 270,100 0,100" fill="#ff3e00" />
    <polygon points="0,17 4,17 10,17 14,16 17,15 20,13 23,13 27,13 30,12 33,12 37,12 40,12 43,12 46,6 53,7 56,9 60,9 63,9 67,9 70,9 73,9 77,9 80,9 83,9 86,9 90,8 93,8 96,8 100,8 103,8 106,8 109,8 112,8 118,11 122,15 131,8 135,9 138,8 141,8 145,8 148,8 151,8 158,10 161,11 164,11 174,11 181,12 184,10 187,10 191,10 197,10 210,10 214,10 227,10 230,9 233,9 243,9 246,9 250,9 270,9 270,100 0,100" fill="#3178c6" />
    <polygon points="0,21 4,21 10,20 14,19 17,18 20,16 23,16 27,16 30,15 33,14 37,15 40,15 43,15 46,9 53,11 56,14 60,14 63,15 67,15 70,15 73,15 77,15 80,15 83,15 86,15 90,14 93,13 96,14 100,14 103,15 106,13 109,14 112,15 118,17 122,20 131,16 135,18 138,17 141,18 145,19 148,19 151,20 158,16 161,18 164,18 174,18 181,18 184,15 187,15 191,15 197,15 210,15 214,14 227,14 230,14 233,14 243,14 246,13 250,13 270,13 270,100 0,100" fill="#3572A5" />
    <polygon points="0,40 4,40 10,40 14,38 17,35 20,33 23,33 27,33 30,32 33,32 37,32 40,32 43,32 46,29 53,31 56,33 60,33 63,33 67,33 70,33 73,33 77,33 80,34 83,34 86,34 90,34 93,34 96,35 100,34 103,35 106,34 109,35 112,35 118,38 122,40 131,38 135,39 138,39 141,39 145,39 148,40 151,40 158,37 161,37 164,38 174,37 181,38 184,35 187,35 191,35 197,34 210,34 214,34 227,34 230,33 233,32 243,32 246,31 250,31 270,31 270,100 0,100" fill="#dea584" />
    <polygon points="0,61 4,61 10,60 14,57 17,53 20,49 23,49 27,49 30,49 33,48 37,48 40,49 43,50 46,48 53,48 56,50 60,51 63,53 67,53 70,54 73,54 77,54 80,55 83,55 86,55 90,56 93,55 96,57 100,57 103,57 106,57 109,57 112,57 118,55 122,56 131,54 135,55 138,55 141,55 145,55 148,56 151,56 158,57 161,58 164,58 174,58 181,58 184,57 187,57 191,58 197,58 210,58 214,58 227,59 230,60 233,61 243,61 246,62 250,62 270,62 270,100 0,100" fill="#3D6117" />
  </g>
</svg>
