<svg width="300" height="160" viewBox="0 0 300 160" fill="none" role="img" xmlns="http://www.w3.org/2000/svg">
  <style>
    .header {font: 600 18px 'Segoe UI', Ubuntu, Sans-Serif; fill: #2f80ed; }
    .lang-name {font: 400 11px 'Segoe UI', Ubuntu, Sans-Serif; fill: #888; }
  </style>
  <rect x="0.5" y="0.5" rx="4.5" width="299" height="159" stroke="#888" stroke-opacity="1" fill="none" />
  <g transform="translate(15,25)"><text x="0" y="0" class="header">Language History</text></g>
  <g transform="translate(15,45)">
    <rect x="0" y="0" width="270" height="100" fill="#888" />
    <polygon points="0,12 8,12 21,12 27,11 33,11 40,9 46,9 53,9 59,7 65,7 72,7 78,7 85,7 91,2 104,3 110,3 117,3 124,3 130,3 137,3 143,3 150,3 156,3 162,3 169,3 175,2 182,2 188,2 194,2 201,2 207,2 213,3 219,3 231,5 237,9 257,2 263,3 270,2 270,100 0,100" fill="#fcb32c" />
    <polygon points="0,14 8,14 21,14 27,13 33,12 40,10 46,10 53,11 59,9 65,9 72,9 78,9 85,9 91,4 104,5 110,5 117,4 124,4 130,4 137,4 143,5 150,4 156,4 162,4 169,4 175,4 182,4 188,3 194,3 201,3 207,4 213,4 219,4 231,7 237,10 257,4 263,5 270,4 270,100 0,100" fill="#ff5a03" />
    <polygon points="0,17 8,17 21,17 27,16 33,15 40,13 46,13 53,13 59,12 65,12 72,12 78,12 85,12 91,6 104,7 110,9 117,9 124,9 130,9 137,9 143,9 150,9 156,9 162,9 169,9 175,8 182,8 188,8 194,8 201,8 207,8 213,8 219,8 231,11 237,15 257,8 263,9 270,8 270,100 0,100" fill="#3178c6" />
    <polygon points="0,21 8,21 21,20 27,19 33,18 40,16 46,16 53,16 59,15 65,14 72,15 78,15 85,15 91,9 104,11 110,14 117,14 124,15 130,15 137,15 143,15 150,15 156,15 162,15 169,15 175,14 182,13 188,14 194,14 201,15 207,13 213,14 219,15 231,17 237,20 257,16 263,18 270,17 270,100 0,100" fill="#dea584" />
    <polygon points="0,41 8,41 21,40 27,38 33,35 40,32 46,32 53,32 59,32 65,30 72,30 78,31 85,32 91,28 104,29 110,31 117,32 124,35 130,35 137,36 143,37 150,37 156,36 162,36 169,36 175,36 182,35 188,36 194,36 201,37 207,36 213,36 219,36 231,34 237,35 257,33 263,34 270,34 270,100 0,100" fill="#3572A5" />
    <polygon points="0,61 8,61 21,60 27,57 33,53 40,49 46,49 53,50 59,49 65,48 72,48 78,49 85,50 91,48 104,48 110,51 117,51 124,53 130,53 137,54 143,54 150,54 156,55 162,55 169,55 175,56 182,56 188,57 194,57 201,57 207,57 213,57 219,57 231,55 237,56 257,54 263,55 270,55 270,100 0,100" fill="#3D6117" />
  </g>
</svg>
