<svg width="300" height="160" viewBox="0 0 300 160" fill="none" role="img" xmlns="http://www.w3.org/2000/svg">
  <style>
    .header {font: 600 18px 'Segoe UI', Ubuntu, Sans-Serif; fill: #2f80ed; }
    .lang-name {font: 400 11px 'Segoe UI', Ubuntu, Sans-Serif; fill: #888; }
  </style>
  <rect x="0.5" y="0.5" rx="4.5" width="299" height="159" stroke="#888" stroke-opacity="1" fill="none" />
  <g transform="translate(15,25)"><text x="0" y="0" class="header">Language History</text></g>
  <g transform="translate(15,45)">
    <rect x="0" y="0" width="270" height="100" fill="#888" />
    <polygon points="0,14 9,14 23,14 31,13 38,12 45,10 52,10 60,11 67,9 74,9 82,9 89,9 96,9 103,4 118,5 125,5 132,4 141,4 148,4 155,4 163,5 170,4 177,4 184,4 192,4 199,4 206,4 213,3 221,3 228,3 235,4 241,4 249,4 262,3 270,4 270,100 0,100" fill="#ff5a03" />
    <polygon points="0,17 9,17 23,17 31,16 38,15 45,13 52,13 60,13 67,12 74,12 82,12 89,12 96,12 103,6 118,7 125,9 132,9 141,9 148,9 155,9 163,9 170,9 177,9 184,9 192,9 199,8 206,8 213,8 221,8 228,8 235,8 241,8 249,8 262,8 270,8 270,100 0,100" fill="#3178c6" />
    <polygon points="0,21 9,21 23,20 31,19 38,18 45,16 52,16 60,16 67,15 74,14 82,15 89,15 96,15 103,9 118,11 125,14 132,14 141,15 148,15 155,15 163,15 170,15 177,15 184,15 192,15 199,14 206,13 213,14 221,14 228,15 235,13 241,14 249,15 262,13 270,13 270,100 0,100" fill="#00B4AB" />
    <polygon points="0,21 9,21 23,20 31,19 38,18 45,16 52,16 60,16 67,15 74,14 82,15 89,15 96,15 103,9 118,11 125,14 132,14 141,15 148,15 155,15 163,15 170,15 177,15 184,15 192,15 199,14 206,13 213,14 221,14 228,15 235,13 241,14 249,15 262,17 270,20 270,100 0,100" fill="#dea584" />
    <polygon points="0,41 9,41 23,40 31,38 38,35 45,32 52,32 60,32 67,32 74,30 82,30 89,31 96,32 103,28 118,29 125,31 132,32 141,35 148,35 155,36 163,37 170,37 177,36 184,36 192,36 199,36 206,35 213,36 221,36 228,37 235,36 241,36 249,36 262,34 270,35 270,100 0,100" fill="#3572A5" />
    <polygon points="0,61 9,61 23,60 31,57 38,53 45,49 52,49 60,50 67,49 74,48 82,48 89,49 96,50 103,48 118,48 125,51 132,51 141,53 148,53 155,54 163,54 170,54 177,55 184,55 192,55 199,56 206,56 213,57 221,57 228,57 235,57 241,57 249,57 262,55 270,56 270,100 0,100" fill="#3D6117" />
  </g>
</svg>
