<svg width="300" height="160" viewBox="0 0 300 160" fill="none" role="img" xmlns="http://www.w3.org/2000/svg">
  <style>
    .header {font: 600 18px 'Segoe UI', Ubuntu, Sans-Serif; fill: #2f80ed; }
    .lang-name {font: 400 11px 'Segoe UI', Ubuntu, Sans-Serif; fill: #888; }
  </style>
  <rect x="0.5" y="0.5" rx="4.5" width="299" height="159" stroke="#888" stroke-opacity="1" fill="none" />
  <g transform="translate(15,25)"><text x="0" y="0" class="header">Language History</text></g>
  <g transform="translate(15,45)">
    <rect x="0" y="0" width="270" height="100" fill="#888" />
    <polygon points="0,12 18,12 21,12 48,12 63,11 78,11 92,9 107,9 122,9 137,7 151,7 166,7 181,7 196,7 210,2 240,3 255,3 270,3 270,100 0,100" fill="#fcb32c" />
    <polygon points="0,14 18,14 21,14 48,14 63,13 78,12 92,10 107,10 122,11 137,9 151,9 166,9 181,9 196,9 210,4 240,5 255,5 270,4 270,100 0,100" fill="#ff5a03" />
    <polygon points="0,17 18,17 21,17 48,17 63,16 78,15 92,13 107,13 122,13 137,12 151,12 166,12 181,12 196,12 210,6 240,7 255,9 270,9 270,100 0,100" fill="#3178c6" />
    <polygon points="0,21 18,21 21,21 48,20 63,19 78,18 92,16 107,16 122,16 137,15 151,14 166,15 181,15 196,15 210,9 240,11 255,14 270,14 270,100 0,100" fill="#dea584" />
    <polygon points="0,41 18,41 21,41 48,40 63,38 78,35 92,32 107,32 122,32 137,32 151,30 166,30 181,31 196,32 210,28 240,29 255,31 270,32 270,100 0,100" fill="#3572A5" />
    <polygon points="0,61 18,61 21,60 48,60 63,57 78,53 92,49 107,49 122,50 137,49 151,48 166,48 181,49 196,50 210,48 240,48 255,51 270,51 270,100 0,100" fill="#3D6117" />
  </g>
</svg>
