<svg width="300" height="160" viewBox="0 0 300 160" fill="none" role="img" xmlns="http://www.w3.org/2000/svg">
  <style>
    .header {font: 600 18px 'Segoe UI', Ubuntu, Sans-Serif; fill: #2f80ed; }
    .lang-name {font: 400 11px 'Segoe UI', Ubuntu, Sans-Serif; fill: #888; }
  </style>
  <rect x="0.5" y="0.5" rx="4.5" width="299" height="159" stroke="#888" stroke-opacity="1" fill="none" />
  <g transform="translate(15,25)"><text x="0" y="0" class="header">Language History</text></g>
  <g transform="translate(15,45)">
    <rect x="0" y="0" width="270" height="100" fill="#888" />
    <polygon points="0,12 14,12 37,12 49,11 60,11 72,9 83,9 95,9 107,7 118,7 130,7 141,7 153,7 164,2 187,3 199,3 210,3 223,3 235,3 246,3 258,3 270,3 270,100 0,100" fill="#fcb32c" />
    <polygon points="0,14 14,14 37,14 49,13 60,12 72,10 83,10 95,11 107,9 118,9 130,9 141,9 153,9 164,4 187,5 199,5 210,4 223,4 235,4 246,4 258,5 270,4 270,100 0,100" fill="#ff5a03" />
    <polygon points="0,17 14,17 37,17 49,16 60,15 72,13 83,13 95,13 107,12 118,12 130,12 141,12 153,12 164,6 187,7 199,9 210,9 223,9 235,9 246,9 258,9 270,9 270,100 0,100" fill="#3178c6" />
    <polygon points="0,21 14,21 37,20 49,19 60,18 72,16 83,16 95,16 107,15 118,14 130,15 141,15 153,15 164,9 187,11 199,14 210,14 223,15 235,15 246,15 258,15 270,15 270,100 0,100" fill="#3572A5" />
    <polygon points="0,40 14,40 37,40 49,38 60,35 72,33 83,33 95,33 107,32 118,32 130,32 141,32 153,32 164,29 187,31 199,33 210,33 223,33 235,33 246,33 258,33 270,33 270,100 0,100" fill="#dea584" />
    <polygon points="0,61 14,61 37,60 49,57 60,53 72,49 83,49 95,49 107,49 118,48 130,48 141,49 153,50 164,48 187,48 199,50 210,51 223,53 235,53 246,54 258,54 270,54 270,100 0,100" fill="#3D6117" />
  </g>
</svg>
