<svg width="300" height="160" viewBox="0 0 300 160" fill="none" role="img" xmlns="http://www.w3.org/2000/svg">
  <style>
    .header {font: 600 18px 'Segoe UI', Ubuntu, Sans-Serif; fill: #2f80ed; }
    .lang-name {font: 400 11px 'Segoe UI', Ubuntu, Sans-Serif; fill: #888; }
  </style>
  <rect x="0.5" y="0.5" rx="4.5" width="299" height="159" stroke="#888" stroke-opacity="1" fill="none" />
  <g transform="translate(15,25)"><text x="0" y="0" class="header">Language History</text></g>
  <g transform="translate(15,45)">
    <rect x="0" y="0" width="270" height="100" fill="#888" />
    <polygon points="0,17 3,17 7,17 10,16 12,15 14,13 17,13 19,13 21,12 24,12 26,12 28,12 31,12 33,6 38,7 40,9 42,9 45,9 47,9 50,9 52,9 54,9 57,9 59,9 61,9 64,8 66,8 68,8 71,8 73,8 75,8 77,8 80,8 84,11 86,15 94,8 96,9 98,8 101,8 103,8 105,8 108,5 112,5 115,6 117,6 124,6 129,6 131,6 133,6 136,6 140,6 150,6 152,6 161,6 164,6 166,6 173,6 175,5 178,5 192,6 194,6 197,6 199,6 201,6 204,6 206,5 208,6 215,5 222,6 227,6 229,6 232,6 234,5 236,5 239,5 241,5 243,5 248,5 255,5 257,5 260,5 262,5 267,6 270,5 270,100 0,100" fill="#ff3e00" />
    <polygon points="0,17 3,17 7,17 10,16 12,15 14,13 17,13 19,13 21,12 24,12 26,12 28,12 31,12 33,6 38,7 40,9 42,9 45,9 47,9 50,9 52,9 54,9 57,9 59,9 61,9 64,8 66,8 68,8 71,8 73,8 75,8 77,8 80,8 84,11 86,15 94,8 96,9 98,8 101,8 103,8 105,8 108,8 112,10 115,11 117,11 124,11 129,12 131,10 133,10 136,10 140,10 150,10 152,10 161,10 164,9 166,9 173,9 175,9 178,9 192,9 194,10 197,9 199,10 201,10 204,11 206,10 208,11 215,11 222,12 227,11 229,11 232,11 234,10 236,9 239,9 241,10 243,10 248,10 255,10 257,10 260,10 262,11 267,11 270,10 270,100 0,100" fill="#3178c6" />
    <polygon points="0,21 3,21 7,20 10,19 12,18 14,16 17,16 19,16 21,15 24,14 26,15 28,15 31,15 33,9 38,11 40,14 42,14 45,15 47,15 50,15 52,15 54,15 57,15 59,15 61,15 64,14 66,13 68,14 71,14 73,15 75,13 77,14 80,15 84,17 86,20 94,16 96,18 98,17 101,18 103,19 105,19 108,20 112,16 115,18 117,18 124,18 129,18 131,15 133,15 136,15 140,15 150,15 152,14 161,14 164,14 166,14 173,14 175,13 178,13 192,13 194,14 197,15 199,15 201,16 204,16 206,15 208,16 215,16 222,17 227,17 229,17 232,17 234,16 236,14 239,14 241,16 243,16 248,15 255,16 257,16 260,16 262,16 267,16 270,15 270,100 0,100" fill="#239dad" />
    <polygon points="0,21 3,21 7,20 10,19 12,18 14,16 17,16 19,16 21,15 24,14 26,15 28,15 31,15 33,9 38,11 40,14 42,14 45,15 47,15 50,15 52,15 54,15 57,15 59,15 61,15 64,14 66,13 68,14 71,14 73,15 75,13 77,14 80,15 84,17 86,20 94,16 96,18 98,17 101,18 103,19 105,19 108,20 112,16 115,18 117,18 124,18 129,18 131,15 133,15 136,15 140,15 150,15 152,14 161,14 164,14 166,14 173,14 175,13 178,13 192,13 194,14 197,28 199,28 201,29 204,29 206,28 208,29 215,29 222,31 227,31 229,31 232,31 234,30 236,28 239,28 241,30 243,30 248,30 255,30 257,30 260,30 262,30 267,30 270,29 270,100 0,100" fill="#3572A5" />
    <polygon points="0,40 3,40 7,40 10,38 12,35 14,33 17,33 19,33 21,32 24,32 26,32 28,32 31,32 33,29 38,31 40,33 42,33 45,33 47,33 50,33 52,33 54,33 57,34 59,34 61,34 64,34 66,34 68,35 71,34 73,35 75,34 77,35 80,35 84,38 86,40 94,38 96,39 98,39 101,39 103,39 105,40 108,40 112,37 115,37 117,38 124,37 129,38 131,35 133,35 136,35 140,34 150,34 152,34 161,34 164,33 166,32 173,32 175,31 178,31 192,31 194,33 197,46 199,46 201,46 204,46 206,46 208,46 215,46 222,51 227,50 229,50 232,50 234,50 236,48 239,48 241,49 243,50 248,50 255,50 257,50 260,49 262,50 267,50 270,49 270,100 0,100" fill="#dea584" />
    <polygon points="0,61 3,61 7,60 10,57 12,53 14,49 17,49 19,49 21,49 24,48 26,48 28,49 31,50 33,48 38,48 40,50 42,51 45,53 47,53 50,54 52,54 54,54 57,55 59,55 61,55 64,56 66,55 68,57 71,57 73,57 75,57 77,57 80,57 84,55 86,56 94,54 96,55 98,55 101,55 103,55 105,56 108,56 112,57 115,58 117,58 124,58 129,58 131,57 133,57 136,58 140,58 150,58 152,58 161,59 164,60 166,61 173,61 175,62 178,62 192,62 194,60 197,73 199,74 201,74 204,74 206,74 208,75 215,75 222,72 227,72 229,72 232,72 234,72 236,71 239,71 241,72 243,72 248,72 255,73 257,72 260,73 262,73 267,73 270,73 270,100 0,100" fill="#3D6117" />
  </g>
</svg>
