<svg width="300" height="160" viewBox="0 0 300 160" fill="none" role="img" xmlns="http://www.w3.org/2000/svg">
  <style>
    .header {font: 600 18px 'Segoe UI', Ubuntu, Sans-Serif; fill: #2f80ed; }
    .lang-name {font: 400 11px 'Segoe UI', Ubuntu, Sans-Serif; fill: #888; }
  </style>
  <rect x="0.5" y="0.5" rx="4.5" width="299" height="159" stroke="#888" stroke-opacity="1" fill="none" />
  <g transform="translate(15,25)"><text x="0" y="0" class="header">Language History</text></g>
  <g transform="translate(15,45)">
    <rect x="0" y="0" width="270" height="100" fill="#888" />
    <polygon points="0,12 8,12 21,12 28,11 34,11 41,9 47,9 54,9 60,7 67,7 74,7 80,7 87,7 93,2 106,3 113,3 120,3 127,3 134,3 140,3 147,3 153,3 160,3 166,3 173,3 180,2 186,2 193,2 199,2 206,2 212,2 218,3 225,3 237,5 243,9 263,2 270,3 270,100 0,100" fill="#fcb32c" />
    <polygon points="0,14 8,14 21,14 28,13 34,12 41,10 47,10 54,11 60,9 67,9 74,9 80,9 87,9 93,4 106,5 113,5 120,4 127,4 134,4 140,4 147,5 153,4 160,4 166,4 173,4 180,4 186,4 193,3 199,3 206,3 212,4 218,4 225,4 237,7 243,10 263,4 270,5 270,100 0,100" fill="#ff5a03" />
    <polygon points="0,17 8,17 21,17 28,16 34,15 41,13 47,13 54,13 60,12 67,12 74,12 80,12 87,12 93,6 106,7 113,9 120,9 127,9 134,9 140,9 147,9 153,9 160,9 166,9 173,9 180,8 186,8 193,8 199,8 206,8 212,8 218,8 225,8 237,11 243,15 263,8 270,9 270,100 0,100" fill="#3178c6" />
    <polygon points="0,21 8,21 21,20 28,19 34,18 41,16 47,16 54,16 60,15 67,14 74,15 80,15 87,15 93,9 106,11 113,14 120,14 127,15 134,15 140,15 147,15 153,15 160,15 166,15 173,15 180,14 186,13 193,14 199,14 206,15 212,13 218,14 225,15 237,17 243,20 263,16 270,18 270,100 0,100" fill="#dea584" />
    <polygon points="0,41 8,41 21,40 28,38 34,35 41,32 47,32 54,32 60,32 67,30 74,30 80,31 87,32 93,28 106,29 113,31 120,32 127,35 134,35 140,36 147,37 153,37 160,36 166,36 173,36 180,36 186,35 193,36 199,36 206,37 212,36 218,36 225,36 237,34 243,35 263,33 270,34 270,100 0,100" fill="#3572A5" />
    <polygon points="0,61 8,61 21,60 28,57 34,53 41,49 47,49 54,50 60,49 67,48 74,48 80,49 87,50 93,48 106,48 113,51 120,51 127,53 134,53 140,54 147,54 153,54 160,55 166,55 173,55 180,56 186,56 193,57 199,57 206,57 212,57 218,57 225,57 237,55 243,56 263,54 270,55 270,100 0,100" fill="#3D6117" />
  </g>
</svg>
