<svg width="300" height="160" viewBox="0 0 300 160" fill="none" role="img" xmlns="http://www.w3.org/2000/svg">
  <style>
    .header {font: 600 18px 'Segoe UI', Ubuntu, Sans-Serif; fill: #2f80ed; }
    .lang-name {font: 400 11px 'Segoe UI', Ubuntu, Sans-Serif; fill: #888; }
  </style>
  <rect x="0.5" y="0.5" rx="4.5" width="299" height="159" stroke="#888" stroke-opacity="1" fill="none" />
  <g transform="translate(15,25)"><text x="0" y="0" class="header">Language History</text></g>
  <g transform="translate(15,45)">
    <rect x="0" y="0" width="270" height="100" fill="#888" />
    <polygon points="0,17 3,17 8,17 10,16 12,15 15,13 17,13 20,13 22,12 25,12 27,12 30,12 32,12 35,6 39,7 42,9 44,9 47,9 50,9 52,9 54,9 57,9 59,9 62,9 64,9 67,8 69,8 72,8 74,8 77,8 79,8 81,8 84,8 88,11 91,15 98,8 100,9 103,8 105,8 108,8 110,8 113,5 118,5 120,6 122,6 130,6 135,6 137,6 140,6 142,6 147,6 157,6 159,6 169,6 171,6 174,6 181,6 184,5 186,5 201,6 203,6 206,6 208,6 211,6 213,6 216,5 218,6 225,5 233,6 238,6 240,6 243,6 245,5 247,5 250,5 252,5 255,5 260,5 267,5 270,5 270,100 0,100" fill="#ff3e00" />
    <polygon points="0,17 3,17 8,17 10,16 12,15 15,13 17,13 20,13 22,12 25,12 27,12 30,12 32,12 35,6 39,7 42,9 44,9 47,9 50,9 52,9 54,9 57,9 59,9 62,9 64,9 67,8 69,8 72,8 74,8 77,8 79,8 81,8 84,8 88,11 91,15 98,8 100,9 103,8 105,8 108,8 110,8 113,8 118,10 120,11 122,11 130,11 135,12 137,10 140,10 142,10 147,10 157,10 159,10 169,10 171,9 174,9 181,9 184,9 186,9 201,9 203,10 206,9 208,10 211,10 213,11 216,10 218,11 225,11 233,12 238,11 240,11 243,11 245,10 247,9 250,9 252,10 255,10 260,10 267,10 270,10 270,100 0,100" fill="#3178c6" />
    <polygon points="0,21 3,21 8,20 10,19 12,18 15,16 17,16 20,16 22,15 25,14 27,15 30,15 32,15 35,9 39,11 42,14 44,14 47,15 50,15 52,15 54,15 57,15 59,15 62,15 64,15 67,14 69,13 72,14 74,14 77,15 79,13 81,14 84,15 88,17 91,20 98,16 100,18 103,17 105,18 108,19 110,19 113,20 118,16 120,18 122,18 130,18 135,18 137,15 140,15 142,15 147,15 157,15 159,14 169,14 171,14 174,14 181,14 184,13 186,13 201,13 203,14 206,15 208,15 211,16 213,16 216,15 218,16 225,16 233,17 238,17 240,17 243,17 245,16 247,14 250,14 252,16 255,16 260,15 267,16 270,16 270,100 0,100" fill="#239dad" />
    <polygon points="0,21 3,21 8,20 10,19 12,18 15,16 17,16 20,16 22,15 25,14 27,15 30,15 32,15 35,9 39,11 42,14 44,14 47,15 50,15 52,15 54,15 57,15 59,15 62,15 64,15 67,14 69,13 72,14 74,14 77,15 79,13 81,14 84,15 88,17 91,20 98,16 100,18 103,17 105,18 108,19 110,19 113,20 118,16 120,18 122,18 130,18 135,18 137,15 140,15 142,15 147,15 157,15 159,14 169,14 171,14 174,14 181,14 184,13 186,13 201,13 203,14 206,28 208,28 211,29 213,29 216,28 218,29 225,29 233,31 238,31 240,31 243,31 245,30 247,28 250,28 252,30 255,30 260,30 267,30 270,30 270,100 0,100" fill="#3572A5" />
    <polygon points="0,40 3,40 8,40 10,38 12,35 15,33 17,33 20,33 22,32 25,32 27,32 30,32 32,32 35,29 39,31 42,33 44,33 47,33 50,33 52,33 54,33 57,33 59,34 62,34 64,34 67,34 69,34 72,35 74,34 77,35 79,34 81,35 84,35 88,38 91,40 98,38 100,39 103,39 105,39 108,39 110,40 113,40 118,37 120,37 122,38 130,37 135,38 137,35 140,35 142,35 147,34 157,34 159,34 169,34 171,33 174,32 181,32 184,31 186,31 201,31 203,33 206,46 208,46 211,46 213,46 216,46 218,46 225,46 233,51 238,50 240,50 243,50 245,50 247,48 250,48 252,49 255,50 260,50 267,50 270,50 270,100 0,100" fill="#dea584" />
    <polygon points="0,61 3,61 8,60 10,57 12,53 15,49 17,49 20,49 22,49 25,48 27,48 30,49 32,50 35,48 39,48 42,50 44,51 47,53 50,53 52,54 54,54 57,54 59,55 62,55 64,55 67,56 69,55 72,57 74,57 77,57 79,57 81,57 84,57 88,55 91,56 98,54 100,55 103,55 105,55 108,55 110,56 113,56 118,57 120,58 122,58 130,58 135,58 137,57 140,57 142,58 147,58 157,58 159,58 169,59 171,60 174,61 181,61 184,62 186,62 201,62 203,60 206,73 208,74 211,74 213,74 216,74 218,75 225,75 233,72 238,72 240,72 243,72 245,72 247,71 250,71 252,72 255,72 260,72 267,73 270,72 270,100 0,100" fill="#3D6117" />
  </g>
</svg>
