<svg width="300" height="160" viewBox="0 0 300 160" fill="none" role="img" xmlns="http://www.w3.org/2000/svg">
  <style>
    .header {font: 600 18px 'Segoe UI', Ubuntu, Sans-Serif; fill: #2f80ed; }
    .lang-name {font: 400 11px 'Segoe UI', Ubuntu, Sans-Serif; fill: #888; }
  </style>
  <rect x="0.5" y="0.5" rx="4.5" width="299" height="159" stroke="#888" stroke-opacity="1" fill="none" />
  <g transform="translate(15,25)"><text x="0" y="0" class="header">Most Used Languages</text></g>
  <g transform="translate(15,45)">
    <mask id="lang-mask"><rect x="0" y="0" width="270" height="8" rx="5" fill="#fff" /></mask>
    <rect mask="url(#lang-mask)" x="0" y="0" width="136" height="8" fill="#3D6117" />
    <g transform="translate(15.0,25)"><circle cx="5" cy="5" r="5" fill="#3D6117" /><text x="15" y="10" class="lang-name">TeX (50.0%)</text></g>
    <rect mask="url(#lang-mask)" x="135" y="0" width="48" height="8" fill="#3572A5" />
    <g transform="translate(150.0,25)"><circle cx="5" cy="5" r="5" fill="#3572A5" /><text x="15" y="10" class="lang-name">Python (17.5%)</text></g>
    <rect mask="url(#lang-mask)" x="182" y="0" width="45" height="8" fill="#dea584" />
    <g transform="translate(15.0,45)"><circle cx="5" cy="5" r="5" fill="#dea584" /><text x="15" y="10" class="lang-name">Rust (16.4%)</text></g>
    <rect mask="url(#lang-mask)" x="227" y="0" width="15" height="8" fill="#f1e05a" />
    <g transform="translate(150.0,45)"><circle cx="5" cy="5" r="5" fill="#f1e05a" /><text x="15" y="10" class="lang-name">JavaScript (5.2%)</text></g>
    <rect mask="url(#lang-mask)" x="241" y="0" width="9" height="8" fill="#3178c6" />
    <g transform="translate(15.0,65)"><circle cx="5" cy="5" r="5" fill="#3178c6" /><text x="15" y="10" class="lang-name">TypeScript (3.0%)</text></g>
    <rect mask="url(#lang-mask)" x="249" y="0" width="7" height="8" fill="#ff5a03" />
    <g transform="translate(150.0,65)"><circle cx="5" cy="5" r="5" fill="#ff5a03" /><text x="15" y="10" class="lang-name">Astro (2.1%)</text></g>
    <rect mask="url(#lang-mask)" x="255" y="0" width="5" height="8" fill="#fcb32c" />
    <g transform="translate(15.0,85)"><circle cx="5" cy="5" r="5" fill="#fcb32c" /><text x="15" y="10" class="lang-name">MDX (1.7%)</text></g>
    <rect mask="url(#lang-mask)" x="259" y="0" width="5" height="8" fill="#ff3e00" />
    <g transform="translate(150.0,85)"><circle cx="5" cy="5" r="5" fill="#ff3e00" /><text x="15" y="10" class="lang-name">Svelte (1.3%)</text></g>
    <rect mask="url(#lang-mask)" x="263" y="0" width="8" height="8" fill="#888" />
  </g>
</svg>
