<svg width="300" height="160" viewBox="0 0 300 160" fill="none" role="img" xmlns="http://www.w3.org/2000/svg">
  <style>
    .header {font: 600 18px 'Segoe UI', Ubuntu, Sans-Serif; fill: #2f80ed; }
    .lang-name {font: 400 11px 'Segoe UI', Ubuntu, Sans-Serif; fill: #888; }
  </style>
  <rect x="0.5" y="0.5" rx="4.5" width="299" height="159" stroke="#888" stroke-opacity="1" fill="none" />
  <g transform="translate(15,25)"><text x="0" y="0" class="header">Most Used Languages</text></g>
  <g transform="translate(15,45)">
    <mask id="lang-mask"><rect x="0" y="0" width="270" height="8" rx="5" fill="#fff" /></mask>
    <rect mask="url(#lang-mask)" x="0" y="0" width="78" height="8" fill="#dea584" />
    <g transform="translate(15.0,40)"><circle cx="5" cy="5" r="5" fill="#dea584" /><text x="15" y="10" class="lang-name">Rust (28.5%)</text></g>
    <rect mask="url(#lang-mask)" x="77" y="0" width="68" height="8" fill="#3D6117" />
    <g transform="translate(150.0,40)"><circle cx="5" cy="5" r="5" fill="#3D6117" /><text x="15" y="10" class="lang-name">TeX (24.8%)</text></g>
    <rect mask="url(#lang-mask)" x="144" y="0" width="48" height="8" fill="#3572A5" />
    <g transform="translate(15.0,60)"><circle cx="5" cy="5" r="5" fill="#3572A5" /><text x="15" y="10" class="lang-name">Python (17.5%)</text></g>
    <rect mask="url(#lang-mask)" x="191" y="0" width="36" height="8" fill="#239dad" />
    <g transform="translate(150.0,60)"><circle cx="5" cy="5" r="5" fill="#239dad" /><text x="15" y="10" class="lang-name">Typst (12.9%)</text></g>
    <rect mask="url(#lang-mask)" x="226" y="0" width="15" height="8" fill="#ff3e00" />
    <g transform="translate(15.0,80)"><circle cx="5" cy="5" r="5" fill="#ff3e00" /><text x="15" y="10" class="lang-name">Svelte (5.2%)</text></g>
    <rect mask="url(#lang-mask)" x="240" y="0" width="14" height="8" fill="#3178c6" />
    <g transform="translate(150.0,80)"><circle cx="5" cy="5" r="5" fill="#3178c6" /><text x="15" y="10" class="lang-name">TypeScript (5.0%)</text></g>
    <rect mask="url(#lang-mask)" x="254" y="0" width="17" height="8" fill="#888" />
  </g>
</svg>
